<svg viewBox="0 0 48.561 53.974" xmlns="http://www.w3.org/2000/svg"><path d="M19.434 53.97c-1.57 0-3.148-.023-4.733-.07-2.398-.072-15.54-.728-14.659-3.006l.02-.044c.342-.709 2.844-1.244 3.888-1.475 3.897-.86 8.057-1.145 12.221-1.145a123.644 123.644 0 0 1 7.212.233c.81.046 1.629.064 2.453.064 1.247 0 2.507-.04 3.768-.08 1.26-.04 2.522-.08 3.774-.08.367 0 .732.002 1.096.01 3.39.074 6.856.042 10.176.506 2.256.315 5.868 1.36 2.606 2.741-.894.379-2.01.527-3.091.663-8.222 1.038-16.39 1.683-24.731 1.683" fill="#d2cdc8"/><path d="m23.455 46.21 1.075-6.08.494-2.797c.333-1.884.666-3.768.903-5.666.15-1.211.261-2.44.089-3.65-.714-.797-1.958-.73-3.02-.6-.679.082-1.358.166-2.038.247-.12.015-.25.036-.336.124-.082.085-.1.208-.113.328-.17 1.59-.162 3.193-.153 4.792.009 1.63.027 3.307.644 4.816.163.398.367.78.513 1.184.226.623.312 1.287.393 1.945.232 1.874.438 3.752.616 5.632l.933-.275" fill="#687989"/><path d="M24.739 40.27c-.425 1.458-.24 3.016-.052 4.523l.413 3.314c.07.552.142 1.104.207 1.657.051.43-.07.945.066 1.348.166.09.383-.017.479-.18.096-.162.102-.36.106-.549.063-3.132-.08-6.225-.597-9.321-.065-.364-.253-.824-.622-.792" fill="#9b7962"/><path d="M31.167 47.88c.117-.39.136-.8.138-1.207.01-1.69-.441-3.382-.41-5.058.027-1.39.887-2.726.685-4.13a2.588 2.588 0 0 0-1.027-1.702c-1.139-.829-3.085-.725-4.099.259-.231.225-.42.498-.69.675-.184.12-.4.191-.56.34-.19.175-.275.434-.336.686-.344 1.41-.14 2.888.065 4.324l1.3 9.08c.274.222.686.259.995.088a.916.916 0 0 0 .455-.89c-.035-.289-.206-.54-.33-.803-.278-.589-.325-1.257-.368-1.907l-.307-4.697c.94.004 1.882-.113 2.793-.346.276 1.3.333 2.635.39 3.963.03.687.054 1.402-.22 2.033-.16.37-.415.692-.6 1.05-.186.359-.299.79-.15 1.164.205.127.484.065.674-.084.19-.147.313-.364.43-.575l.731-1.316c.17-.305.34-.613.44-.947" fill="#aa8165"/><path d="M29.569 27.44c-.01.208.016.416.072.617.056.194.189.413.395.406.204-.004.324-.222.385-.41.28-.878.201-1.823.118-2.74.197.017.078-.088-.744.095.081.374-.171.73-.279 1.097-.114.392-.333.79-.223 1.182.055-.007.109-.01.163-.018l.113-.23" fill="#f2e7d6"/><g fill="#97a8b2"><path d="M29.62 25.37c-.006.36.049.818.337.882.296.063.511-.36.625-.713l.754-2.307c.49-1.503.986-3.037 1.052-4.628.027-.646-.055-1.376-.483-1.736-.266-.222-.613-.25-.943-.25-1.641-.011-1.221 1.788-1.246 3.245l-.096 5.507"/><path d="M27.429 9.2c-.368-.363-.778-.706-1.234-.8-.456-.1-.964.116-1.104.613-.128.452.071.974.285 1.418.546 1.143-.879 1.193-.212 2.247.703 1.115 3.5 3.242 4.203 4.357.213.339.443.692.764.865.561.303 1.762-.205 1.803-.953.036-.667-.96-2.244-1.255-2.861-.863-1.8-1.884-3.542-3.25-4.886M15.037 19.62c1.274-2.84 8.006-8.968 4.026-8.438-.36.049.332-.657.362-1.016.03-.36-.107-.759-.442-.974-.397-.258-.96-.18-1.342.067-.381.247-.62.628-.837 1.002a27.581 27.581 0 0 0-3.62 11.105c-.04.402-.075.815-.273 1.171-.104.187-.252.413-.116.593.161.211.615.289.798.134.238-.201.32-.95.43-1.242.307-.811.658-1.609 1.014-2.402"/></g><path d="M13.437 25.32c-.022.205-.078.41-.165.596-.084.184-.249.381-.452.342-.2-.035-.287-.268-.318-.462-.144-.913.078-1.834.299-2.727-.198-.01-.064-.099.72.205-.136.36.06.748.11 1.129.053.405.21.832.04 1.203a2.592 2.592 0 0 1-.157-.046l-.077-.24M22.485 7.03c.437-.004.837-.226 1.14-.501 1.13-1.027 1.096-2.635.985-4.057-.012-.152-.027-.31-.124-.437-.15-.19-.444-.244-.708-.268-1.127 0-1.644-.847-2.78-.798-.095.004-.793.9-.868.953-.08.053-.11.148-.127.236-.08.41.072.84.066 1.256-.007.43.012.86.097 1.284.165.826.596 1.591 1.411 2.06.272.156.584.276.908.272" fill="#f2e7d6"/><path d="M20.427 5.12c.062.187.165.36.267.53.078.13.157.264.258.377.25.285.635.448 1.014.43.04 0 .08-.007.114-.025.08-.046.092-.158.092-.254l.279-.042.06.004c.06.032.013.138.062.183.357.152.785.004 1.071-.257.286-.261.46-.621.629-.97l.047-.103.377-.783a2.16 2.16 0 0 1-.122 1.006c-.084.226-.205.437-.25.67-.04.208-.02.427-.084.628-.088.275-.328.48-.593.596-.264.113-.555.152-.842.19-.42.054-.86.106-1.253-.052a1.75 1.75 0 0 1-.557-.381 3.133 3.133 0 0 1-.956-2.138c-.006-.17.07-.399.21-.18.107.162.117.392.177.572" fill="#534741"/><path d="M24.698 3.6a9.982 9.982 0 0 0-.035.303c.022-.098.032-.2.035-.303" fill="#422e24"/><path d="M25.611 2.71a3.201 3.201 0 0 0-.71-1.909c-.144-.176-.327-.338-.543-.398L24.286.36c-.197-.092-.416-.12-.633-.135-.362-.017-.727.011-1.086-.035-.548-.07-1.111-.31-1.631-.123-.231.08-.425.243-.611.402-.17.145-.34.303-.45.497a.954.954 0 0 0-.217.36c-.08.233-.091.483-.116.727-.042.427-.127.85-.21 1.27-.047.23-.13.504-.358.564a.495.495 0 0 0 .368-.14c.033.454-.095.92-.358 1.294.207-.127.398-.275.568-.448.01.529.294 1.044.736 1.337l-.097-.554c-.024-.145-.05-.286-.04-.43.008-.12.04-.24.053-.364.026-.264-.044-.525-.07-.79a3.078 3.078 0 0 1-.01-.434c.012-.102.02-.204.04-.303.076-.388.247-.808.613-.953.14-.053.293-.063.442-.077a3.3 3.3 0 0 0 .637-.138.943.943 0 0 0 .216-.085c.055-.035.126-.14.177-.162.123-.042.242.13.387.176.202.064.42.053.63.082.453.063.875.324 1.137.702.093.134.163.282.213.437l-.04.603c-.041.55-.085 1.119-.326 1.62-.061.126-.137.257-.132.398l.184-.328a.68.68 0 0 0 .164.632c.009-.41.146-.815.389-1.147a.925.925 0 0 0 .175.614c-.067-.455.04-.935.294-1.32.076.216.216.406.398.544-.272-.639-.09-1.284-.111-1.944" fill="#534741"/><g fill="#b68968"><path d="M29.339 36.92c.06-.181.07-.375.078-.566.02-.502.027-1.005.02-1.508-.004-.344-.023-.711-.222-.993-.297-.42-.878-.501-1.392-.54-.842-.065-1.794-.079-2.4.509a.785.785 0 0 0-.227.348c-.035.13-.019.268-.022.402-.01.553-.332 1.061-.355 1.613-.034.824.59 1.525.771 2.33.033.147.054.304.147.422.12.154.33.203.521.241.38.077.787.152 1.146.007.273-.109.483-.33.677-.55.334-.38.65-.772.95-1.18.122-.166.243-.339.308-.535"/><path d="M26.564 33.53c-.24-.29-.488-.584-.813-.773-.325-.188-.75-.252-1.074-.063-.277.161-.43.468-.568.757-.144.303-.289.605-.432.908.152.101.324-.086.481-.18.385-.232.878.123 1.32.038.193-.037.36-.156.518-.273l.568-.414M29.681 35.05c-.25-.074-.457-.25-.655-.42l-.259-.223c-.227-.196-.456-.394-.625-.641a4.197 4.197 0 0 1 1.944-.544c.166.598.308 1.202.426 1.812-.275.047-.563.095-.831.016"/></g><path d="M33.338 38.8c-.059.834-.22 1.66-.479 2.455a.353.353 0 0 0 .38.002l-.173.683c.163-.104.291.209.185.37-.107.16-.307.28-.314.472l.5.072-.303.6c.332 0 .825.059.946.417.056.166.048.345.041.52-.04.998-.054 1.998-.04 2.997.007.506-.023 1.042.043 1.543.043.324.19.644.026.966-.045.09-.113.166-.165.252a.842.842 0 0 0-.03.8.24.24 0 0 0 .066.087c.06.045.143.036.217.024.288-.044.667-.015.856-.241.129-.154.149-.46.2-.65a9.511 9.511 0 0 0 .294-1.972c.076-1.348-.04-2.697-.005-4.046.006-.204.023-.429.168-.573.178-.178.466-.157.716-.125l2.02.265c1.193 0 .71 2.665.688 3.333-.015.463-.03.927-.1 1.385-.057.374-.149.743-.188 1.12a4.009 4.009 0 0 0 .151 1.57c.334.024.687.013.975-.157.604-.359.313-1.105.279-1.66-.016-.261.247-2.166.144-2.241l.428.311.01-.535.26.16-.15-.474c.074.068.204.013.246-.078.042-.091.024-.198.005-.296l-.378-1.925c-.058-.297-.117-.602-.066-.9.055-.331.24-.624.397-.921.756-1.424.94-3.073 1.074-4.679.074-.87.117-1.818-.376-2.538-.296-.43-.753-.725-1.224-.952a6.628 6.628 0 0 0-3.42-.625c-1.381.12-2.813.774-3.43 2.015-.48.963-.398 2.095-.474 3.169" fill="#d6c196"/><path d="M41.783 35.02c-.104-.545-.378-1.043-.68-1.508-.483-.743-1.06-1.444-1.799-1.936-.738-.49-1.655-.758-2.525-.588-.519.1-.997.348-1.447.624-.467.287-.945.657-1.067 1.19a1.175 1.175 0 0 0-.025.175 1.492 1.492 0 0 0-.315.394c-.147.269-.216.572-.283.87l-.419 1.857c.248.041.473-.134.662-.298l-.136.326c.08.004.135.087.138.165a.477.477 0 0 1-.07.224l.412-.009c.334-.332.502-.783.688-1.223.21.57.366 1.226.65 1.762.23.435.534.762.707 1.246a5.21 5.21 0 0 0 2.485-.188c.248-.082.748-1.396.868-1.66.232-.51.246-1.153.503-1.622.341.684.675 1.305 1.315 1.774.355-.426.442-1.03.338-1.575" fill="#e2cd9f"/><g fill="#333"><path d="M11.697 48.38c-.013.146-.03.296.008.438.039.142.15.275.296.29.26.024.398-.298.446-.555.076-.409.136-.826.104-1.24-.063-.82-.475-1.589-.484-2.41-.003-.29.041-.597-.091-.854a.644.644 0 0 0-.482-.344c-.155-.02-.328.033-.415.163a.545.545 0 0 0-.075.208c-.12.64.2 1.268.41 1.885.262.774.355 1.604.283 2.419"/><path d="M13.061 49.43c.033-.329.04-.66.06-.99.068-1.104.281-2.195.495-3.28.021-.114.044-.229.095-.332.043-.09.106-.168.164-.25.426-.607.536-1.376.597-2.116.072-.874.075-1.821-.428-2.54-.394-.564-1.054-.912-1.396-1.508-.092-.16-.162-.337-.299-.46-.265-.238-.677-.186-1.02-.089a6.03 6.03 0 0 0-1.63.737c-.121.586.108 1.18.241 1.764a5.585 5.585 0 0 1-.228 3.214c-.053.137-.111.274-.142.418-.045.22-.024.447-.002.67l.243 2.484c.01.1.019.204-.025.294-.047.096-.145.155-.218.233-.074.078-.122.207-.052.288.29.23.75.081.967-.217.217-.298.25-.69.248-1.06a7.457 7.457 0 0 0-.323-2.127c.397-.41 1.055-.42 1.606-.274.201.054.403.128.56.265.338.297.38.8.366 1.25-.018.542-.088 1.09-.295 1.592-.15.361-.367.692-.518 1.053-.15.362-.23.777-.09 1.142l.619.173c.07.02.146.04.216.018.135-.044.175-.212.19-.352"/><path d="M9.451 38.24a1.264 1.264 0 0 0-.433-.642c-.116-.091-.254-.169-.311-.305a.646.646 0 0 1-.034-.254l.002-1.295c0-.238.012-.506.185-.67.214-.203.586-.136.798.069.211.205.3.503.363.791.064.288.114.588.274.835.03.046.066.092.117.11.101.038.204-.042.289-.108.323-.25.748-.364 1.152-.31-.323-.142-.422-.592-.267-.91.155-.317.493-.51.835-.597.319 1.144.637 2.363.292 3.5-.136.45-.372.862-.605 1.27-.092.16-.191.329-.354.415-.201.107-.451.06-.655-.04-.204-.1-.38-.25-.578-.361-.28-.155-.616-.244-.805-.501-.206-.28-.17-.664-.265-.997M13.903 43.1a.322.322 0 0 0-.13.16c-.191.422.02.903.152 1.348.266.894.2 1.854.043 2.773-.1.585-.235 1.164-.406 1.732.143-.097.306.103.476.13.142.022.277-.088.334-.219.057-.131.055-.28.053-.422-.007-.754.042-1.507.146-2.254.072-.519.172-1.037.172-1.561s-.108-1.065-.413-1.49c-.1-.14-.275-.277-.427-.197M14.803 38.7a.42.42 0 0 1-.286-.092c-.076-.07-.104-.197-.04-.277.101.056.233-.06.222-.176-.011-.115-.117-.202-.228-.237-.259-.082-.551.058-.71.28-.158.22-.204.503-.203.775.001.164.018.329-.008.49a.614.614 0 0 1-.172.356c-.098.092-.246.136-.371.085-.124-.05-.203-.206-.148-.328l.133-.005c-.044-.137-.025-.285-.003-.427.057-.364.13-.733.3-1.06.171-.326.455-.61.812-.703.357-.093.783.047.955.373.101.191.107.418.1.634a.413.413 0 0 1-.024.151c-.052.119-.2.162-.33.161"/></g><path d="M21.488 27.85c-.089-.123-.255-.155-.404-.173a26.611 26.611 0 0 0-4.8-.19c.004 2.522.382 5.026.758 7.52l.28 1.85c.61 4.041 1.221 8.085 2.064 12.085.314.041.63.058.947.052.08-.002.166-.008.223-.064.05-.048.063-.121.074-.19.537-3.456.618-6.965.697-10.462l.23-10.079c.003-.12.002-.254-.069-.349" fill="#748496"/><path d="m23.848 48.55.008-1.59c0-.168 0-.345-.082-.49-.161-.29-.552-.34-.883-.325-.134.006-.278.02-.38.11-.141.123-.144.338-.131.526.043.625.147 1.256.416 1.822.083.173.185.345.341.458.156.113.377.154.543.057.154-.134.167-.364.168-.568M21.136 48.75a18.844 18.844 0 0 0-1.636-.024c-.093.002-.19.007-.266.06-.118.08-.14.242-.153.385l-.104 1.244a.496.496 0 0 0 .015.22c.043.111.158.176.27.216.35.123.738.089 1.092-.02.302-.091.626-.287.657-.602a.942.942 0 0 0-.063-.37l-.2-.642a.619.619 0 0 0-.137-.27c-.073-.07.6-.265.525-.197" fill="#333"/><path d="m27.793 25.99-.029-8.199c-.008-2.303-.533-4.748-.874-7.023-.233-1.542-.811-3.856-2.822-3.235-.44.134-.862.345-1.32.391-1.002.099-1.964-.603-2.963-.476-1.789.233-2.256 2.057-2.65 3.514-.572 2.123-1.412 4.392-1.631 6.582-.2 1.997-.11 4.12-.147 6.146-.018.928-.356 4.152.477 4.773.488.363 1.792.511 3.135.554.048.004.096.004.145.007h.038c.547.014 1.093.01 1.588 0 .73-.014 1.35-.05 1.684-.081 1.566-.141 3.113-.462 4.647-.815.272-.06.573-.145.722-.395.107-.18 0-1.531 0-1.743" fill="#97a8b2"/><g fill="#838367"><path d="M12.915 39.1c-.412 1.373-1.913 1.476-3.069 1.073-.064-.022-.107.08-.046.11 1.259.611 2.944.384 3.412-1.1.06-.19-.24-.273-.297-.083M13.577 25.56l-.051-.06c-.027-.032-.077 0-.067.039.027.099-.43-.039-.444-.043a1.763 1.763 0 0 0-.491-.028c-.334.01-.648.148-.925.325-.33.208-.976.956-.807 1.404.203.54 1.001.088 1.357-.06.528-.219 1.214-.554 1.205-1.21-.002-.141-.223-.141-.221 0 .008.65-.897.949-1.385 1.129-.147.056-.813.367-.695-.141.068-.29.242-.536.437-.755.41-.452 1.058-.568 1.632-.47.203.036.35.142.464-.06l-.01-.07"/><path d="M13.087 33.48c-.167-1.135-.333-2.264-.345-3.413-.013-1.136.29-2.24.356-3.37.003-.045-.068-.045-.073 0-.102 1.041-.35 2.06-.41 3.105-.056.978.071 1.962.201 2.929.294 2.178.7 4.397-.11 6.517-.044.114.14.164.183.05.71-1.882.483-3.873.198-5.818M30.732 27.38c-.183-.039-.261.23-.078.282.478.134.458.713.278 1.076-.166.335-.515.543-.86.653-.23.07-1.072.123-1.078-.272-.01-.529.351-.991.751-1.291.07-.053.01-.162-.07-.12-.458.254-1.047.946-.916 1.524.111.494.888.503 1.276.445.574-.085 1.044-.505 1.258-1.03.193-.473-.028-1.158-.56-1.267M29.532 36.63c-.19.637-.589 1.105-1.007 1.604-.465.554-1.064 1.12-1.846.95-.45-.097-.634.606-.189.684 1.718.303 3.154-1.655 3.333-3.198.02-.172-.245-.194-.291-.04"/><path d="M30.796 32.05c-.24-.65-.69-1.156-1.22-1.583-.439-.353.04-1.143.092-1.556.065-.501.044-.967-.06-1.46-.03-.145-.254-.085-.223.06.116.55.119 1.054.011 1.604-.054.28-.287.616-.268.9.042.636.738.949 1.093 1.435.491.675.666 1.536.622 2.356-.053.983-.695 1.68-1.092 2.53-.035.076.071.14.113.066.412-.736.932-1.345 1.13-2.183.17-.719.054-1.486-.198-2.17M36.188 38.52c-.041.627-.582.975-1.177.712-.268-.118-.462-.557-.603-.805l-.828-1.461c-.253-.446-.513-.889-.746-1.347-.303-.596-.324-1.172-.301-1.823.031-.88-.491-1.752-.766-2.564-.37-1.094-.633-2.224-.907-3.346-.016-.064-.113-.035-.1.028.327 1.478.673 2.947 1.196 4.369.103.28.209.556.291.843.137.473.047.97.052 1.452.005.556.293 1.098.545 1.576.384.729.794 1.445 1.192 2.167.267.484.467.994.995 1.23.74.332 1.401-.333 1.45-1.031.013-.188-.281-.188-.293 0"/><path d="M39.881 36.63a1.389 1.389 0 0 0-.106-.206c-.116-.183-.408-.014-.291.17l.029.055c-.055.655-.162 1.303-.649 1.684a.587.587 0 0 1-.245.064c-.497.02-.996.02-1.495.023-.254-.092-.504-.146-.732-.055-.081.032-.05.163.038.135h.005l-.031.084h-.02c-.174-.009-.216.226-.083.312.73.475 1.704.592 2.474.163a.96.96 0 0 0 .3-.119c.762-.478.955-1.279.997-2.13.005-.105-.096-.178-.191-.18"/><path d="M36.721 38.77a2.793 2.793 0 0 1-.346-.265l.05.008c.153.02.183-.232.036-.266-.111-.026-.273-.06-.4-.123a1.384 1.384 0 0 1-.167-.445c-.02-.109-.2-.137-.245-.032-.132.307.002.528.223.672.186.286.461.514.795.579.078.015.122-.084.054-.128"/></g></svg>