<svg viewBox="0 0 45.91 52.164" xmlns="http://www.w3.org/2000/svg"><path d="M44.904 38.61c-.748-.868-1.86-1.52-2.148-2.628-.233-.896.144-1.902-.24-2.745-.49-1.087-1.93-1.305-3.122-1.26-6.869.255-13.095 4.061-19.844 5.363-3.637.702-7.447.68-10.911 1.997-1.916.723-3.736 2.039-4.915 3.69a6.305 6.305 0 0 0-1.802 1.012c-1.88 1.535-2.826 4.847-.738 6.604 1.295 1.087 3.08 1.33 4.766 1.433 5.12.317 10.216-.247 15.272-1.172 5.613-.405 11.183-1.266 16.185-3.63 1.14-.268 2.276-.536 3.412-.808 1.153-.271 2.335-.557 3.295-1.252 2.021-1.457 2.41-4.71.79-6.604" fill="#d3e4ea"/><g fill="#abbcc4"><path d="M25.794 45.7c-.042-.025-.081.042-.039.067.402.243.47.74.18 1.1-.236.297-.614.473-.96.615-.709.289-1.47.405-2.233.356v.018c.95.07 1.948-.11 2.78-.586.29-.166.582-.406.653-.752.064-.328-.106-.645-.381-.818"/><path d="m25.978 45.16-.021.035c.504.325.889.886.776 1.507-.116.649-.653 1.026-1.284 1.062-.064.002-.064.091 0 .095.67.035 1.27-.477 1.376-1.133.105-.666-.307-1.224-.847-1.566M16.46 47.33c-1.57-.5-3.246-.208-4.84-.032-.826.095-1.672.17-2.505.074-.405-.046-.913-.14-1.213-.448-.41-.42-.106-.998.278-1.301l-.028-.036c-.547.406-.751 1.175-.074 1.574.723.423 1.711.37 2.515.324 1.955-.11 3.905-.62 5.839-.053.067.021.092-.08.028-.102M12.653 47.91c-.833.057-1.669.113-2.501.173-.688.046-2.018.339-2.254-.586l-.04.01c.195.802 1.176.717 1.803.678.999-.056 1.994-.12 2.992-.18.06-.003.06-.102 0-.095M6.374 46.38c-.296.063-.328.374-.519.561-.282.282-.737.18-1.1.243-.053.011-.028.089.02.078.315-.046.657.01.95-.127a.605.605 0 0 0 .243-.198c.134-.183.163-.437.42-.497.042-.007.025-.067-.014-.06M19.455 48.44l-.36-.032c-.092-.007-.279.014-.36-.028-.134-.07-.116-.243-.215-.342-.204-.215-.617-.173-.878-.177-.47 0-.932.036-1.394.082-.465.045-.928.077-1.372-.096-.046-.017-.067.057-.021.074.391.152.8.152 1.213.12.463-.039.921-.088 1.383-.088.208.004.424 0 .628.021.12.014.282.043.367.138.099.113.025.194.092.296.046.067.123.074.197.088.237.04.484.046.72.06.078.007.074-.105 0-.116M20.75 48.17c-.035-.053-.067-.102-.102-.152-.029-.046-.1-.004-.067.039l.102.152c.028.039.095 0 .067-.039M36.039 39.32c-.275.388-.843.208-1.224.41-.254.13-.487.426-.272.698.12.151.325.247.484.349.236.155.5.3.723.476.218.17.06.388-.145.473-.123.053-.26.078-.395.11-.293.066-.59.12-.889.162-1.182.169-2.378.158-3.57.158a38.917 38.917 0 0 0-1.729.018c-.522.021-1.062.032-1.57.152-.44.102-.871.324-1.083.744-.169.335-.165.734.074 1.033l.04-.038c-.36-.448-.1-1.094.334-1.383.445-.304 1.013-.339 1.532-.37 1.104-.071 2.211-.04 3.32-.043 1.068-.007 2.144-.042 3.199-.243.32-.06.896-.096 1.086-.42.184-.31-.232-.505-.437-.639-.247-.158-.519-.303-.751-.48-.216-.165-.283-.352-.085-.546a.821.821 0 0 1 .399-.208c.37-.082.793-.015 1.044-.367.035-.05-.05-.096-.085-.046"/><path d="M37.538 35.99c-.575.321-1.16.614-1.785.83-.593.204-1.2.32-1.81.447-.931.198-2.028.635-2.173 1.714-.028.216 0 .431.088.628.124.276.416.572.226.89-.13.225-.427.327-.667.387-.324.082-.663.131-.991.184-.706.113-1.411.19-2.12.25-.575.046-1.164.106-1.69.364-.452.218-.868.592-.991 1.097-.113.452.003.945.37 1.245l.042-.042c-.434-.367-.483-1.013-.208-1.489.286-.497.826-.783 1.365-.92.642-.167 1.323-.167 1.983-.237a22.503 22.503 0 0 0 1.806-.265c.381-.07.893-.13 1.147-.465.268-.35-.01-.681-.166-1.002-.261-.536-.01-1.14.384-1.535.427-.427 1.041-.592 1.62-.712 1.27-.272 2.5-.593 3.616-1.295.045-.028.003-.102-.046-.074"/></g><path d="M30.441 35.5c-.286-.205-.614-.342-.917-.508l-.925-.497c-.613-.332-1.23-.66-1.852-.981-.056-.028-.109.074-.053.106.614.36 1.228.716 1.845 1.065.307.173.61.346.914.519.3.169.593.37.91.5.1.04.16-.148.078-.204" fill="#be9f3e"/><path d="M27.58 33.83c-.035-.025-.074-.05-.11-.074a.149.149 0 0 0-.088-.138c-.335-.169-.716-.314-.998-.56-.162-.138-.363.105-.212.25.36.342.78.6 1.235.79.159.064.328-.162.173-.268" fill="#3d3d3d"/><path d="M26.906 1.9C26.521.846 25.449-.535 24.2.208c-.575.342-.945.947-1.316 1.484-.476.693-.956 1.386-1.432 2.079l-2.921 4.24c-.896 1.302-1.83 2.587-2.6 3.97-.74 1.337-1.252 2.751-1.457 4.269-.219 1.617-.162 3.258-.127 4.885.078 3.4.25 6.798.48 10.19.23 3.398.504 6.792.808 10.179.07.755.14 1.51.218 2.261-.031.056-.067.11-.098.162-.173.272.257.523.43.25a59.888 59.888 0 0 0 4.149-7.894 71.935 71.935 0 0 0 3.023-8.368c.854-2.887.998-6.182 1.552-9.14.55-2.941 1.51-5.545 1.838-8.52.162-1.496.3-2.995.416-4.495.103-1.277.194-2.633-.257-3.86" fill="#aa4a4d"/><g fill="#ebefeb"><path d="M21.678 19.13c.6.252 1.277.482 1.884.255.667-.249 1.03-.96 1.266-1.63.346-.98.561-2.005.635-3.04.01-.133.018-.27-.031-.394-.124-.294-.494-.37-.812-.403-1.848-.197-3.732-.364-5.464-1.037-.896-.347-1.905-.828-2.763-.397-.737.37-1.04 1.293-1.11 2.064-.082.876.641 1.206 1.294 1.685a24.881 24.881 0 0 0 5.101 2.897M20.58 30.05c.254.021.519.035.734.17.215.133.353.43.218.645-1.823-.314-3.675-.653-5.334-1.471-.306-.152-1.446-.748-1.132-1.21.233-.338 1.312.568 1.602.723 1.21.639 2.55 1.034 3.912 1.143M19.631 35.32c.046.004.095.007.13.035.036.032.046.085.053.13.018.142.029.287.025.431 0 .036-.003.074-.025.103-.042.045-.112.031-.169.017-1.249-.335-2.974-.645-4.04-1.386.237-.554 1.257.102 1.627.222a9.898 9.898 0 0 0 2.399.448M22.362 6.99c1.083.175 2.173.296 3.267.392.218.02.455.036.652-.066.198-.102.328-.369.208-.556a15.778 15.778 0 0 1-4.642-.437c-.293-.073-1.824-.71-1.397.085.236.443 1.482.513 1.912.582M19.021 19.22c1.528.867 3.09 1.738 4.808 2.105.103.022.22.05.272.14.042.071.035.16.025.243-.12.943-.307 1.879-.565 2.795-.063.232-.137.47-.293.654-.155.182-.377.292-.603.371-.871.305-1.845.207-2.706-.118-.86-.324-1.626-.86-2.346-1.436a22.78 22.78 0 0 1-2.046-1.85c-.377-.389-.755-.809-.92-1.326-.124-.385-.12-.797-.117-1.201.007-.66-.398-3.954.995-2.93.571.42 1.03.998 1.626 1.412.596.413 1.295.709 1.87 1.14"/></g><path d="M25.555 4.15a59.168 59.168 0 0 1-2.575 15.346c-1.648 5.35-4.054 10.467-5.274 15.928-.279 1.242-.494 2.501-.928 3.7-.526 1.454-1.38 2.946-1.002 4.442.11.43.579.907.917.625.095-.078.145-.194.19-.304 1.818-4.332 3.63-8.664 5.448-13 .388-.928.78-1.863.952-2.855.25-1.435.462-2.9.864-4.3.247-.86.286-1.678.597-2.517.331-.884.483-1.824.631-2.755.847-5.287 1.697-10.624 1.397-15.97-.032-.54-.078-1.096-.328-1.575-.12-.229-.508-.777-.818-.704-.441.102-.173.74-.142 1.052.11.96.106 1.924.071 2.887" fill="#fcee9f"/><path d="M18.725 44.92a17.186 17.186 0 0 0 1.524-.385c.84-.25 1.704-.571 2.565-.416.293.053.575.159.846.286.399.18.801.413 1.03.794.226.38.212.945-.137 1.213-.17.134-.392.173-.607.205a11.97 11.97 0 0 1-3.722-.053 13.891 13.891 0 0 1-1.81-.423c-.349-.106-1.047-.22-1.015-.724.038-.536.96-.42 1.326-.497" fill="#628499"/><g fill="#e2cfc5"><path d="M28.454 29.28c-.06.356-.021.758.243 1.164.075.117.145.233.23.339.547.67 1.118 1.34 1.841 1.817a.634.634 0 0 0 .29.12c.165.014.317-.1.426-.226.127-.148.23-.342.19-.533-.041-.212-.228-.353-.405-.473l-1.383-.956c-.155-.109-.317-.218-.427-.374-.268-.363-.211-.86-.144-1.305l.317-2.066c.05-.303-.183-.64-.437-.287-.159.222-.219.603-.304.866-.204.648-.282 1.254-.437 1.914"/><path d="m29.555 26.73.064.007c.028-.01.045-.047.056-.08a11.5 11.5 0 0 0 .219-.577c.014-.034.024-.079.003-.107l-.063-.042c-.043-.04-.014-.12-.014-.185a.258.258 0 0 0-.046-.145.262.262 0 0 0-.247-.116.29.29 0 0 0-.212.185c-.018.045-.025.094-.035.142-.021.13-.046.26-.067.392-.018.097-.07.244-.036.343.043.13.28.15.378.183M23.399 44.44c.187-.081.395-.081.593-.123.32-.071.606-.247.917-.357.123-.042.279-.07.377.021a.317.317 0 0 1 .078.148.812.812 0 0 1-.014.477.227.227 0 0 1-.064.099l-.08.028c-.618.137-1.253.219-1.888.24a.316.316 0 0 1-.155-.018c-.092-.046-.142-.201-.089-.286.057-.095.226-.187.325-.229"/><path d="M24.987 40.4c-.01-.233-.021-.49.13-.667a.907.907 0 0 1 .177-.151c.822-.582 1.64-1.165 2.459-1.747.219-.155.44-.31.677-.434.244-.123.501-.215.727-.367.176-.123.38-.292.582-.215a.395.395 0 0 1 .134.092c.367.335.476.892.335 1.365-.141.473-.497.865-.92 1.13-.336.204-.706.341-1.077.475-.536.194-1.072.392-1.612.586-.19.07-.395.148-.518.314-.138.183-.138.43-.141.656a8.863 8.863 0 0 1-.22 1.612c-.056.265-.123.526-.193.787-.043.152-.103.646-.237.716-.109.06-.37-.046-.444-.13-.134-.16-.053-.395-.025-.572a16.965 16.965 0 0 0 .166-3.45"/></g><path d="M22.662 30.56c-.624 2.37-1.542 4.657-2.473 6.925a86.202 86.202 0 0 1-1.492 3.412c-.522 1.121-1.04 2.264-1.672 3.33-.244.412-.84.049-.635-.374.592-1.224 1.259-2.417 1.848-3.645a76.705 76.705 0 0 0 4.128-10.576c.733-2.388 1.383-4.814 1.813-7.277 0 0 3.358-15.474 2.621-19.317 0 0 1.217 7.12-4.138 27.522" fill="#4d4d4d"/><path d="M25.406 29.13c-1.489-.817-3.263-.081-4.646.536-1.76.787-3.412 1.785-4.812 3.052-.053.05.018.13.078.084 1.259-.963 2.593-1.855 4.028-2.578a17.09 17.09 0 0 1 2.226-.963c.773-.262 1.648-.385 2.449-.12 1.721.568 1.64 2.487 1.044 3.778-.66 1.429-1.902 2.61-3.027 3.725-1.326 1.309-2.72 2.565-4.216 3.704-.204.156.067.455.272.297 1.432-1.122 2.822-2.29 4.11-3.556 1.203-1.179 2.498-2.413 3.231-3.916.618-1.267.77-3.217-.737-4.043" fill="#4d4d4d"/><path d="M10.925 42.87c1.729-.48 3.567.134 5.179.935 1.608.804 3.154 1.817 4.907 2.208.797.18 1.803.487 2.617.445.925-.05 1.43-1.13 1.143-.335-.116.32.071.349-.313.684-.254.222-1.225.476-1.56.437-3.647-.405-7.07-.525-10.739-.42-1.097.032-3.009.537-3.468-.885-.472-1.47 1.03-2.734 2.234-3.069" fill="#537082"/><path d="M30.215 29.28c.046.113.116.215.176.325.078.134.13.282.205.416a.771.771 0 0 0 .314.331 3.263 3.263 0 0 1-.078-1.093c.01-.12.029-.254-.042-.35a.35.35 0 0 0-.155-.12c-.36-.158-.547.18-.42.491" fill="#736357"/><path d="M31.044 30.7c.148.166.36.258.564.346.17.07.35.144.53.116.314-.046.5-.363.642-.645.215-.427.434-.875.416-1.352-.018-.43-.24-.85-.593-1.103a1.446 1.446 0 0 0-1.234-.21c-.498.147-1.066.528-.91 1.105.07.265.18.508.24.776.07.325.116.706.345.967" fill="#e2cfc5"/><path d="M33.21 27.99c-.01-.119-.11-.208-.205-.282a1.77 1.77 0 0 0-.5-.303c-.202-.07-.42-.077-.632-.078-.275 0-.557.007-.818.093-.226.073-.427.2-.625.327a1.334 1.334 0 0 0-.257.194.682.682 0 0 0-.18.344c-.018.084-.018.174-.057.25-.032.064-.084.113-.099.18-.01.057.008.113-.01.166-.018.057-.102.088-.124.039.092.17.254.303.445.356a.652.652 0 0 0 .557-.099c.07-.049.127-.116.194-.169.201-.162.47-.215.727-.233.17-.01.342-.01.494-.08.155-.068.282-.224.254-.389l.01.156a.905.905 0 0 1 .329-.097.922.922 0 0 0 .328-.095c.102-.058.18-.165.169-.28" fill="#736357"/><path d="M32.395 28.73c.06.056.134.106.166.183.035.085.007.19.053.272l.039-.039c.028-.042.102-.042.137-.004.039.04.046.095.042.148-.003.053-.017.106-.017.16.003.052.021.105.039.158.07.243.07.504.003.748.215-.23.381-.776.466-1.196a2.63 2.63 0 0 0 .024-.645c-.003-.096-.007-.196-.06-.277a.485.485 0 0 0-.197-.157c-.162-.087-.346-.161-.53-.13-.158.026-.33.15-.38.31-.046.159.106.363.215.469" fill="#736357"/><path d="M30.317 32.95c-.05-.145-.099-.296-.078-.448.043-.29.328-.497.597-.66.617-.374 1.29-.698 2.021-.8.11-.015.219-.025.325-.008.366.057.582.396.702.713.292.77.32 1.62.123 2.42-.201.8-.62 1.552-1.182 2.201-.293.34-.631.653-1.044.865a.366.366 0 0 1-.17.053c-.063.004-.123-.029-.18-.057-.169-.085-.976-.444-1.103-.575-.117-.12-.046-.257-.022-.406.067-.398.346-.61.378-1.058.028-.406.067-.674-.028-1.065-.089-.378-.307-.794-.339-1.175" fill="#afd9c4"/><path d="M28.37 33.94c.152 0 .303-.004.452-.035.155-.036.3-.106.444-.177 1.016-.5 1.976-1.11 2.97-1.654.113-.06.23-.12.357-.113.091.004.18.046.254.095.226.155.384.427.345.699a.872.872 0 0 1-.24.448c-.36.391-.888.575-1.393.74-.473.16-.945.318-1.418.473-.254.085-.508.17-.773.215-.31.053-.631.1-.949.096a13.061 13.061 0 0 1-1.527-.124c-.296-.039-.61-.067-.9-.134-.063-.014-.01-.395.046-.459.13-.14.462-.067.628-.067a80.65 80.65 0 0 0 1.704-.004" fill="#e2cfc5"/><path d="M25.671 33.83c-.06-.014-.13-.025-.183.014l-.046.046c-.06.05-.145.028-.219.014a.827.827 0 0 0-.328-.003.228.228 0 0 0-.113.123.459.459 0 0 0-.025.17c0 .074.01.148.025.218.01.039.021.078.053.106l.078.042c.335.11.702.043 1.033-.07a.404.404 0 0 0 .166-.092c.028-.028.042-.063.06-.099.025-.053.053-.106.06-.162.014-.102-.021-.183-.12-.208-.145-.039-.293-.067-.441-.099" fill="#e2cfc5"/><path d="M23.868 44.59a.865.865 0 0 1 .025.3l.01.046.036.01c.151.018.303.007.451-.031l.046-.018.021-.078c0-.151-.021-.3-.06-.448-.014-.046-.032-.098-.074-.123-.032-.021-.07-.021-.106-.021-.137.003-.398.02-.5.12a.631.631 0 0 1 .151.243" fill="#4d4d4d"/><path d="M24.743 42.15c.183-.462.37-.931.66-1.355.335-.493.797-.92 1.256-1.34l1.65-1.513c.491-.448.978-.897 1.468-1.345.261-.24.554-.494.924-.554.36-.056.724.089.974.304.25.219.406.497.55.776.202.385.389.833.177 1.224-.282.519-1.066.639-1.697.83-1.32.394-2.321 1.347-3.598 1.84-.226.085-.47.163-.653.311-.176.145-.279.339-.377.533a671.41 671.41 0 0 0-1.394 2.723c-.11.205-.219.42-.413.579-.2.165-.635.32-.723.02-.067-.214.296-.786.385-1.005.268-.677.54-1.35.811-2.028" fill="#e2cfc5"/><path d="M21.9 45.39c.074-.028.159-.039.24-.057.116-.028.233-.067.346-.105.26-.092.522-.184.762-.304.243-.123.465-.278.624-.476.028-.039.067-.085.12-.074l.053.032a.615.615 0 0 1 .137.222c.085.222.12.455.152.688a.191.191 0 0 1-.003.11.219.219 0 0 1-.085.094c-.152.103-.342.149-.53.184-.585.113-1.174.197-1.767.247-.158.014-.48 0-.412-.201a.661.661 0 0 1 .363-.36" fill="#e2cfc5"/><g fill="#4d4d4d"><path d="M23.05 44.99c.032 0 .067.004.095.018.043.02.067.063.088.105.064.124.092.258.124.392.025.099.046.198.07.3a2.866 2.866 0 0 1-.687.14c-.032 0-.071 0-.096-.017-.028-.024-.028-.07-.031-.109a.8.8 0 0 0-.177-.473c-.042-.05-.095-.067-.05-.123.138-.166.463-.233.664-.233M29.76 39.32c.095.085.198.173.325.201.2.05.402-.063.582-.17a8.97 8.97 0 0 1 1.365-.624c.134-.049.275-.095.367-.2.07-.082.11-.191.137-.297.127-.423.212-.86.254-1.305a.402.402 0 0 0-.014-.205c-.05-.127-.194-.18-.324-.219-.406-.12-.819-.236-1.228-.345-.138-.036-.279-.071-.416-.04-.152.036-.272.145-.388.248l-1.288 1.189c-.226.208-.635.571-.388.892.254.328.698.6 1.016.875"/><path d="M30.441 36.05c-.025-.032-.05-.07-.088-.088-.078-.035-.162.032-.222.095-.904.903-2.188 1.245-3.066 2.173-.039.046-.081.092-.092.152-.017.102.23.5.3.575.102.099.212.197.321.286.13.105.279.208.441.197.117-.01.219-.077.318-.144.84-.58 1.615-1.26 2.307-2.029.14-.155.448-.494.367-.744-.064-.198-.445-.283-.586-.473"/><path d="M32.441 36.5c.05.028.099.064.116.116.018.06-.014.127-.063.163a.417.417 0 0 1-.173.07 2.731 2.731 0 0 1-1.549-.116c-.165-.064-.331-.148-.448-.286-.113-.134-.148-.384.046-.469.17-.074.473 0 .65.025.5.07.987.24 1.421.497M27.283 39.36c.088.099.155.212.233.317.11.149.243.28.377.406.11.11.219.215.328.321l.064.046c.046.018.099-.004.145-.028.6-.304 1.562-.713 2.162-1.016a.632.632 0 0 0 .208-.138c.057-.06-.271-.038-.3-.12-.024-.08-.11-.13-.176-.183-.127-.099-.219-.233-.335-.346-.19-.187-.434-.307-.674-.423a4.779 4.779 0 0 0-.833-.35l-.077-.007-.067.043c-.215.197-.452.37-.681.55a3.726 3.726 0 0 0-.339.286c-.095.088-.24.204-.293.325-.06.144.173.222.258.317"/></g><path d="M26.398 33.02a.15.15 0 0 0-.088-.13.325.325 0 0 0-.124-.106c-.113-.06-.247-.022-.356-.078a.147.147 0 0 0-.162.004.21.21 0 0 0-.103.085c-.06.091-.102.215-.052.32.06.12.194.138.31.163.085.06.173.116.265.162a.164.164 0 0 0 .222-.056.606.606 0 0 0 .088-.364M30.247 35.66a.199.199 0 0 0-.046.085c-.01.056.028.113.078.144.05.029.11.04.166.053.402.092.744.342 1.125.505.293.12.607.19.917.254a.752.752 0 0 0 .293.024c.099-.02.19-.095.201-.194.014-.127-.106-.225-.215-.285-.59-.328-1.309-.353-1.902-.674-.095-.053-.25-.177-.367-.17-.12.007-.183.163-.25.258" fill="#3d3d3d"/></svg>