<svg viewBox="0 0 52.245 50.125" xmlns="http://www.w3.org/2000/svg"><path d="M41.579 2.84c-.005-.128-.007-.266.061-.373.094-.147.284-.185.453-.205.903-.107 1.664-.077 2.572-.046 1.558.052 3.282-.095 4.84-.043a.745.745 0 0 1 .287.048c.253.112.314.445.342.727.139 1.437.113 3.075.117 4.519.006 1.881-.274 4.181-.12 6.056.008.097.015.203-.041.281a.27.27 0 0 1-.195.117c-1.532.086-2.589-.006-4.199.052-1.03.037-2.106-.003-3.138-.003-1.13 0-1.001-.451-1.044-1.223-.115-2.081.04-4.204.007-6.291-.018-1.206.1-2.411.058-3.616" fill="#333"/><path d="M41.699 2.98c-.005-.125-.007-.259.06-.363.09-.143.275-.18.44-.199.877-.104 1.613-.074 2.495-.045 1.515.051 3.19-.092 4.705-.041a.732.732 0 0 1 .278.046c.246.11.306.433.332.707.136 1.396.11 2.989.115 4.392.005 1.83-.267 4.064-.117 5.887.008.094.014.197-.04.273a.262.262 0 0 1-.19.113c-1.489.084-2.516-.006-4.08.051-1.002.036-2.048-.003-3.051-.003-1.099 0-.973-.438-1.015-1.189-.111-2.022.039-4.086.007-6.114-.017-1.172.102-2.344.06-3.515" fill="#fff"/><g fill="#36302f"><path d="M43.739 4.59c.101-.38.267-.773.514-1.082.103-.13.26-.239.423-.12.078.056.089.228.087.313-.005.2-.08.413-.16.595-.215.484-.578.878-.978 1.226-.02-.311.036-.64.114-.932zm.876.936c.008-.076.04-.157.067-.228a1.782 1.782 0 0 1 .501-.716c.066-.057.07-.08.15-.05.08.03.08.09.088.166.022.2-.073.418-.16.594a2.208 2.208 0 0 1-.418.583c-.146-.03-.25-.15-.228-.35zm-1.563.529c.17-.131.34-.265.508-.405.027.234.106.488.3.627.267.192.577.028.806-.144.068-.05.131-.106.193-.164.163.017.336-.06.468-.158.04-.03.079-.062.116-.097-.004.122.042.21.175.216.183.008.382-.148.51-.262l.056-.052c0 .044 0 .089.004.134.004.034.037.06.07.04.264-.156.499-.344.71-.567l.143.342.074.02c.133-.147.382-.41.562-.2l-.03.021c-.115.098-.128.342.079.304.145-.027.172-.158.134-.273l.025-.015a.517.517 0 0 1 .41.193c.04.048.11-.022.07-.07-.126-.145-.363-.26-.563-.215l-.038-.038c-.238-.188-.492 0-.666.181a60.436 60.436 0 0 1-.141-.343l-.077-.02a3.333 3.333 0 0 1-.675.56.794.794 0 0 1 .015-.173c.096-.122.17-.26.223-.408.016-.045-.046-.076-.077-.045a.855.855 0 0 0-.232.412 1.2 1.2 0 0 1-.397.322c-.217.108-.25-.053-.23-.212.145-.183.241-.402.284-.635a.045.045 0 0 0-.082-.035 2.5 2.5 0 0 0-.315.677.887.887 0 0 1-.428.293l-.09.016a2.26 2.26 0 0 0 .453-.7c.1-.247.206-.61-.064-.787h-.042a1.898 1.898 0 0 0-.635.747c-.104.222-.242.562-.003.747a.393.393 0 0 0 .11.06c-.069.063-.142.121-.22.174-.187.128-.422.233-.632.093-.153-.102-.223-.296-.26-.468a1.543 1.543 0 0 1-.022-.157c.41-.35.786-.743 1.015-1.232.12-.254.252-.596.16-.88-.07-.219-.286-.29-.476-.156-.296.212-.47.666-.587.998-.135.383-.21.802-.192 1.21l.004.053c-.178.151-.36.294-.54.433l.037.038M47.079 8.5a.571.571 0 0 1 .51-.305.695.695 0 0 1-.51.305zm-1.573-.586c.235.215.096.57-.086.763-.14.148-.359.31-.556.37-.338.1-.53-.149-.498-.462a1.01 1.01 0 0 1 .31-.603c.038-.021.076-.041.116-.06.21-.1.518-.188.714-.008zm.873-.43c.31-.483.84-1.01 1.453-.98-.057.45-.374.85-.806 1.003-.227.08-.454.067-.682.035zm2.727.75c0 .113-.032.2-.103.276l-.18-.226c-.033-.042-.093-.004-.096.04-.011.176-.233.206-.361.168-.14-.041-.248-.16-.362-.243a.887.887 0 0 0-.246-.135.772.772 0 0 0 .06-.36l-.055-.055c-.249-.015-.464.084-.688.18-.142.06-.292.124-.449.129-.09.003-.224-.014-.29-.085-.081-.086-.076-.186-.042-.278l.128.017c.759.086 1.457-.428 1.522-1.208l-.053-.054c-.358-.038-.679.1-.957.32-.247.196-.566.495-.706.805-.215-.035-.43-.075-.647-.06-.346.023-.73.19-.995.454l-.065.039c-.434.263-.801.623-1.25.863-.093.05-.302.174-.377-.007-.029-.072.002-.218.015-.284a1.37 1.37 0 0 1 .632-.905c.012.204-.02.396-.104.587-.019.045.047.084.066.039.1-.226.139-.45.116-.696l-.063-.036a1.458 1.458 0 0 0-.655.728c-.072.176-.216.6.003.73.245.145.66-.213.842-.343.221-.157.434-.332.66-.486a.942.942 0 0 0-.147.55c.015.28.197.51.495.48.338-.034.752-.353.902-.653.13-.26.09-.618-.19-.759a.643.643 0 0 0-.456-.03c.052-.028.104-.052.157-.073.346-.133.676-.082 1.02-.032-.093.305.15.493.44.486.385-.01.697-.303 1.082-.309a.69.69 0 0 1-.06.282l-.048-.004a.679.679 0 0 0-.662.458c-.012.035.02.07.054.07a.81.81 0 0 0 .714-.398c.223.065.365.276.576.365.183.078.434.036.524-.137l.151.191h.08a.499.499 0 0 0 .181-.401c0-.073-.113-.073-.113 0M47.769 12.08c-.083.055-.285.196-.387.175-.063.026-.088-.006-.077-.096-.057-.083-.037-.142.059-.179.055-.044.116-.082.174-.123l.384-.271.08-.056a.28.28 0 0 1 .034.145c-.004.176-.129.312-.267.405zm-2.6-.75c-.054-.045-.015-.139.006-.226a1.11 1.11 0 0 1 .704-.775c-.02.425-.306.86-.71 1.002zm3.466-.381-.605.429c-.256-.271-.639.021-.845.253-.042-.142-.018-.296-.087-.432a.516.516 0 0 0-.263-.231c-.246-.105-.505-.04-.739.067-.196.09-.379.216-.588.278a1.48 1.48 0 0 1-.126.033c.365-.224.616-.683.605-1.094 0-.034-.033-.06-.067-.051a1.218 1.218 0 0 0-.88 1.164.843.843 0 0 1-.196.013c-.223-.011-.401-.129-.432-.363-.024-.174.079-.364.166-.508a1.83 1.83 0 0 1 .585-.584.837.837 0 0 1-.226.448c-.034.036.02.09.054.055a.932.932 0 0 0 .268-.586c.003-.034-.039-.052-.065-.037-.341.192-.641.487-.798.851-.133.308-.098.675.26.79a.816.816 0 0 0 .485.009c.4.046.712-.204 1.071-.35.22-.09.51-.137.703.042.174.163.1.418.205.618l.086.01c.092-.116.188-.243.32-.319.125-.072.294-.078.402-.005l-.095.068c-.209.148-.528.295-.674.511-.063.092-.079.21.013.291.122.107.31.033.436-.026.284-.136.7-.47.487-.828l.596-.42c.06-.04.002-.138-.056-.096M45.889 12.27c-.147.048-.295.074-.448.029-.091-.028-.168-.1-.265-.093-.25.015-.405.27-.679.262-.05-.001-.05.077 0 .078a.612.612 0 0 0 .287-.057c.196-.085.295-.226.53-.153.217.067.39.112.607.01.043-.02.013-.09-.032-.076"/><path d="M39.969 13.9c1.095.012 1.779.047 2.646.005.675-.033 1.346.016 2.02-.017.042-1.85.052-4.217-.001-6.063-1.563-.052-3.038.015-4.668 0-.012 1.976-.002 4.098.003 6.075"/></g><g fill="#fff"><path d="M40.949 9.17a.432.432 0 0 1 .098-.155l.172.094a.847.847 0 0 1-.194.383l-.01-.004c-.107-.11-.129-.215-.066-.318zm.696-.153c.01-.06.041-.07.094-.029.034.002.052.012.057.028-.051.002-.102.004-.151 0zm1.347.031a.265.265 0 0 1 .165-.137.983.983 0 0 1-.053.146.959.959 0 0 1-.112-.008zm-1.962.538c.346.129.726-.18.837-.49l.001-.006.038-.002a.333.333 0 0 1 .215.08.208.208 0 0 1 .054.095c-.145.04-.252.162-.202.328l.06.034a.305.305 0 0 0 .258-.277c.03 0 .06.004.094.016.034.008.068.018.101.028.067.018.134.04.204.046a.465.465 0 0 0 .271-.058.57.57 0 0 0 .2-.208l.026-.001c.08-.013.132.026.156.118a.343.343 0 0 0-.044.086c-.012.033.018.071.053.07a.168.168 0 0 0 .164-.163.183.183 0 0 1 .14.006c.068.023.098-.086.03-.109a.305.305 0 0 0-.197-.003c-.052-.09-.16-.11-.272-.115.027-.067.048-.136.063-.203.006-.03-.015-.072-.052-.068a.406.406 0 0 0-.362.28l.038.067a.493.493 0 0 0 .133.033.397.397 0 0 1-.217.159c-.184.049-.359-.077-.54-.079l-.013-.044c-.08-.18-.222-.199-.376-.194.018-.083.02-.179-.055-.221-.143-.08-.259.156-.287.255l.033.059c.07.01.129.002.19-.006a.776.776 0 0 1-.138.21.654.654 0 0 1-.387.21.47.47 0 0 1-.158-.003c.107-.13.216-.305.207-.473-.006-.106-.074-.184-.189-.156-.299.073-.384.584-.077.699M41.029 10.59c-.054-.035-.061-.086-.022-.155a.349.349 0 0 1 .063-.158l.041-.064c.035-.102.082-.106.14-.011.11.09.068.116-.018.21a.796.796 0 0 1-.187.146zm2.831-.246a.415.415 0 0 0-.243.114l-.013-.014c-.033-.03-.079-.015-.093.025-.018.047-.14-.004-.256-.044.025-.06.02-.125-.051-.184-.06-.05-.145-.04-.215-.024-.171.035-.314.131-.486.143l.029-.084c.166-.08.304-.189.374-.372.014-.035-.029-.08-.065-.065a.738.738 0 0 0-.393.362c-.137.058-.287.099-.415.16l-.013.008a.995.995 0 0 0-.103-.228l-.08-.01c-.07.084-.13.174-.193.263-.054.075-.11.152-.179.214l-.099.072c-.094.074-.176.055-.247-.055l-.03-.008c.148-.086.47-.356.351-.555-.154-.26-.42.11-.485.238-.1.196-.08.485.183.524.347.05.547-.325.727-.565a.681.681 0 0 1 .068.158c-.12.074-.264.192-.225.316.046.148.216.046.272-.033a.336.336 0 0 0 .06-.222c.113-.062.239-.1.36-.145l-.017.068c-.006.036.015.066.052.069a.783.783 0 0 0 .348-.067c.067-.025.131-.057.2-.074l.101-.016.011.073-.02.003c-.093.03-.137.106-.11.197.012.036.049.047.081.033a.52.52 0 0 0 .137-.095c.078.03.166.081.169.082.04.014.078.023.122.016l.045-.012a.495.495 0 0 0-.028.105c-.006.043.038.095.083.064a.214.214 0 0 0 .1-.209.387.387 0 0 1 .2-.126c.052-.015.045-.106-.013-.099M43.629 11.69c-.234.058-.466.1-.706.115.002-.016.001-.034 0-.076 0-.035-.035-.065-.07-.054a1.207 1.207 0 0 0-.207.088l-.064-.07c-.087-.064-.21-.043-.308-.03l-.366.05c.05-.049.099-.102.142-.16.03-.042-.02-.084-.06-.078a.528.528 0 0 0-.409.306l-.003.045a.933.933 0 0 1-.205.075c-.042.01-.138.042-.176.026-.111-.048-.13-.149-.074-.236a.645.645 0 0 1 .25-.222c-.009.071-.049.13-.122.178-.04.027-.004.09.039.065a.329.329 0 0 0 .167-.313c-.001-.035-.036-.05-.066-.038-.16.07-.657.503-.308.646.146.06.376-.017.51-.076.055-.024.106-.054.155-.086l.321-.045.195-.026.121-.015c.044.048.07.09.082.125a1.183 1.183 0 0 0-.148.146c-.033.038-.003.113.053.092.095-.035.242-.13.282-.237.046-.027.094-.052.146-.073l-.006.04c-.01.033.019.071.054.07.274-.01.547-.045.81-.128.066-.02.038-.12-.03-.104M42.479 12.79a.69.69 0 0 0-.276.018c-.142.033-.33.132-.468.084-.105-.037-.18-.093-.259.028l.047.027c.026-.034.187.037.24.04a.7.7 0 0 0 .18-.02c.18-.034.354-.081.536-.107.035-.005.035-.065 0-.07M42.869 12.82a.603.603 0 0 1-.114-.024c-.034-.01-.048.042-.015.054a.202.202 0 0 0 .129.005v-.035M43.459 12.84l-.02-.01-.025-.029-.06-.04c-.047-.012-.089.008-.106.052-.02.05.06.07.079.022l.014.012.026.029.058.046c.044.017.09.006.115-.035.032-.052-.055-.101-.081-.047"/></g><g fill="#d3e4ea"><path d="M29.438 45.97c-.07.162-.112.36.035.48.098.08.25.095.388.08.358-.03.668-.207.961-.377l.772-.448c.3-.176.625-.38.685-.677a.675.675 0 0 0-.012-.279.903.903 0 0 0-.303-.5.85.85 0 0 0-.635-.177c-.265.039-.468.215-.612.402-.143.187-.25.392-.426.561-.163.152-.376.258-.538.41-.154.144-.238.349-.315.525M26.082 45.88c-.027-.254.016-.522.17-.727.178-.233.474-.338.761-.398.123-.025.25-.043.374-.025.24.035.44.201.608.377.1.103.195.22.247.353.05.127.058.265.065.402.006.138.013.272.018.41.003.08.002.169-.052.229-.036.039-.09.056-.142.074-.4.113-.82.127-1.234.13-.167.004-.51.036-.617-.112-.121-.17-.177-.512-.198-.713"/><path d="M28.183 46.51a2.243 2.243 0 0 0-.292-.699.368.368 0 0 0-.099-.112.32.32 0 0 0-.138-.046c-.27-.057-.558-.085-.815.014a.742.742 0 0 0-.316.23l.035-.11c-.019.042-.036.088-.052.13a.535.535 0 0 0-.11.364 3.136 3.136 0 0 0-.08.532l.01.085.069.064c.385.236.87.218 1.32.162.16-.021.34-.057.433-.19.083-.12.068-.283.035-.424"/></g><path d="M28.113 33.11c-.255-.046-.949-.113-1.186-.205-.431.014-.865.007-1.307-.028.156 2.762.371 5.521.651 8.27.096.941.2 1.883.247 2.832.014.265.04.392.08.625-.05.486-.033.99-.05 1.481-.006.166-.011.335.04.494a.3.3 0 0 0 .08.138c.047.038.11.049.172.06.18.02.361.02.54-.008a.589.589 0 0 0 .289-.098c.195-.152.176-.448.14-.692-.075-.49-.156-.843-.23-1.333-.007-.043-.01-.088-.041-.208l-.023-.085c-.14-1.302.085-2.424.055-3.775-.048-2.134.314-4.22.464-6.35l.079-1.118M32.129 33.09c-.13-.007-.261-.01-.393-.018-.518-.024-1.316-.07-1.834-.056.235 2.303.124 5.235-.075 7.281-.137 1.411-.002 2.847-.15 4.258l.003.01c-.05.202-.04.48-.043.629-.002.152.008.307-.023.458-.022.103-.065.205-.077.311-.011.106.017.226.105.286.074.049.17.046.258.035.326-.042.64-.173.9-.378.197-.155.37-.366.398-.617.027-.25-.139-.533-.39-.557-.044-.007-.09-.003-.131-.022-.088-.042-.159.032-.22-.045-.044-.05.105-.66.103-.808l.694-3.052c.408-1.788.714-4.794.854-6.653.026-.353.041-.71.021-1.062" fill="#d1ac9d"/><path d="M46.919 21.11c-.005.446.027 1.058.478 1.315.143.082.314.106.48.121.374.034.786.002 1.017-.321.065-.093.109-.197.15-.301.04-.1.078-.202.106-.306.084-.32.065-.654.046-.982l-.024-.39c-.006-.106-.03-.22-.128-.283a.319.319 0 0 0-.152-.041c-.443-.043-.887-.085-1.331-.088-.203 0-.443.031-.545.247a.837.837 0 0 0-.06.289 10.09 10.09 0 0 0-.037.74" fill="#a09287"/><path d="m49.009 19.88-.027-.01c-.596-.085-1.202-.136-1.793-.01-.05.01-.103.024-.14.068-.037.043-.046.127-.006.165l.768.058c.392.03.924.06 1.276-.153.037-.023-.044-.09-.078-.118" fill="#c7b299"/><path d="M48.369 17.69c.034.308.03.62-.012.928-.012.09-.026.188.018.268.043.08.173.115.224.04.078-.113-.115-.28-.035-.393.058-.08.192-.03.25.05a.402.402 0 0 1-.113.556c-.074.045-.179.092-.164.177.117.027.239.054.357.03s.232-.11.245-.23c.006-.052-.008-.105-.005-.158.002-.053.029-.112.08-.124.057-.014.109.035.147.079.107.121.216.252.245.41.03.16-.056.35-.215.379-.199.035-.382-.19-.576-.135-.05.014-.094.045-.144.058-.078.02-.163-.008-.237.022-.118.049-.136.206-.135.334a2.636 2.636 0 0 1-.383.028l-.078-.016c-.04-.026-.042-.083-.04-.131l.023-.478c.002-.044 0-.094-.032-.123-.029-.025-.07-.024-.107-.029-.15-.018-.27-.14-.33-.279a1.306 1.306 0 0 1-.077-.443c.085-.005.165.044.22.108.056.064.092.143.132.218a.308.308 0 0 0 .101.124c.046.029.114.03.149-.012l.028-.071a.513.513 0 0 0-.329-.56.18.18 0 0 0-.111-.007l-.08.038c-.067.02-.138-.032-.172-.094-.03-.054-.042-.128 0-.173.053-.054.142-.03.213-.005.07.025.166.038.206-.026.052-.083-.054-.175-.078-.27l.014-.078.045-.018c.06-.007.118.031.153.08a.516.516 0 0 1 .069.167c.056.204.113.41.136.62.017.153.017.31.072.455.015.04.061.085.093.055-.065-.423-.107-.85-.128-1.277a.506.506 0 0 1 .026-.233c.032-.072.11-.13.187-.112.102.022.137.147.148.251" fill="#97b299"/><path d="M44.879 15.92c-.04.11-.17.082-.201-.021a.133.133 0 0 1 .053-.154l.04-.03a.091.091 0 0 1 .112.054.226.226 0 0 1-.004.151zm.388.226a5.92 5.92 0 0 0-.062-.68 4.892 4.892 0 0 1-.913.052c.045.432.014.865.016 1.3.003.873-.006 1.497-.001 2.535.002.396.013.79-.008 1.186-.008.148-.113.672.003.737.082.045.284.002.376 0 .125-.002.25-.007.375-.015l.087-.024.045-.074c.06-.165.067-.349.072-.528.041-1.496.083-2.994.01-4.49" fill="#afafaf"/><g fill="#3f3e3e"><path d="M45.209 16.43a1.837 1.837 0 0 0-.508.081l.006.054c.167-.025.334-.026.502-.041.053-.005.054-.093 0-.094M45.169 17.48c-.131.003-.264.028-.395.037-.033.002-.034.06 0 .059.13-.005.265.005.395-.007.05-.005.05-.09 0-.089M45.239 18.81c-.149-.002-.3.019-.448.044-.036.006-.02.067.015.062.146-.023.287-.023.433-.018.05.002.05-.087 0-.088M45.219 20.21c-.146-.014-.304.02-.45.037-.036.004-.037.069 0 .065.15-.014.3.006.45-.006.055-.005.054-.09 0-.096M45.189 19.96c-.048.01-.095.017-.143.025-.033.006-.026.072.008.067l.144-.018c.048-.005.04-.084-.01-.074M45.179 19.65c-.035.008-.072.01-.108.013-.037.004-.038.07 0 .067.039-.003.078-.008.117-.006.046.002.04-.085-.01-.074M45.139 19.36l-.09.02c-.031.003-.032.059 0 .056.034-.003.066 0 .1 0 .047.003.04-.088-.01-.076M45.199 19.05c-.051.004-.103.018-.154.026-.04.006-.031.088.01.082.051-.007.104-.01.154-.02.043-.01.034-.09-.01-.088M45.139 18.51a.634.634 0 0 0-.144.018c-.04.009-.023.08.018.07a.357.357 0 0 1 .126-.001c.048.006.05-.087 0-.087M45.169 18.17c-.055.007-.107.014-.162.01-.042-.001-.04.07 0 .073a.979.979 0 0 0 .162.005c.05-.005.049-.093 0-.088M45.179 17.88a.49.49 0 0 0-.161.031c-.04.014-.023.078.016.07.05-.01.096-.008.145-.01.052 0 .052-.091 0-.092M45.199 17.22c-.06.007-.119.026-.18.023v.051c.063.007.126.02.19.008.04-.008.032-.088-.01-.082M45.189 16.93c-.044-.002-.09.004-.135.005-.039 0-.039.068 0 .068.045 0 .09.007.135.005.044-.002.044-.076 0-.078M45.139 16.74l-.091-.026c-.04-.013-.058.057-.017.071l.089.035c.043.02.066-.069.019-.08M45.089 20.52h-.027c-.051 0-.051.09 0 .09h.027c.051.001.051-.09 0-.09M45.159 20.76a.659.659 0 0 0-.138-.028c-.053-.004-.052.088 0 .094a.43.43 0 0 1 .115.03c.052.021.078-.08.023-.096"/></g><path d="M43.849 16.97a.58.58 0 0 1-.051-.232l.002-.01.015-.032c.042-.016.052-.012.091-.033l.117-.01.033.03.005.044c0 .073-.004.146.008.217.007.04-.186.025-.22.026" fill="#e8e8e8"/><path d="M44.009 20.19a82 82 0 0 0-.055-1.052c-.042-.72-.08-1.44-.138-2.158-.003-.038.029-.067.069-.074l.117-.022c.038-.007.085.028.083.064-.046.69.093 1.381.109 2.071.014.688.02 1.373.068 2.059l.003.051-.032.044-.078.027-.03-.004-.06-.046c-.095-.286-.042-.658-.056-.96" fill="#4c4c4c"/><path d="M45.579 16.33a.71.71 0 0 0 .046-.235l-.001-.011-.01-.008c-.034-.016-.074-.01-.106-.03l-.067-.034-.027.032-.005.045c0 .073 0 .147-.01.219-.006.04.152.022.179.022" fill="#e8e8e8"/><path d="M45.379 20.48c.024-.454.05-.908.079-1.362.058-.931.112-1.864.187-2.794a.087.087 0 0 0-.07-.095l-.122-.026c-.04-.008-.09.038-.088.084.033.893-.126 1.79-.155 2.683-.03.89-.05 1.776-.113 2.664l-.004.068.032.055.081.034.031-.007.065-.061c.104-.372.057-.853.077-1.243M45.699 15.77c-.029-.05-.102-.055-.149-.069-.047-.014-.093-.034-.14-.004-.04.027-.054.078-.063.127a2.864 2.864 0 0 0-.033.221c-.005.045.03.095.071.096l.044-.008c.042.01.083.019.124.031.044.013.091.008.121-.035.03-.044.026-.124.031-.178.005-.054.023-.131-.006-.18" fill="#3f4854"/><path d="m45.679 16.32.024.01.003.02c-.014.345-.028.69-.067 1.034l-.024-.003c.013-.102.025-.204.031-.307.012-.194-.002-.39.03-.581a3.637 3.637 0 0 1-.216-.027l-.013-.006-.003-.015c.002-.04-.015-.165.036-.162l.094.025a.59.59 0 0 0 .105.012" fill="#e8e8e8"/><path d="M45.459 22.46c.025-.032.034-.087.042-.138.168-1.195.367-2.511.536-3.707-.818-.158-1.673-.09-2.495-.036.06 1.32.146 2.638.259 3.948l1.573-.035.085-.032" fill="#537082"/><path d="m37.299 22.41-.012-.005v.001l-.024.019-.007.015.014.007.014-.009.015-.012.005-.005-.004-.011" fill="#e8e8e8"/><g fill="#4c4c4c"><path d="M37.999 21.45c.228-.267.454-.536.678-.806.46-.554.626-.74 1.073-1.305.024-.03.067-.029.1-.007l.101.064c.033.021.044.078.018.103-.505.474-.576.708-1.036 1.222-.459.513-.922 1.017-1.356 1.55l-.033.04-.052.01h-.001l-.075-.033-.019-.024-.013-.074c.126-.274.42-.51.615-.74"/><path d="m37.559 21.91.661-.79.05-.033.04.013c.057.032.113.069.166.109l.021.028-.01.03c-.07.101-.15.194-.229.287l-.653.768-.05.034-.035-.01c-.056-.027-.186-.092-.175-.173.006-.04.072-.093.098-.124l.116-.14"/><path d="m37.559 22.26-.047-.066-.041-.02c-.039-.01-.099-.023-.124.016-.036.051-.049.136-.063.196l-.001.018.011.017c.035.03.087.029.13.012.042-.016.078-.046.116-.072l.03-.029-.011-.072"/></g><path d="M37.619 21.46a.78.78 0 0 1 .356-.07c.212.002.436.07.57.234.105.128.144.296.162.46a.377.377 0 0 1-.014.193.314.314 0 0 1-.108.122.761.761 0 0 1-.804.052c-.329-.184-.594-.777-.162-.991" fill="#eddbcc"/><path d="M39.969 22.51c-2.28.025-4.017-.03-6.068.017l-.004.141 6.066-.009c.02-.049.023-.1.006-.149" fill="#36302f"/><path d="M33.119 22.21c-4.072.073-7.176-.091-10.84.05l-.007.419-.086.01c3.64.012 7.28-.001 10.922-.038a.987.987 0 0 0 .01-.441" fill="#d6d6d6"/><path d="M23.513 22.16c.454-.143.885-.358 1.314-.574.178-.089.363-.183.483-.351.12-.168.15-.432.013-.582-.106-.116-.272-.13-.424-.133a9.102 9.102 0 0 0-3.718.712c-.191.08-.39.175-.513.353-.135.193-.265.77-.096.978.168.206.483.067.691.025.748-.15 1.518-.197 2.25-.428" fill="#b1cdd8"/><path d="M51.319 20.98v-.04c-.04-.002-.083-.006-.122.002l-.024-.065c.02-.033.04-.065.062-.096l-.025-.015-.057.07a.77.77 0 0 0-.07-.118l.006-.003.089-.067-.021-.035a2.273 2.273 0 0 1-.1.062l-.004.004a.71.71 0 0 0-.099-.097l-.063-.045c.025-.05.048-.1.077-.15l-.029-.017c-.03.048-.061.095-.088.144l-.067-.03v-.003c-.014-.04-.036-.077-.056-.114l-.02.008.034.093a.62.62 0 0 0-.141-.026l.004-.008.007-.09-.027-.005-.022.083.005.019-.079.004-.067.012-.06-.076-.027.028.04.062a.763.763 0 0 0-.138.063l-.021.011a.22.22 0 0 0-.036-.1l-.017.004a.232.232 0 0 0 .008.107c-.035.001-.062-.021-.12-.04l.039-.07-.028-.022-.056.08a.57.57 0 0 0-.127-.017l-.03-.086-.035.01.005.079a.68.68 0 0 0-.271.081l-.002-.009-.034-.079-.028.007.016.084.01.02-.01.005-.004-.003c-.049-.007-.103.005-.152.012v.03c.034-.003.067 0 .101 0a.772.772 0 0 0-.152.154c-.03-.04-.073-.066-.114-.093l-.015.02c.03.034.057.073.092.101l.014.005-.048.085-.056-.058-.02.015.057.084a.642.642 0 0 0-.03.1 1.523 1.523 0 0 1-.095.006v.04l.087.001a.49.49 0 0 0 .04.27l-.051.036.018.031.053-.028c.022.04.05.078.081.113l-.077.092.019.019.082-.085c.113.112.268.196.427.247l.038.022c.431.013.976.129 1.3-.243l.01-.012h.116l.004-.03-.085-.016a.558.558 0 0 0 .074-.164l.028.033.027-.015-.042-.075.009-.075.012-.01.08-.082-.022-.029-.07.049a.733.733 0 0 0-.023-.155c.036-.004.071-.011.107-.012" fill="#b4c7ba"/><g fill="#98b99d"><path d="M50.049 20.65c-.244.033-.404.278-.435.51a.512.512 0 0 0 .29.525l.011-.02a.513.513 0 0 1-.254-.498c.026-.205.165-.456.395-.464.038-.001.032-.058-.007-.053M50.449 21.19c-.015-.18-.105-.48-.288-.558l-.014.024c.152.077.216.324.24.478.03.184-.009.374-.181.478-.033.02-.002.073.03.051.16-.11.229-.28.213-.473"/><path d="M50.839 21.08c-.038-.32-.323-.518-.633-.486v.022a.546.546 0 0 1 .566.427.528.528 0 0 1-.353.6l.013.046c.259-.09.44-.326.407-.609"/></g><path d="M15.06 19.35a5.684 5.684 0 0 0-.156-.043c-.01-.094-.063-.185-.148-.223.072-.03.145-.06.219-.086.078-.028.048-.145-.034-.125a2.146 2.146 0 0 0-.136.038.418.418 0 0 0-.112-.323.392.392 0 0 0-.128-.084c.006-.06.01-.12.007-.181-.004-.083-.127-.084-.129 0 0 .05-.006.1-.013.149a.406.406 0 0 0-.23.048.594.594 0 0 0-.478-.58l-.005-.154c-.004-.082-.126-.082-.129 0l-.005.15a.594.594 0 0 0-.518.495.333.333 0 0 0-.203-.07c-.011-.067-.026-.133-.04-.198-.013-.067-.126-.053-.119.015l.024.2-.03.01a.688.688 0 0 0-.296.244 1.222 1.222 0 0 0-.065.099l-.1-.093c-.063-.057-.151.03-.094.094l.125.136c-.073.171-.108.36-.096.545.01.141.05.29.153.386.095.09.23.122.358.145.311.059.627.09.943.093.432.005.918-.07 1.175-.417a.563.563 0 0 0 .088-.17c.046.008.092.016.139.022.078.011.114-.098.033-.122" fill="#afd9c4"/><g fill="#98b99d"><path d="M12.75 19.44c.005-.087-.126-.084-.134 0a.69.69 0 0 0 .017.235c.016.067.133.054.124-.017a1.148 1.148 0 0 1-.007-.218M12.729 18.87a.239.239 0 0 0-.048.176c.007.076.126.079.12 0a.118.118 0 0 1 .027-.1.063.063 0 0 0-.099-.076M13.531 19.51a.674.674 0 0 1-.025.157c-.022.076.086.1.114.031a.509.509 0 0 0 .041-.188c.003-.084-.126-.084-.13 0M13.625 19.13a.426.426 0 0 0-.032-.252c-.03-.068-.148-.019-.12.05a.39.39 0 0 1 .03.185c-.007.07.111.086.122.017M13.522 18.56c.082 0 .082-.128 0-.128-.083 0-.083.128 0 .128M14.141 19.51l-.028.204c-.012.075.091.108.116.032a.957.957 0 0 0 .044-.218c.006-.075-.122-.092-.132-.018M14.223 19.22a.446.446 0 0 0-.052-.191c-.04-.073-.145-.01-.11.064.021.043.033.079.037.127.006.08.13.08.125 0M13.972 18.49c-.085 0-.085.132 0 .132s.085-.132 0-.132M12.899 18.5c-.082 0-.082.127 0 .127.083 0 .083-.127 0-.127"/></g><path d="M12.388 22.63c.034.052.095.054.147.052.728-.03 1.454.041 2.181.012.113-.9.196-1.91.204-2.816-.507 0-1.015.003-1.523.005-.247 0-.494 0-.74.002-.15 0-.564-.017-.579.063-.028.152.027.45.044.588l.082.674c.053.431.107.863.152 1.295.004.045.01.092.032.125" fill="#333"/><g fill="#494949"><path d="M14.307 21.28c-.248.078-.523.058-.781.073-.311.018-.622.047-.933.059-.208.008-.198.292 0 .315.568.065 1.296.245 1.852.053.313-.108.184-.6-.138-.5M12.656 22.06c-.167 0-.167.258 0 .258s.167-.258 0-.258M13.365 22.15c-.098 0-.098.153 0 .153.099 0 .099-.153 0-.153M14.331 22.14l-.008-.007c-.095-.082-.254-.031-.254.105s.159.187.254.105l.008-.007c.054-.047.054-.149 0-.195"/></g><path d="M30.209 22.29c-.225-1.47-.684-2.903-.836-4.383-.046-.454-.077-.947-.373-1.295-.36-.422-.978-.484-1.531-.514-.216-.013-.442-.023-.636.073-.296.146-.43.493-.49.818-.071.382-.077.773-.11 1.16-.112 1.29-.536 2.53-.767 3.803-.173.952 1.119.699 1.715.708.892.014 1.785.004 2.676-.03.134-.005.294-.03.346-.152a.353.353 0 0 0 .006-.188" fill="#eaeaea"/><path d="M50.949 23.44c-.663-.022-3.246-.033-4.001-.034l-36.965.002c-1.303.016-3.026.018-4.342.021-.801.002-.583.012-.748.304-.157.277-.141.556-.165.836a3.742 3.742 0 0 0 .1 1.232c.022.091-.175.208.01.296-.038.046-.002.092.524.116.47.022 1.243.029 2.08.029h.162c1.14 0 2.375-.007 3.108-.007 1.504-.004 3.007-.004 4.511-.004h31.71c.744 0 3.3 0 3.972-.043.183-.01.325-.024.409-.042.39-.081.149-.215.182-.303h-.068c.027-.127-.059-.265-.037-.374a2.629 2.629 0 0 0-.044-1.215c-.053-.197.172-.487.258-.7.036-.091.036-.091-.656-.114" fill="#36302f"/><path d="M52.079 22.7c-7.826-.254-28.109.057-35.924-.052-4.207-.058-8.415.108-12.622.163-.586.322-.327.77-.232 1.155 12.084-.016 36.78-.005 48.85-.144.152-.344.118-.731-.071-1.122" fill="#e8e8e8"/><path d="M5.562 45.44c.358.081.645.025.964.081.106-.176.127-.261.18-.49 1.125-4.865 3.999-14.206 4.916-19.103-.098-.424-.581-.392-.864-.057-.283.335-.412.84-.525 1.31a585.473 585.473 0 0 1-2.279 9.037c-.377 1.457-2.127 7.747-2.392 9.222" fill="#36302f"/><path d="M16.914 45.44c-.358.081-.645.025-.964.081-.106-.176-.127-.261-.18-.49-1.125-4.865-3.999-14.206-4.916-19.103.098-.424.581-.392.864-.057.283.335.412.84.525 1.31.732 3.019 1.499 6.028 2.279 9.037.377 1.457 2.127 7.747 2.392 9.222" fill="#36302f"/><path d="M15.354 18.48v.026-.026" fill="#e6e7e8"/><g fill="#36302f"><path d="M7.484 41.42c.383.004.729.028 1.054.028l2.255-.007 4.468-.01c.083 0 .14.046.173.11h.01c.27-.05.381.634.108.68-1.346.236-2.768.06-4.124.085-.686.01-1.338-.046-2.024-.032-.562.01-1.126.032-1.686-.014-.128.003-.257.007-.385.007-.118.003-.173-.11-.168-.222l-.018-.325c.027-.3.1-.303.337-.3M39.459 45.44c.357.081.645.025.964.081.105-.176.127-.261.18-.49 1.125-4.865 3.998-14.206 4.916-19.103-.099-.424-.582-.392-.865-.057-.283.335-.41.84-.525 1.31a586.035 586.035 0 0 1-2.278 9.037c-.378 1.457-2.127 7.747-2.392 9.222"/><path d="M50.809 45.44c-.358.081-.645.025-.964.081-.106-.176-.127-.261-.18-.49-1.125-4.865-3.999-14.206-4.916-19.103.098-.424.581-.392.864-.057.283.335.412.84.525 1.31.732 3.019 1.499 6.028 2.279 9.037.377 1.457 2.127 7.747 2.392 9.222"/><path d="M41.379 41.42c.383.004.729.028 1.054.028l2.254-.007 4.469-.01c.083 0 .14.046.173.11h.01c.27-.05.38.634.108.68-1.346.236-2.768.06-4.125.085-.686.01-1.337-.046-2.023-.032-.562.01-1.125.032-1.686-.014-.129.003-.257.007-.385.007-.118.003-.173-.11-.168-.222l-.018-.325c.027-.3.1-.303.337-.3"/></g><path d="M19.548 18.97c.012.249.029.51.149.722.247.441.806.497 1.28.5 3.573.027 7.224.192 10.79.003 1.083-.057 2.345-.053 3.376-.405.331-.114.665-.264.9-.54.398-.471.45-1.559.438-2.2-.059-3.025.147-5.728-.113-8.741-.019-.214-.04-.435-.143-.619-.257-.461-1.327-.518-1.824-.519-3.892-.01-6.212-.252-9.546-.063-.825.047-1.65-.153-2.467-.023-.567.09-1.91.121-2.337.562-.35.362-.565 1.819-.553 2.333.02.92.045 1.841.074 2.762.064 2.077-.13 4.153-.024 6.228" fill="#3d3d3d"/><path d="M36.309 18.7c-.067.267-.131.388-.27.551-.234.277-.568.427-.899.54-1.031.352-2.293.349-3.375.406-3.567.188-7.218.023-10.791-.003-.474-.004-1.033-.06-1.28-.5-.12-.213-.137-.474-.149-.723l16.764-.27" fill="#f7f7f7"/><path d="M20.293 17.17c.01.194.023.398.13.564.222.343.851.242 1.281.242 3.235.001 6.54.11 9.772-.057.98-.05 1.999.086 2.935-.194.3-.09.603-.21.817-.427.364-.37.417-1.22.41-1.721-.037-2.363.166-4.43-.054-6.783-.015-.166-.033-.34-.125-.482-.231-.36-1.2-.397-1.65-.395-3.524.014-5.624-.21-8.644-.043-.748.04-1.493-.111-2.234-.004-.515.073-1.731.105-2.12.452-.319.284-.521 1.424-.514 1.825.014.72.031 1.438.052 2.157.047 1.623-.14 3.246-.056 4.866" fill="#fff"/><g fill="#36302f"><path d="M6.85 21.93c0-.034 0-.07.024-.098.037-.045.115-.052.183-.056l1.13-.057c.971-.05 1.955-.1 2.914.035a.258.258 0 0 1 .119.037c.033.025.043.063.05.098.032.15.046.303.041.455-.002.088-.018.188-.11.24a.48.48 0 0 1-.203.043c-1.055.072-2.115.1-3.174.084-.227-.003-.719.035-.9-.094-.173-.123-.073-.518-.074-.687"/><path d="m8.028 21.42.011-.046c.018-.02.054-.024.086-.026l.53-.027c.455-.023.916-.046 1.366.016l.056.018.023.046c.015.07.022.142.02.213-.002.041-.01.088-.052.113a.224.224 0 0 1-.095.02c-.495.034-.992.047-1.488.04-.106-.001-.337.016-.422-.045-.081-.057-.035-.243-.035-.322"/><path d="M8.937 22.51c.111-.008.191-.108.289-.13.018-.157.018-.229.016-.419-.028-4.035.126-11.927.033-15.946-.06-.311-.225-.314-.284.006-.058.32-.032.863-.03 1.252.007 2.512.005 5.025-.002 7.537-.004 1.217-.053 6.492-.022 7.7"/><path d="M8.203 7.59c.066.09.1.176.168.248.123-.057.256-.157.392-.246 2.887-1.897 8.648-5.43 11.49-7.374.191-.195.028-.256-.234-.157-.261.1-.563.294-.842.476a942.208 942.208 0 0 1-5.423 3.497c-.877.562-4.698 2.969-5.55 3.556M19.122 3.64a2.468 2.468 0 0 1-.013-.763c.063-.406.245-.926.478-1.234.344-.457.797-.675 1.325-.857a1.96 1.96 0 0 1 1.67.176c.247.154.462.365.658.592a5.5 5.5 0 0 1 .82 1.282.311.311 0 0 1 .036.116c.002.074-.05.129-.098.174A7.672 7.672 0 0 1 20.6 4.992c-.258.065-.82.227-1.04-.076-.103-.141-.172-.362-.234-.523a3.646 3.646 0 0 1-.204-.753"/><path d="M20.233 1.34c.184-.09.314-.16.476-.24l.013-.04c-.187-.238-.205-.872-.497-1.058-.111.027-.339.147-.424.214-.086.067-.073.095-.057.12.1.156.182.32.258.488.037.082.138.463.231.516"/><path d="M20.151 1.48c.313-.15.35-.172.625-.305.141-.085.276-.15.276-.15-.123-.187-.141-.348-.328-.593-.177.07-.567.263-.724.354-.157.09-.203.125-.19.137a.644.644 0 0 1 .152.258c.019.048.074.298.189.299"/></g><path d="M21.388 4.04c.297-.15.597-.295.898-.435.548-.256 1.11-.5 1.71-.587-.06.141-.185.242-.305.337-.103.082-.206.164-.31.243a7.474 7.474 0 0 1-2.856 1.317c-.087.019-.413.135-.484.063-.065-.067.238-.273.3-.32.323-.246.685-.436 1.047-.618" fill="#5e5452"/><path d="M21.612 4.35c.154.013.305-.039.45-.092.111-.04.224-.084.32-.155a.46.46 0 0 0 .193-.29c.017-.109-.019-.218-.054-.322-.32.122-.633.263-.937.423-.098.052-.341.12-.292.249.043.114.21.178.32.187" fill="#fff"/><path d="M42.649 22.63c1.353.004 2.199.017 3.271.002.834-.012 1.686.006 2.52-.006.005-.736.008-1.485.005-2.2-1.932-.018-3.785.007-5.8.001-.014.717-.002 1.487.004 2.204" fill="#999"/><g fill="#36302f"><path d="M42.739 22.38c.294.004.477.015.71.001.18-.01.36.005.54-.005.012-.576.014-1.315 0-1.89-.419-.016-.814.005-1.25 0-.004.616-.001 1.278 0 1.894M44.069 22.38c.294.004.477.015.71.001.18-.01.36.005.54-.005.012-.576.014-1.315 0-1.89-.418-.016-.814.005-1.25 0-.004.616-.001 1.278 0 1.894M45.759 22.38c.294.004.477.015.71.001.18-.01.36.005.54-.005.012-.576.014-1.315 0-1.89-.419-.016-.814.005-1.25 0-.004.616-.001 1.278 0 1.894M47.099 22.38c.294.004.477.015.71.001.18-.01.36.005.54-.005.012-.576.014-1.315 0-1.89-.419-.016-.814.005-1.25 0-.004.616-.001 1.278 0 1.894M45.429 21.15c0 .059-.002.095 0 .141v.109c.067.002.153.003.22 0 .002-.084 0-.163 0-.25h-.22M45.439 21.54v.25c.068.002.153.003.22 0 .002-.084 0-.163 0-.25h-.22"/></g><g fill="#fff"><path d="M43.229 22.07c.051.002.083.01.124.001l.095-.004c.002-.375.002-.854 0-1.229-.074-.01-.143.004-.219 0v1.231M44.539 21.88v-.818h.337v.818h-.337zm.556.152c.002-.368.002-.826 0-1.187l-.048-.003H44.322v.004h-.003V22.076h.003l.001.023c.235.002.535.002.77 0v-.025h.002v-.041M46.269 22.07c.052.002.084.01.124.001l.095-.004c.002-.375.002-.854 0-1.229-.073-.01-.142.004-.219 0v1.231M47.579 21.88v-.818h.337v.818h-.337zm.556.152c.002-.368.002-.826 0-1.187l-.048-.003H47.361v.002l-.003.001V22.075h.003l.001.023c.235.002.535.002.77 0v-.025h.001v-.041"/></g><path d="M49.049 22.42a.332.332 0 0 0 .076.133c.043.038.101.053.157.065.306.063.622.067.935.07.216.002.454-.003.619-.144a.61.61 0 0 0 .187-.346c.027-.13.024-.265.022-.4a.224.224 0 0 0-.023-.114c-.036-.06-.117-.07-.187-.075-.499-.034-.999.002-1.499.017-.131.004-.429.015-.458.18-.017.095.042.177.065.27.03.117.064.232.106.344" fill="#aa6a64"/><g fill="#4a4e31"><path d="M16.73 15.84c.262-.124 1.63-.669.984-1.068-.39-.24-.757.063-.983.43 0-.36-.005-.72-.02-1.08l.038-.003c.16-.058.387-.171.458-.342.054-.13-.044-.227-.174-.22-.097.003-.243.1-.342.21-.021-.32-.054-.64-.103-.96.153-.134.512-.453.238-.617-.096-.057-.217-.01-.278.074a.387.387 0 0 0-.066.226l-.046-.031c-.135-.192-.335-.39-.5-.214-.233.25.237.433.467.519-.004.076.085.121.147.075.022.284.035.568.042.852a.808.808 0 0 0-.286-.164c-.123-.079-.255-.101-.367.017-.334.35.448.464.6.538l.059.008c.004.465-.003.931-.01 1.397l-.003.01c-.106-.352-.3-.84-.595-.774-.14.03-.183.166-.136.292.025.067.09.114.138.162.038.036.073.072.108.107l.333.48.075.038.013.03.064.041c-.002.303-.002.607.003.91l-.068-.027c-.205-.258-.63-.658-.843-.38-.29.38.707.66.91.68h.009c.022.7.14 3.272.284 3.964.018.087.152.05.133-.037-.136-.65-.247-3.178-.27-3.836l.026-.012c.176-.134.992-.496.625-.84-.256-.24-.523.068-.662.355-.003-.27-.003-.54-.002-.81"/><path d="M16.337 18.92c.122-.155.795-.85.334-1.024-.259-.097-.39.194-.454.481-.024-.152-.05-.303-.075-.451-.029-.16-.061-.32-.098-.477l.008-.01.042-.066c.185-.172.466-.326.596-.536.09-.143.083-.384-.07-.49-.32-.224-.568.456-.663.776a5.463 5.463 0 0 0-.236-.659l.014-.02c.077-.14.264-.241.288-.41.016-.111-.053-.236-.17-.249-.17-.019-.27.126-.321.296a3.928 3.928 0 0 0-.184-.3l.032-.07-.041-.05a.328.328 0 0 0-.09-.093.957.957 0 0 0-.29-.185c-.136-.056-.353-.103-.482 0-.106.085-.06.214.041.28.202.129.468.003.682.116l.02.006.08.026c.074.134.14.27.202.407l-.007.052-.047.008h-.051c-.209-.1-.468-.164-.572.015-.186.324.62.224.734.249l.069-.012c.08.215.146.434.2.655-.22-.115-.502-.153-.66.071-.307.435.626.237.716.254l.018.001c.064.308.11.62.148.935l-.077-.04c-.264-.2-.622-.389-.805-.054-.071.129-.004.248.112.312.238.128.55.068.811.15.059.557.103 1.118.18 1.673.01.076.128.055.13-.017.01-.5-.033-1.015-.1-1.525l.036-.025"/><path d="M19.796 15.93c-.061-.324-.408-.297-.67-.187h-.02l-.053.034-.03.016-.014.003c.05-.176.032-.43.018-.518-.015-.095-.032-.241-.152-.254-.114-.013-.17.099-.202.19-.077.227-.102.592.103.76a3.914 3.914 0 0 0-.61.591c.024-.099.037-.199.04-.283.004-.148-.013-.442-.206-.48-.17-.032-.242.17-.262.301-.03.185-.009.376.04.56.003.115.024.229.093.276l.002.005.007.01c-.133.205-.249.42-.349.645-.01-.064-.024-.124-.035-.174-.04-.187-.128-.465-.37-.447-.246.019-.293.3-.23.492.066.208.218.362.39.486l.017.033.06.041c-.059.168-.108.34-.15.514-.035-.052-.063-.116-.105-.18-.082-.128-.208-.285-.375-.284-.11 0-.214.081-.198.202.012.094.117.157.181.21.143.116.288.23.431.347a7.776 7.776 0 0 0-.111 1.978c.006.09.145.092.141 0-.027-.63 0-1.275.11-1.897l.016.002c.182 0 1.157-.127.88-.494-.204-.27-.6-.01-.822.226l-.02-.007c.048-.223.108-.442.181-.656.301.114 1.405.074 1.13-.379-.14-.23-.449-.182-.663-.107-.09.032-.228.089-.346.165.094-.227.204-.445.331-.654.13.197.454.216.661.202.243-.016.457-.07.42-.357-.05-.416-.556-.313-.886-.138.183-.253.396-.487.642-.7l.052.045c.097.055.228.073.335.1.114.027.25.073.37.058.152-.019.257-.139.228-.296"/></g><path d="M15.703 21.78a.8.8 0 0 0 .046.295c.082.194.301.293.508.34.32.072.654.063.983.049.155-.007.322-.02.442-.117a.366.366 0 0 0 .1-.13c.022-.046.033-.097.045-.147l.057-.254c.033-.146.022-.307.03-.457.01-.18.026-.345.02-.526-.006-.15.002-.302.01-.452.023-.39-.01-.81.012-1.199-.666-.156-1.308-.13-1.986-.032-.116.017-.313.049-.34.187-.014.068.005.157.007.226l.009.297a1342.368 1342.368 0 0 0 .057 1.92" fill="#cfcfcf"/><path d="M15.645 22.3a.405.405 0 0 1 .206-.034c.622.008 1.244.07 1.863.012.108-.01.24-.014.3.077.055.081.013.198-.065.256a.525.525 0 0 1-.275.083c-.372.034-.745.008-1.117-.005a6.392 6.392 0 0 0-.58 0c-.104.006-.247.047-.34-.018-.127-.088-.13-.295.008-.371" fill="#736357"/><path d="M38.199 22.52c-.341.15-.714.216-1.084.256-.494.055-.998.067-1.482-.04-.635-.14-1.207-.48-1.734-.859-1.354-.974-2.515-2.302-2.978-3.904-.276-.955-.17-2.675 1.303-2.29.453.117.815.46 1.092.836.593.807.871 1.795 1.283 2.708.411.913 1.036 1.82 1.985 2.139 0 0 .548.277.762.241.213-.035 1.047-.183 1.164.227.116.41-.31.686-.31.686M20.098 20.62c-.24.358-.494.75-.468 1.18.027.457.417.864.872.912.698.073 1.235-.576 1.63-1.156.43-.632.86-1.264 1.292-1.896.417-.613.844-1.248.983-1.976.095-.498.027-1.067-.338-1.42-.915-.885-1.56.4-1.919 1.031a53.127 53.127 0 0 1-2.052 3.325" fill="#b1cdd8"/><g fill="#36302f"><path d="M32.849 41.67c-.14-.127-.279-.25-.418-.377-.602-.55-1.214-1.097-1.823-1.644-.745-.667-1.443-1.31-2.187-1.98-1.1-.984-2.227-2.02-3.346-3.02a.4.4 0 0 1-.053.163l3.989 3.591 2.44 2.198c.352.314.724.656 1.138 1.03.256.23.336.304.399.29l.017-.06c.018-.01-.028-.078-.156-.19"/><path d="M31.799 34.54c-1.158 1.03-2.327 2.106-3.465 3.126-.744.67-1.443 1.312-2.187 1.979-.61.547-1.222 1.093-1.823 1.644-.14.127-.28.25-.418.377-.128.113-.175.18-.157.19l.018.06c.063.015.143-.06.399-.289.413-.374.785-.716 1.137-1.03l2.44-2.198 4.139-3.725a.463.463 0 0 1-.083-.134"/><path d="M22.368 49.31c.139-.812.285-1.542.398-2.233l.787-4.795 1.56-9.496c.028-.177.095-.29.171-.346l.003-.021c.046-.586.777-.678.73-.088-.233 2.91-.912 5.898-1.367 8.784-.23 1.46-.516 2.833-.743 4.293-.186 1.196-.363 2.399-.606 3.58l-.126.823c-.039.25-.172.342-.284.31l-.337-.032c-.296-.12-.272-.275-.186-.779M34.379 49.31c-.139-.812-.285-1.542-.398-2.233l-.787-4.795-1.56-9.496c-.028-.177-.095-.29-.172-.346l-.002-.021c-.046-.586-.778-.678-.73-.088.233 2.91.912 5.898 1.366 8.784.23 1.46.517 2.833.744 4.293.185 1.196.363 2.399.606 3.58l.126.823c.039.25.172.342.284.31l.337-.032c.296-.12.272-.275.186-.779"/></g><path d="M31.609 19.69c1.017 1.006 1.574 1.819 1.802 3.909.357 3.274 1.295 5.097 1.652 8.368.028.26.05.903-.1 1.118-.151.219-.435.3-.698.367-3.112.769-6.347.705-9.551.508-.942-.057-2.45-.286-2.91-1.245-.385-.805.108-2.209.204-3.052.323-2.843.954-3.45 1.278-6.29.123-1.088.148-1.66.711-2.606.674-1.13.402-.975 1.682-1.357 0 0 5.197-.445 5.93.28" fill="#e8e8e8"/><path d="M31.699 20.6c-.584.515-1.653.488-1.92 1.22-.123.335-.011.704.068 1.052.113.498.158 1.011.132 1.52-.021.42-.094.85-.306 1.214-.293.505-.812.826-1.297 1.15-.884.593-1.757 1.316-2.112 2.318-.189.533-.218 1.115-.412 1.648-.167.455-.453.871-.533 1.347-.096.582.126 1.161.294 1.725.316 1.059.446 2.23 0 3.239-.143.324-.366.642-.699.762-.242.088-.508.06-.765.05a5.236 5.236 0 0 0-1.895.271c-.497.17-.977.413-1.5.462-.522.046-1.122-.173-1.302-.667-.207-.568.212-1.146.463-1.697.377-.822.384-1.76.46-2.66.2-2.395.916-4.71 1.598-7.013.371-1.252.735-2.512.907-3.808.095-.714.131-1.44.298-2.14.166-.702.48-1.394 1.03-1.86.61-.518 1.434-.698 2.227-.8 1.54-.196 3.109-.16 4.638.104.641.11 1.059.116 1.12.823.05.6-.014 1.316-.494 1.74" fill="#afd9c4"/><g fill="#b4c7ba"><path d="M20.09 38.2c-.037-.106-.208-.057-.168.05.073.186-.036.352-.059.536-.019.151.034.292.094.43l.05-.021c-.06-.237-.016-.385.065-.603a.546.546 0 0 0 .018-.392M20.476 38.22c-.067-.099-.219-.014-.162.095.184.353-.177.738.05 1.097.024.04.097.014.078-.031-.156-.388.29-.773.034-1.161M20.742 38.26c-.03-.06-.135-.018-.112.05.087.236.157.472.186.726a.025.025 0 0 0 .05 0 1.428 1.428 0 0 0-.124-.776M21.213 38.59c-.012-.138-.1-.25-.12-.384-.015-.106-.186-.064-.165.045.021.117.092.205.122.318.036.134.023.275.008.413-.005.049.073.056.087.01.037-.127.08-.268.068-.402M21.496 38.11c-.05-.081-.163-.01-.127.074.071.17.006.339.019.512.009.12.042.229.089.338.017.04.076.01.066-.028-.054-.198-.026-.356.002-.554a.493.493 0 0 0-.049-.342M21.867 38.05c-.04-.074-.166-.025-.137.056.063.177.03.335.032.515a.952.952 0 0 0 .095.406c.017.035.075.01.065-.028-.085-.31.111-.653-.055-.95M22.172 38.08c.014-.078-.108-.113-.122-.032-.041.226.113.424.08.65-.008.049.064.07.076.02.052-.218-.073-.423-.034-.638M22.6 38.25c-.019-.13-.085-.247-.073-.381.006-.063-.1-.067-.102 0-.004.11.028.198.06.296a.88.88 0 0 1 .04.424l.041.01a.806.806 0 0 0 .034-.349M22.846 37.73c.023-.11-.138-.155-.168-.05-.086.304.096.6.121.897.005.053.08.053.082 0 .007-.29-.098-.558-.035-.847M23.143 37.77c-.025-.102-.189-.057-.157.042.065.208.098.438.051.653-.013.06.08.085.094.025.054-.247.073-.473.012-.72M23.5 37.67c-.029-.102-.18-.06-.155.042.054.226.05.466-.011.692-.027.099.122.137.153.042.083-.26.088-.515.013-.776M23.913 38.3a1.077 1.077 0 0 1-.063-.378c.001-.12.036-.229.05-.349.01-.077-.109-.102-.143-.039-.134.247-.064.572.057.808.028.053.12.018.099-.042M24.358 38.21a.697.697 0 0 1-.042-.335.536.536 0 0 0-.004-.272c-.027-.08-.142-.049-.126.036.023.12-.054.24-.053.36 0 .109.06.19.128.268.04.042.114-.004.097-.057M24.75 37.55c.017-.116-.149-.17-.183-.05-.033.113-.01.223-.002.34a.897.897 0 0 1-.064.394c-.03.07.085.103.113.032.048-.116.115-.215.134-.342.02-.124-.016-.247.002-.374M25.034 37.6c.05-.074-.086-.145-.12-.05-.032.089-.008.17.005.258.02.134 0 .275-.06.395-.044.092.086.17.136.081a.562.562 0 0 0 .082-.3c-.006-.116-.111-.282-.043-.384M19.812 38.07c-.038-.113-.204-.05-.155.067.078.184-.035.406-.032.6 0 .032.05.039.056.007.048-.23.213-.427.131-.674"/><path d="M22.287 37.94c-.01-.07-.12-.05-.12.018-.003.275.174.508.22.776.011.056.098.039.099-.014.006-.283-.16-.508-.199-.78"/></g><g fill="#a9d1bd"><path d="M24.579 34.15c.116.423.325.818.435 1.245.147.579.105 1.2-.12 1.75.35-.254.574-.663.642-1.094a2.258 2.258 0 0 0-.19-1.266c-.133-.296-.321-.575-.377-.893-.023-.13.01-1.485-.304-1.337-.056.025-.067.49-.083.565-.081.356-.102.667-.003 1.03M23.399 27.46c-.498.758-1.066 1.482-1.433 2.31a5.46 5.46 0 0 0-.457 2.509c.101-.568.203-1.143.429-1.672.664-1.563 2.327-2.604 2.74-4.251.211-.85.056-1.75.215-2.612.132-.71.474-1.367.87-1.972-.484.354-.81.891-1.01 1.456-.26.737-.259 1.494-.425 2.242-.16.72-.528 1.38-.929 1.99M29.372 22.13c.008.488.211.949.328 1.423.116.474.127 1.026-.191 1.396.124-.356-.07-.732-.228-1.072-.324-.692-.523-1.483-.327-2.22a1.92 1.92 0 0 1 .569-.926c.105-.094.85-.596.97-.38.016.031-.685.59-.77.709a1.796 1.796 0 0 0-.351 1.07M24.513 19.44c-.38.41-.607.943-.731 1.488-.124.546-.153 1.107-.181 1.666.057-.577-.102-1.159-.049-1.736.062-.687.42-1.317.864-1.845.218-.26.466-.508.779-.64.219-.094.617-.17.804.01-.137.175-.472.282-.661.407-.294.191-.585.392-.825.65M20.678 35.52c.279-.194.585-.35.858-.55.47-.35.824-.826 1.209-1.267.222-.254.458-.5.624-.794.166-.292.256-.649.158-.973-.078.275-.159.554-.311.797a2.63 2.63 0 0 1-.512.554c-.321.275-.664.529-1.025.751-.308.194-.63.367-.9.61a2.17 2.17 0 0 0-.608.928c-.03.1-.103.346.062.343.07 0 .365-.343.445-.399"/></g><path d="M22.629 17.6c-.051-.345-.38-.661-.259-.989.087-.235.373-.342.487-.566.148-.292-.047-.667.085-.966.093-.21.332-.341.38-.565.019-.082.01-.172.046-.247.073-.15.294-.186.35-.34.041-.11-.017-.237.022-.347.048-.136.215-.18.358-.2l.055-.007c.07-.405.048-.826.035-1.239a24.564 24.564 0 0 1 .036-2.302c.034-.555.088-1.115.261-1.644.132-.402.336-.787.644-1.077.381-.356.892-.542 1.403-.648a5.77 5.77 0 0 1 2.704.088c.331.092.658.216.937.417.426.31.708.777.935 1.252.233.487.422.994.563 1.515.17.629.273 1.275.461 1.899.156.514.37 1.014.46 1.544.027.158.04.32.037.482l.008.04c.037.197.047.416-.004.612-.057.22-.22.41-.237.642-.028.374.337.642.652.845.315.204.66.516.575.88-.056.235-.29.435-.236.671.07.303.513.316.724.544.243.264.07.722-.236.91-.305.187-.683.193-1.039.233-.356.039-.744.142-.94.442-.07.107-.109.231-.171.343a.948.948 0 0 1-.652.466c-.328.058-.658-.06-.987-.107-.33-.047-.724.01-.893.296-.137.232-.094.566-.304.735-.199.16-.544.093-.684.307-.044.068-.057.154-.103.222-.11.16-.363.145-.516.029-.154-.117-.236-.302-.328-.472-.092-.17-.214-.342-.398-.4-.198-.06-.415.028-.616-.018-.431-.1-.521-.71-.903-.934-.149-.087-.328-.105-.5-.121-.243-.023-.514-.038-.704.116-.05.04-.093.09-.154.108-.078.023-.159-.016-.23-.053-.16-.083-.328-.174-.408-.334-.095-.187-.073-.46-.262-.55-.094-.045-.206-.02-.308-.045-.263-.062-.344-.407-.292-.673.053-.266.185-.526.146-.794" fill="#edddb2"/><path d="M1.043 43.73c.01.12.021.247.09.346a.526.526 0 0 0 .248.17c.265.101.556.101.839.101h2.087c.175 0 .358-.004.514-.084.322-.17.396-.593.431-.956l.677-6.862c.013-.13.026-.264-.015-.391-.125-.378-.624-.438-1.02-.424a76.828 76.828 0 0 0-3.111.159c-.28.021-1.02-.063-1.235.166-.243.257-.04.97-.015 1.295l.51 6.48" fill="#4d4d4d"/><path d="M.022 36.76a.365.365 0 0 0-.01.208c.04.117.185.166.305.141.12-.021.223-.099.327-.162.103-.067.22-.127.342-.116.173.017.295.172.431.282a.96.96 0 0 0 .817.187c.293-.07.534-.272.783-.445.25-.17.546-.317.842-.26.103.02.2.066.303.087.103.021.22.014.298-.056.073-.064.095-.17.144-.254a.44.44 0 0 1 .577-.159c.055.032.106.078.168.092.131.024.262-.095.392-.064.045.014.084.043.13.05.106.014.187-.11.187-.219 0-.18-.14-.335-.304-.406-.164-.07-.348-.077-.527-.08a179.165 179.165 0 0 0-3.65-.018c-.286 0-.574 0-.854.056-.226.05-.279.236-.39.413a2.71 2.71 0 0 0-.311.723" fill="#e6e6e6"/><path d="M38.669 14.71c2.87-.017 4.899.007 7.288 0l5.571-.013c.114-.259.134-.579-.012-.838-4.273-.016-8.422.02-12.828.005a5.45 5.45 0 0 0-.019.846" fill="#36302f"/></svg>