<svg width="211.71" height="142.613" viewBox="0 0 56.015 37.733" xmlns="http://www.w3.org/2000/svg"><path d="M33.834 27.55c-10.02.074-20.039.219-30.056.441-.935.018-1.928.028-2.727-.42-.71-.395-.944-1.055-.885-1.77.062-.742.176-1.44.134-2.255-.1-1.98-.114-3.958-.002-5.937.097-1.696 1.115-1.443 2.443-1.754 1.4-.328 2.835-.401 4.255-.545 3.483-.351 6.931-1.098 10.418-1.4 3.368-.29 6.75-.165 10.126-.04l10.313.385c4.953.185 9.954.377 14.756 1.818 1.736.522 3.036.922 3.16 2.792a49.14 49.14 0 0 1 .07 5.228c-.03.755-.093 1.552-.559 2.176-.838 1.13-2.573 1.235-4.06 1.235-5.795-.01-11.59.007-17.385.046" fill="#d3e4ea"/><path d="M54.966 35.98c-.047.074-.1.148-.16.219-.698.815-1.946.79-3.02.716-12.573-.896-25.183.6-37.787.808-3.794.06-7.64 0-11.303-.992-.59-.158-1.196-.356-1.634-.78-.643-.624-.781-1.59-.848-2.486-.124-1.651-.447-3.97.06-5.57.293-.925.925-.935 1.798-.957 5.425-.137 10.872 0 16.298 0h34.699c.743 0 2.375-.416 2.763.413.157.335.144.723.125 1.094a75.498 75.498 0 0 1-.547 5.969c-.071.54-.16 1.107-.445 1.566" fill="#6e6f70"/><g fill="#5d5d5e"><path d="M9.517 34.74c-.65 0-1.297-.032-1.939-.127-.21-.032-.443-.085-.553-.265-.104-.172-.052-.405.072-.56.124-.16.304-.262.48-.36.615-.339 1.233-.681 1.896-.914 1.069-.37 2.207-.437 3.345-.437.312 0 .625.003.936.01.31.004.626.01.919.113.319.106.592.318.84.547.15.137.302.293.345.494.108.49-.456.846-.938.99-1.074.315-2.204.375-3.321.435-.693.039-1.388.074-2.082.074M41.763 34.82c-1.121 0-2.24-.032-3.35-.127-.362-.032-.765-.085-.955-.265-.144-.137-.115-.314.011-.458.204.032.382.056.53.077 2.36.346 5.37.547 8.108.674-.25.01-.5.018-.749.025-1.196.039-2.397.074-3.595.074M25.928 33.74a40.89 40.89 0 0 1-2.873-.088c-.31-.021-.657-.056-.82-.184-.155-.12-.077-.278.107-.388.108-.067.245-.116.393-.162a.718.718 0 0 0 .24.064c.165.02.334.024.504.024.343 0 .692-.024 1.024-.024h6.731l2.61.42c-1.564.204-3.206.246-4.831.289-1.027.024-2.057.049-3.085.049"/></g><path d="m55.936 28.85.022-.41.002-.045h.054s-.025.17-.078.455" fill="#e1dbd7"/><path d="M52.326 34.96h-.075c-1.33-.06-3.621-.12-6.147-.24 1.684-.053 3.373-.137 4.989-.409.833-.145 1.808-.501 1.621-.991-.075-.201-.336-.357-.596-.494-.43-.23-.9-.441-1.451-.547-.507-.102-1.052-.106-1.588-.113-.537-.007-1.077-.01-1.616-.01-1.965 0-3.932.066-5.778.437-1.147.233-2.214.575-3.276.914-.304.098-.616.2-.83.36a.606.606 0 0 0-.113.102c-.818-.124-2.07-.321-3.625-.568.03-.007.061-.01.09-.014.716-.1 1.552-.346 1.393-.688-.066-.138-.289-.247-.512-.342a5.207 5.207 0 0 0-1.24-.378c.012-.65-.065-1.337-.065-1.95 0-.22.006-.435.016-.65v-.004a2.258 2.258 0 0 0 1.228.208c.13-.017.269-.08.297-.226.071-.356.152-.726.216-1.1l20.695.137-.002.046-.023.41c-.28 1.488-1.332 6.11-3.607 6.11" fill="#696a6b"/><path d="M46.106 34.72c-2.737-.127-5.748-.328-8.108-.674-.148-.02-.325-.046-.53-.077a.606.606 0 0 1 .114-.103c.213-.158.526-.26.83-.36 1.06-.338 2.129-.68 3.275-.913 1.846-.37 3.813-.438 5.778-.438.54 0 1.08.004 1.617.011.535.007 1.08.01 1.587.113.55.106 1.022.317 1.451.547.26.137.521.292.597.494.186.49-.788.846-1.622.99-1.616.273-3.305.357-4.989.41M33.844 33.4c-.797-.127-1.672-.268-2.61-.42h.912c.18 0 .362-.007.543-.007.09 0 .179.004.267.007.167.01.277.039.355.039.113 0 .154-.06.2-.31.04-.233.058-.48.063-.73.47.073.874.222 1.24.377.224.095.447.204.512.342.16.342-.676.589-1.391.688-.03.004-.06.007-.091.014" fill="#59595a"/><path d="M22.526 31.58c-9.96-1.616-20.883-3.404-20.883-3.404l-.433-.138 19.81.13-.005.237c-.006.23-.04.533.146.71.19.179.424.214.675.25.168.02.336.035.503.035.092 0 .184-.004.275-.014v.17c0 .677-.05 1.35-.088 2.024m11.982-2.6a1.479 1.479 0 0 1-.67-.218.308.308 0 0 0-.263-.04l.01-.24a.895.895 0 0 0 0-.098l.007-.13 1.065.006c-.046.24-.096.48-.149.72m-11.899-.236c-.325-.007-.637.007-.958-.067-.015-.003-.01-.254-.003-.505l.894.007.062.335v.004l.005.226" fill="#696a6b"/><path d="M50.496 32.45c.162-.007.345-.074.47.028a.414.414 0 0 1 .1.145c.257.547.279 1.203.06 1.767-.523-.063-1.1.233-1.553-.032-.209-.123-.339-.345-.46-.553-.385-.674-.783-1.39-.755-2.163.269-.116.589-.106.85.021.461.23.775.808 1.288.787" fill="#736357"/><path d="m36.896 17.6-.046-.028-3.95-7.895L25.023.413c.07.776.404 4.397.604 5.57.096.569.244 1.245.4 1.96.208.953.423 1.938.525 2.714.149 1.134.527 4.862.531 4.9l-.042.051-.051-.042c-.004-.037-.382-3.764-.53-4.897-.103-.772-.317-1.755-.524-2.705a46.173 46.173 0 0 1-.402-1.966c-.224-1.313-.614-5.68-.618-5.724l.03-.047L25 .24l7.977 9.386 3.957 7.904-.021.063-.017.007" fill="#96928c"/><path d="M26.97 15.53c-.031-.053-.133-.03-.17.025-.037.055-.029.121-.02.182l.062.393c.024.158.08.346.253.375.153.026.31-.104.353-.244.044-.14.007-.282-.03-.417-.037-.136-.081-.282-.203-.365-.122-.083-.348-.058-.406.079l.161-.028" fill="#872942"/><path d="M26.957 17.17a.271.271 0 0 1-.192-.06c-.096-.075-.134-.186-.096-.284a.063.063 0 0 1 .117.044c-.022.055.016.11.055.14.04.03.102.054.15.02.052-.037.081-.11.09-.229a1.576 1.576 0 0 0-.083-.646.062.062 0 0 1 .037-.08.063.063 0 0 1 .08.039 1.7 1.7 0 0 1 .091.698c-.008.1-.032.24-.142.32a.2.2 0 0 1-.107.038" fill="#872942"/><path d="m43.636 22.31-.07-.028A757.299 757.299 0 0 0 25.06.139a.08.08 0 1 1 .121-.105 761.254 761.254 0 0 1 18.51 22.146.08.08 0 0 1-.012.112l-.043.018" fill="#645645"/><path d="M38.382 16.8a.147.147 0 1 1-.185-.229.147.147 0 0 1 .185.229zm.369.37a.147.147 0 1 1-.117-.173c.079.015.131.092.117.173zm-1.04-.492a.147.147 0 1 1-.285.074.147.147 0 0 1 .285-.074zm.767 1.085a.148.148 0 0 1-.105.18.148.148 0 0 1-.074-.286.147.147 0 0 1 .179.106zm-1.034-.364a.148.148 0 0 1-.172.12.15.15 0 0 1-.117-.173.143.143 0 0 1 .171-.116c.08.014.132.092.118.17zm.264.544a.145.145 0 0 1-.207-.022.15.15 0 0 1 .022-.208.148.148 0 0 1 .207.025.144.144 0 0 1-.022.205zm.12-1.821c-.433.086-.916.666-1.009 1.076a1.05 1.05 0 0 0 .157.815c.308.452.977.582 1.459.328.481-.257.745-.843.668-1.384a.87.87 0 0 0-.166-.426c-.187-.233-.804-.47-1.108-.41" fill="#7b7c7c"/><path d="M40.942 18.1c1.366 1.789 2.733 3.574 4.1 5.359.044.06.092.123.112.187.028.088-.014.137-.056.176-.197.18-.405.346-.623.497l-2.967-3.982c-.3-.403-1.004-1.168-1.136-1.595-.155-.497.313-.526.57-.642" fill="#403f44"/><g fill="#6f504f"><path d="M40.246 18.39c-.116.12-.231.24-.347.356a.324.324 0 0 0 .182.166c.387-.26.772-.522 1.159-.783.053-.127-.093-.268-.232-.265-.139.004-.258.096-.365.184l-.412.338.015.004M42.626 21.51l-.347.356a.337.337 0 0 0 .182.166c.387-.26.772-.522 1.159-.783.053-.13-.093-.268-.232-.265-.139.004-.258.096-.365.184l-.412.338.015.004M44.456 24.05l-.347.356a.324.324 0 0 0 .182.166l1.159-.783c.053-.13-.093-.268-.232-.265-.139.004-.258.096-.365.184l-.412.338.015.004"/></g><g fill="#645645"><path d="m32.965 9.33-.283.321a.353.353 0 0 0-.093.155c-.012.06.018.132.077.145.043.009.086-.015.123-.04.092-.06.18-.13.26-.206.032-.03.064-.064.073-.106.021-.102-.093-.176-.188-.217l.031-.052M28.122 3.54l-.282.321a.353.353 0 0 0-.094.155c-.012.06.018.132.078.145.043.009.085-.015.122-.04.093-.06.18-.13.26-.206.032-.03.064-.063.073-.106.021-.102-.092-.176-.188-.217l.031-.052M25.157.01l-.283.322a.352.352 0 0 0-.093.154c-.012.06.018.133.078.145.042.009.085-.015.122-.039.092-.06.18-.13.26-.206.032-.03.064-.064.073-.107.021-.102-.093-.175-.188-.217l.031-.052"/></g><path d="M41.728 23.43c.557.106 1.138-.141 1.552-.53.414-.387.683-.902.901-1.424.306-.734.53-1.503.662-2.286-.642-.36-1.528-.201-2.005.36-.205.24-.334.532-.46.821-.422.974-.854 2.018-.65 3.059" fill="#edd5be"/><path d="M52.106 26.68c-.07-.07-.18-.085-.279-.095a10.061 10.061 0 0 0-3.581.342l1.194 5.846c.499-.191 1.161.109 1.542-.262.134-.133.195-.32.25-.5.511-1.64 1.027-3.32.962-5.035-.004-.105-.014-.222-.088-.296" fill="#6087a2"/><path d="M54.276 26c-1.714-.106-4.974-.053-7.35-.053h-14.01c-5.584 0-11.168-.018-16.752-.025-2.829 0-5.658 0-8.486.007H6.413a91.924 91.924 0 0 0-2.818.018c-.419.01-.885.007-1.358.007-.698-.004-1.409-.007-1.997.032.053.353.168.702.345 1.051.11.219-.052.561 1.09.66.932.077 2.56.017 3.576.017H55.136c.382-.455.487-.931.694-1.393.034-.078.063-.159-.11-.226-.285-.113-.967-.067-1.444-.095" fill="#7e7f7e"/><path d="M49.466 12.15c.51-.28.813-.941.86-1.487.052-.591-.102-1.18-.279-1.747-.235-.757-.65-1.618-1.435-1.725-.427-.058-.843.134-1.23.321-.335.162-.69.343-.87.668-.35.637.328 2.078.49 2.754.056.233.115.474.26.665.28.365 1.245.698 1.708.686.182-.005.348-.054.496-.135" fill="#edd5be"/><path d="M46.686 7.8c.017.276.037.564.176.803.14.24.437.41.696.314.183-.068.32-.254.514-.264.293-.016.433.348.485.636a.834.834 0 0 1 .61-.568c.428.2.478.781.444 1.253-.046.643.172 1.47.838 1.194.782-.323 1.342-1.487 1.407-2.275.077-.936-.294-1.878-.903-2.593a2.314 2.314 0 0 0-.493-.454c-.707-.458-1.957-.204-2.71.083-.924.353-1.606 1.394-1.895 2.298a.903.903 0 0 0-.058.382c.037.303.352.51.656.531.305.022-.05-1.225.233-1.34" fill="#afafaf"/><path d="M51.336 7.53a.102.102 0 0 1-.091.111c-.267.026-.53.04-.787-.043h-.004c-.085.02-.166-.047-.129-.137.096-.23.3-.443.567-.437.277.007.412.26.443.506zm-.503-1.587c-.71-.516-1.73-.558-2.652-.408-.542.088-1.096.246-1.518.566a6.221 6.221 0 0 0-1.02-.003c-.47.038-.965.141-1.314.437-.348.296-.478.83-.167 1.139.251.25.677.27 1.058.274l1.922.022c1.038.217 2.137.239 3.217.255.271.005.542.01.813.013a.4.4 0 0 0 .176-.024c.075-.036.112-.113.14-.185.275-.743.004-1.607-.655-2.086" fill="#4a4e31"/><path d="M52.336 27.39c.536-.31 1.071-.727 1.233-1.323.254-.935-.483-1.82-1.164-2.505-.24-.243-.492-.493-.816-.603-.216-.077-.45-.08-.679-.085a33.205 33.205 0 0 0-4.771.3c-1.04.141-2.115.353-2.946.995-.83.639-1.322 1.831-.856 2.773.424.854 1.442 1.21 2.376 1.4 2.565.519 5.356.357 7.623-.952" fill="#6087a2"/><path d="M45.026 24.03c-.351-.575-1.096-.744-1.761-.857-.596-.106-1.248-.198-1.772.102-.577.335-.809 1.044-.93 1.7-.429 2.325-.053 4.717.322 7.056.056.346.145.74.457.9.482.25 1.007-.268 1.236-.762.503-1.08.6-2.304 1.01-3.422.424-1.157 1.189-2.233 1.215-3.468.016-.766.99-1.207.223-1.249" fill="#6087a2"/><path d="M52.216 24.98c3.086-.275 1.512-5.94 1.17-7.963-.131-.783-.268-1.58-.636-2.283a3.821 3.821 0 0 0-2.248-1.86c-1.2-.364-2.489-.112-3.717.142-2.335.484-3.446 2.707-4.203 4.834-.178.501-.288 1.168.15 1.468.222.155.514.148.77.233.542.176.875.74.962 1.302.087.564-.022 1.132-.094 1.696-.047.36-.075.745.084 1.07.436.892 2.933 1.192 3.818 1.336 1.256.202 2.524.141 3.785.04.055-.005.108-.008.16-.015" fill="#65627d"/><g fill="#333"><path d="M45.506 27.9a.417.417 0 0 0-.397.152c-.142.264 0 .606.24.783.238.18.545.233.84.275 1.527.23 3.076.37 4.617.261.585-.042 1.201-.134 1.66-.497.315-.25.539-.667.44-1.059-.089-.345-.414-.596-.76-.695-.346-.102-.714-.08-1.073-.056-1.843.12-3.686.236-5.529.356-.432.028-.967.138-1.076.554-.102.392.264.748.628.92.565.269-.199-.853.41-.994"/><path d="M50.486 35.5c-.489-1.288-1.167-2.505-1.892-3.672-.374-.604-.765-1.2-1.167-1.785-.401-.582-.808-1.19-1.286-1.715-.347-.377-.911.187-.646.59.37.56.818 1.082 1.217 1.622.4.547.787 1.1 1.164 1.665.769 1.15 1.481 2.336 2.264 3.475.126.183.426.032.346-.18"/><path d="M51.256 28.52c-.399.042-.633.36-.887.638-.22.24-.429.49-.633.745-.43.536-.841 1.086-1.245 1.64-.804 1.104-1.559 2.261-2.135 3.5-.108.233.225.469.384.25.77-1.048 1.524-2.106 2.36-3.1.422-.502.864-.981 1.326-1.444.232-.232.47-.455.702-.687.256-.258.653-.526.695-.91.036-.336-.2-.67-.567-.632"/></g><path d="M41.468 32.74c.162-.007.345-.07.47.032a.384.384 0 0 1 .1.144c.257.547.279 1.2.06 1.764-.523-.063-1.1.237-1.553-.031-.21-.124-.339-.343-.46-.554-.385-.67-.783-1.387-.755-2.16.269-.116.589-.109.85.022.461.23.775.808 1.288.783" fill="#736357"/><path d="m21.647 28.17-.627-.003.01-.448h.632l-.015.451" fill="#464545"/><path d="M22.395 25.94h-.788a.867.867 0 0 1 .413-.106c.13 0 .26.032.375.106" fill="#71777a"/><path d="M22.339 29.4c-.168 0-.335-.014-.503-.035-.252-.036-.485-.07-.676-.25-.186-.177-.151-.48-.146-.71l.006-.236.627.003c-.008.25-.012.5.003.504.321.074.634.06.958.067.004.212.005.427.006.643-.092.01-.183.014-.275.014" fill="#434343"/><path d="M21.662 27.72h-.631l.005-.25c.011-.47-.004-1.108.405-1.426a.859.859 0 0 1 .166-.105h.788a.653.653 0 0 1 .11.088c.035.032.052.07.057.11h-.066a.998.998 0 0 0-.312.034l.005.127a.211.211 0 0 0-.08-.014c-.205 0-.363.254-.404.452-.062.307-.038.631-.042.942l-.001.042" fill="#4d4c4b"/><path d="m35.266 28.26-.61-.004.037-.201c.02-.11.043-.222.067-.339h.582c-.019.18-.045.364-.076.544" fill="#464545"/><path d="M34.494 29.6c-.335 0-.66-.078-.967-.222.02-.219.036-.441.048-.66a.309.309 0 0 1 .264.039c.216.13.432.2.67.219.052-.24.102-.48.148-.72l.61.004c-.063.374-.144.744-.215 1.1-.029.145-.167.208-.297.226-.088.01-.175.014-.261.014" fill="#434343"/><path d="M35.343 27.72h-.582c.049-.24.095-.487.089-.72-.002-.077 0-.345-.083-.388-.106-.056-.221-.067-.337-.088-.184-.032-.333-.088-.435-.25-.054-.089.027-.184.109-.184.028 0 .055.01.078.04.117.133.326.098.488.112.12.007.228.042.333.102.256.145.358.364.369.656.009.237-.004.477-.029.72" fill="#4d4c4b"/><path d="M22.541 27.24c.061.77.073 1.531.073 2.307 0 .752-.062 1.5-.1 2.248-.028.54-.198 1.11.462 1.185.494.056 1.03 0 1.527 0h7.644c.268 0 .542-.014.81 0 .412.024.479.151.553-.272.147-.836 0-1.83 0-2.681 0-.931.114-1.834.116-2.759l-11.085-.028" fill="#d9924e"/><path d="M33.585 26.18c-.362-.102-1.05-.053-1.55-.053h-2.956c-1.179 0-2.357-.017-3.535-.021-.597-.003-1.194-.003-1.79.004-.088.004-.178 0-.268 0a4.086 4.086 0 0 0-.594.018c-.088.01-.187.01-.286.007a1.329 1.329 0 0 0-.422.035c.012.35.036.702.073 1.051.024.219-.011.558.23.656.197.078.54.018.755.018H33.766c.081-.455.103-.931.147-1.394.007-.077.013-.158-.023-.225-.06-.11-.204-.064-.305-.096" fill="#ebefeb"/><path d="M22.594 28.18h-.052l-.055-.3c.029.01.061.021.095.025l.012.275" fill="#616262"/><path d="M33.526 29.38v-.004.004M33.563 28.72l.021-.342a.92.92 0 0 1 .001.098l-.01.24c-.005 0-.008.004-.012.004m-10.959-.208v-.004l-.062-.335h.052l.01.339" fill="#5d5e5e"/><path d="M33.526 29.38c.01-.219.023-.437.037-.656.003 0 .007-.004.011-.004-.012.219-.028.44-.048.66" fill="#3e3e3e"/><path d="M33.485 29.78a62.329 62.329 0 0 0-.814-.06c-.337-.028-.696-.166-1.05-.205-.466-.052-.933-.102-1.4-.155l-4.971-.55c-.882-.099-1.764-.198-2.646-.293a34.938 34.938 0 0 0-.022-.614c.06.01.125.014.193.014.162 0 .338-.02.466-.02h9.914c.235.06.409.193.43.486l-.022.342c-.014.219-.027.438-.037.656v.004c-.012.13-.026.265-.04.395" fill="#b97e47"/><path d="M22.775 27.91c-.068 0-.134-.004-.193-.014a.428.428 0 0 1-.096-.025l7.09.01c.816.005 1.633.005 2.45.008h.002c.106 0 .228-.01.356-.018.128-.01.261-.018.391-.018.134 0 .264.007.38.036H23.24c-.128 0-.304.02-.466.02" fill="#c8cbc7"/><path d="M12.286 21.87c-.136.007-.28.01-.4-.042-.294-.13-.289-.49-.241-.773l.27-1.609c.017-.105.037-.215.11-.3.572-.663 2.802-.38 3.602-.345.795.035 1.59.074 2.385.11.15.006.305.013.438.073.284.124.384.424.446.695.125.544.215 1.094.269 1.648.014.144.016.314-.112.413-.086.067-.208.08-.321.088-2.124.162-4.305-.04-6.446.042" fill="#afaa97"/><path d="M18.534 20.29c.136-.004.279-.01.4.046.294.137.29.515.242.811l-.267 1.69c-.018.11-.037.226-.11.314-.572.692-2.803.395-3.602.356l-2.385-.116c-.15-.007-.305-.018-.44-.078-.283-.13-.383-.448-.445-.73a14.213 14.213 0 0 1-.271-1.729c-.015-.155-.017-.331.11-.433.087-.07.208-.085.322-.092 2.123-.17 4.305.046 6.446-.039" fill="#979585"/><g fill="#484849"><path d="M15.921 21.25c.467-.007.932-.039 1.398-.074l2.149-.148c.089-.24.135-.565-.14-.67a.755.755 0 0 0-.236-.04c-2.116-.109-4.237-.151-6.359-.13-1.013.01-1.69.113-1.473 1.002 1.562-.07 3.1.085 4.661.06M14.241 19.18c.043-.18-.007-.367-.024-.554-.016-.183.016-.395.169-.5a.567.567 0 0 1 .252-.078 4.91 4.91 0 0 1 1.622.028c.093.017.193.042.255.113.053.06.068.144.08.222.038.275.046.554.022.825-.14.043-.315.075-.41-.035-.108-.127-.02-.317-.045-.48-.043-.271-.38-.38-.653-.356-.272.028-.548.13-.811.056.037.187.075.385.03.568-.047.187-.202.36-.393.36-.04 0-.084-.014-.098-.05-.015-.034.04-.08.062-.049l-.058-.07"/><path d="M13.472 20.94c-.115-.025-.23.07-.268.18-.04.113-.021.236-.003.353l.112.723.666-.021c-.092-.24.016-.508.019-.766.002-.257-.23-.564-.46-.448l-.066-.021M17.229 20.86c-.198.028-.395.06-.593.092-.073.01-.154.024-.198.095-.035.056-.037.13-.036.201.004.29.04.579.108.857.25-.017.503.004.75.064a3.62 3.62 0 0 0 .01-1.26l-.041-.049"/></g><path d="M32.167 26.28c.063-.053.07-.145.07-.226.009-.469.017-.938 0-1.404-.012-.338.07-.973-.289-1.157-.14-.074-.3-.085-.457-.095-.288-.018-.58-.032-.862.028a.831.831 0 0 0-.347.155c-.244.198-.107.515-.086.787l.133 1.669c.006.077.016.158.074.208.047.042.113.05.174.052.465.043.934.057 1.4.036.067-.003.14-.01.19-.053" fill="#a78e41"/><path d="M30.328 23.69c-.033.046.035.099.114.127.189.067.44.067.673.063.21-.004.418-.004.628-.007.118 0 .262-.01.31-.063.033-.039 0-.085-.058-.116a.903.903 0 0 0-.217-.06c-.43-.078-.928-.117-1.325-.004-.052.014-.105.031-.125.06" fill="#ebefeb"/><path d="M30.792 23.82a.29.29 0 0 1-.165-.039l-.034-.074.037-.035a.32.32 0 0 1 .17-.042c.076 0 .154.017.225.042l.064.035.018.067c-.014.032-.057.039-.092.039-.063.004-.125.004-.187.004-.012 0-.024.004-.036.004" fill="#c3c7c3"/><path d="M31.29 25.46a.519.519 0 0 1-.18-.039.45.45 0 0 1-.155-.08c-.08-.075-.086-.184-.088-.283-.005-.244-.001-.505.169-.706a.207.207 0 0 1 .116-.077l.085.004c.131.024.262.08.316.18.033.06.034.127.034.194v.338c0 .127-.002.258-.086.367a.276.276 0 0 1-.148.095c-.021.007-.042.007-.063.007" fill="#c4b788"/><path d="M30.664 23.64c-.042-.081-.085-.183-.168-.233a.116.116 0 0 0-.16.057c-.034.08.094.169.144.211.046.039.14.06.154-.021l-.014-.028-.02-.018h-.02l.006-.01-.028-.022-.064.053-.057-.046c-.043-.038-.104-.12-.015-.148.103-.032.18.148.225.215l.017-.01" fill="#e6e6e7"/><path d="M24.064 22.51a.465.465 0 0 1-.04.233.268.268 0 0 1-.08.085zm1.16 1.697.027-.512a1.647 1.647 0 0 0-.013-.426c-.053-.251-.217-.441-.357-.643-.323-.458-.22-1.114-.216-1.679 0-.063 0-.127-.027-.176-.064-.12-.469-.138-.547-.053-.127.138-.055.91-.063 1.118-.005.145-.013.3-.079.427-.047.092-.12.155-.18.236-.218.286-.249.699-.262 1.083-.026.727-.027 1.461-.003 2.188.006.197.025.42.157.54.082.073.191.091.295.105.2.028.403.057.6.014a.685.685 0 0 0 .494-.367c.078-.158.09-.345.1-.529l.073-1.326" fill="#403f44"/><path d="M23.471 24.03c.328.039.656.081.983.12.2.025.409.05.6-.018l.028-.042c.02.293.002.59-.056.878a2.21 2.21 0 0 1-1.546-.158l-.009-.78" fill="#bbbcbf"/><path d="M11.971 26.55c.12-.004.26.003.326.102.05.074.037.17.023.258l-1.05 6.438c.467.123.954.166 1.434.123l2.487-7.912c.115-.367.231-.748.17-1.13-.078-.486-.44-.885-.84-1.178-1.044-.762-2.39-.987-3.682-1.001-1.293-.011-2.585.162-3.877.102-1.178-.057-2.464-.282-3.453.36-.457 1.245.084 2.78 1.22 3.464.951.571 2.133.55 3.242.515 1.333-.05 2.667-.095 4-.141" fill="#989b79"/><path d="M7.971 33.27a6.116 6.116 0 0 1 1.642-.116l.083-8.298c-.864.032-1.73.004-2.59-.084l.865 8.498" fill="#989b79"/><path d="M12.459 32.55c-.25.162-.5.321-.751.483-.09.06-.18.117-.269.173-.154.102-.322.219-.36.399-.031.151.043.31.16.413a.906.906 0 0 0 .419.186 2.04 2.04 0 0 0 2.129-.92.399.399 0 0 0 .064-.17.3.3 0 0 0-.013-.102c-.083-.289-.392-.448-.679-.54-.146-.045-.304-.088-.453-.049a.85.85 0 0 0-.247.127M9.122 31.99c-.25.162-.5.325-.751.483-.09.06-.18.117-.269.177-.154.098-.322.215-.36.395-.031.151.043.31.16.413a.95.95 0 0 0 .419.19c.807.173 1.705-.215 2.129-.924a.401.401 0 0 0 .064-.17.315.315 0 0 0-.013-.102c-.083-.289-.392-.444-.679-.54-.146-.045-.304-.088-.453-.045-.09.02-.169.074-.247.123" fill="#403f44"/><path d="m9.382 30.77-.033.053a43.63 43.63 0 0 0-1.148-1.457c-.216-.265-.433-.533-.658-.79 1.106.05 2.216.042 3.314-.081-.128.176-.251.356-.373.536a43.66 43.66 0 0 0-1.102 1.739zm4.09-4.089c-.118-.338-.464-.56-.817-.631-.353-.07-.717-.018-1.073.035-.58.088-1.159.177-1.738.261-.803-.257-1.526-.783-2.261-1.224-.932-.557-2.088-.998-3.082-.557-.64.649-.675 1.665-.67 2.579 0 .155.002.317.073.455.076.148.22.246.367.32.344.177.724.248 1.112.272.12.095.26.173.398.223.183.07.225.014.215-.1l.032.022a.933.933 0 0 0 .16.078c.415.525.901 1.005 1.342 1.51a43.539 43.539 0 0 1 1.378 1.654c-.523.917-.996 1.87-1.358 2.86-.088.24.264.445.404.216.491-.8.974-1.608 1.486-2.395.644.832 1.273 1.679 1.94 2.494.142.173.427-.007.33-.208-.502-1.048-1.132-2.029-1.81-2.974.049-.067.096-.138.144-.205.377-.536.778-1.051 1.2-1.552.21-.25.429-.494.64-.744.222-.265.57-.55.61-.91.232-.092.446-.216.628-.389.294-.278.48-.709.349-1.09" fill="#333"/><path d="M11.477 6.6a.885.885 0 0 1 .285.07c.269.128.368.455.426.747.085.426.141.865.08 1.296-.062.43-.254.856-.593 1.127-.44.352-1.045.397-1.609.402-.164.001-.334 0-.487-.06-.188-.072-.335-.226-.444-.396-.325-.502-.363-1.134-.348-1.732.005-.198.016-.403.104-.58.117-.238.353-.392.59-.51a3.633 3.633 0 0 1 1.594-.386c.134 0 .269.007.402.022" fill="#edd5be"/><path d="M10.377 4.93c-.422-.044-.852-.06-1.265.031a2.522 2.522 0 0 0-1.628 1.202c-.346.61-.562 2.01-.014 2.56l.885.887c.204.204.45.424.737.396.162-.016.304-.11.439-.202l.6-.407c.21-.143.424-.29.576-.494.337-.45.027-1.05.655-1.339.291-.134.626-.126.946-.105.08.005.165.01.235-.028.127-.068.15-.238.145-.382a2.205 2.205 0 0 0-1.343-1.908c-.307-.125-.638-.177-.968-.211" fill="#bbbcbf"/><path d="M8.702 6.68c-.078-.066-.306-.034-.398-.03-.152.005-.305.017-.457.019-.332.004-.331-.51 0-.515.396-.005.889-.118 1.219.162.253.215-.113.577-.364.364zm2.648-2.015c-.466-.423-1.073-.669-1.694-.767-.342-.053-.695-.063-1.03.022-.584.149-1.07.584-1.362 1.11-.292.527-.406 1.138-.415 1.74-.002.148.003.303.073.432.323.597 1.693.412 2.23.447.246.016.494.033.738 0 .682-.09 1.56-.571 2-1.109a.842.842 0 0 0 .146-.262c.19-.557-.26-1.227-.686-1.613" fill="#662e2a"/><path d="M10.23 6.06c.082-.243.227-.46.37-.672.134-.199.274-.403.475-.533.108-.07.23-.116.354-.155a4.02 4.02 0 0 1 1.043-.187.752.752 0 0 1 .28.026c.099.034.18.104.25.181.403.443.434 1.177.071 1.654-.312.41-.833.595-1.33.728-.354.095-.719.176-1.084.144a.637.637 0 0 1-.235-.056c-.21-.108-.276-.377-.275-.613.001-.175.026-.35.081-.517" fill="#662e2a"/><path d="M13.266 22.58c.233-.102.38-.346.43-.596.049-.25.015-.508-.022-.762a22.795 22.795 0 0 0-.897-3.768c-.094-.286-.196-.571-.378-.807a1.442 1.442 0 0 0-1.536-.482c-.078.025-.16.06-.202.13-.044.073-.036.165-.026.249.201 1.707.685 3.373 1.296 4.981.114.3.238.603.463.83.225.225.58.355.872.225" fill="#edd5be"/><path d="M11.351 21.11a23.946 23.946 0 0 0-.615-3.704c.79-.208 1.58-.42 2.37-.63.408-.108.209-2.217.155-2.523a5.347 5.347 0 0 0-1.097-2.436c-1.259-1.548-3.848-1.972-5.613-1.03-.628.335-1.134.863-1.56 1.434-1.912 2.56-2.316 5.912-2.577 9.097-.113 1.387.196 1.912 1.454 2.127 1.482.254 2.88.533 4.398.455 1.2-.063 2.593-.437 2.993-1.51.152-.405.129-.85.092-1.28" fill="#e0c74e"/><path d="M15.412 18.93c.391-.444.812-.875.96-.766.17.127.11.4.186.597a.3.3 0 0 1 .362.02.294.294 0 0 1 .056.357c-.05.088-.14.141-.225.194-.83.53-1.37 1.365-1.948 2.138-.352.473-1.034 1.63-1.74 1.496a1.05 1.05 0 0 1-.814-.84c-.096-.603.356-1.16.868-1.489.51-.331 1.107-.525 1.578-.913.128-.103.414-.452.717-.794" fill="#edd5be"/></svg>