<svg viewBox="0 0 58.305 56.986" xmlns="http://www.w3.org/2000/svg"><path d="M10.366 38.779a26.245 26.245 0 0 0-.155-.91 30.179 30.179 0 0 0-.335-1.596c-.078-.321-.166-.638-.261-.953-.075-.257-.134-.579-.272-.8-.152-.252-.427-.21-.66-.181-.296.037-.589.105-.885.148l-.05.016-.007.001a.495.495 0 0 0-.293.236.938.938 0 0 0-.225.41 1.85 1.85 0 0 0-.025.557c-.07.422-.392.847-.444 1.272-.082.634-.142 1.27-.173 1.91-.018.31-.043.687.289.776.13.035.272.037.413.024a.695.695 0 0 0 .275.127c.494.11 1.27.012 1.77 0 .392-.01.943.015 1.056-.547.038-.2.01-.291-.018-.49" fill="#4d4d4d"/><path d="M8.845 26.229c-.004-2.912-.018-5.823-.039-8.734-.01-1.633-.035-3.266-.039-4.9 0-.456-.55-.456-.54 0 0 .17.004.341.008.511-.134 1.286-.13 2.595-.113 3.888.021 1.428.099 2.853.123 4.28.05 2.9-.063 5.806-.127 8.704a567.554 567.554 0 0 0-.091 4.903c0 .157.08.26.183.314a.567.567 0 0 0 .423.04c.103-.025.184-.177.18-.309-.024-1.455.018-2.912.025-4.367.007-1.444.01-2.887.007-4.33" fill="#4d4d4d"/><path d="M9.099 4.779a.268.268 0 0 0-.194-.149c-.134-.024-.268.04-.3.168l.092-.002.402-.017" fill="#fff"/><g fill="#f2f8fc"><path d="M8.933 10.839a40.01 40.01 0 0 0 .48-4.202 7.86 7.86 0 0 0-1.277-.084c.06 1.415.13 2.837.091 4.254.237.002.473.014.706.032M9.554 6.539l.007.036a38.677 38.677 0 0 1-.476 4.277c.19.016.377.036.564.057-.017-.342.092-.729.152-1.061.07-.371.148-.74.236-1.107.177-.726.385-1.444.621-2.152-.12-.006-.24-.019-.36-.024-.247-.01-.497-.019-.744-.026M7.512 10.829c.212-.019.43-.026.65-.025-.103-1.428-.117-2.864-.174-4.295a51.64 51.64 0 0 1-1.206-.02c.409 1.411.5 2.896.663 4.35l.067-.01"/></g><path d="M6.781 6.489c.402.013.804.017 1.206.02.057 1.43.071 2.866.173 4.294-.218 0-.437.007-.649.025l-.067.01C7.282 9.385 7.19 7.9 6.781 6.49zm1.355.06c.427-.006.853.021 1.277.084a40.004 40.004 0 0 1-.48 4.202 10.91 10.91 0 0 0-.706-.032c.04-1.416-.031-2.839-.091-4.254zm1.901 2.188a23.53 23.53 0 0 0-.236 1.107c-.06.332-.17.719-.152 1.061a19.058 19.058 0 0 0-.564-.057c.24-1.415.395-2.844.476-4.277l-.007-.036c.247.007.497.016.744.026.12.005.24.018.36.024a26.743 26.743 0 0 0-.62 2.152zm-.148 2.35c.095.011.095-.142 0-.154l-.18-.02c.064-.17.081-.36.113-.536l.116-.572a26.702 26.702 0 0 1 .86-3.218l.082-.004c.089-.007.177-.032.23-.108.134-.197-.096-.368-.272-.394a2.974 2.974 0 0 0-.215-.024c-.07-.303-.18-.656-.49-.793a.758.758 0 0 0-.255-.059c-.035-.168-.105-.334-.278-.403-.11-.045-.237-.035-.353-.03a.403.403 0 0 0-.42-.27c-.14.015-.328.143-.307.295-.19.001-.405.01-.54.122-.105.085-.151.235-.08.347-.198.006-.403.004-.593.06-.268.084-.498.34-.402.625-.237-.004-.533.014-.625.236-.078.186.06.422.272.379.046-.01.06-.048.053-.083l.098.003v.006c.353 1.415.434 2.904.593 4.35l.018.046c-.081.058-.103.154-.036.287l.004.01c.141.272.166.597.37.839.695.83 2.28.19 2.24-.848l-.007-.09h.004" fill="#4d4d4d"/><path d="M57.311 41.079c-.847-.491-1.873-.42-2.84-.337-1.478.13-2.96.258-4.441.387l-46.927-.525c-1.228.28-2.551 1.275-2.368 2.575.131.914.97 1.54 1.81 1.821.843.281 1.746.333 2.565.681.25.106.522.291.526.572.007.288-.268.483-.501.63a11.815 11.815 0 0 0-2.798 2.445c-.275.328-.55.736-.462 1.162.124.6.836.792 1.418.859 5.63.643 11.331.513 16.93 1.408.674.108 1.383.248 1.895.715.515.467.726 1.374.264 1.895-2.363 2.703 12.481 1.204 18.785 1.168 4.318-.024 8.823-2.163 12.94-3.526.526-.173 1.157-.567 1.04-1.131-.172-.835-1.763-.788-1.689-1.639.025-.287.261-.498.49-.659.685-.476 1.461-.792 2.135-1.279.677-.486 1.27-1.213 1.312-2.07.032-.686-.275-1.447.088-2.018.145-.226.374-.377.54-.584.628-.773.134-2.059-.713-2.55" fill="#ebefeb"/><path d="M58.271 41.679c-12.915-.044-22.038.017-32.791.002L.412 41.645c-.512-.668-.6-1.494.056-2.161 19.226-.044 37.895.048 57.721.013.142.714.138 1.468.082 2.182" fill="#696969"/><path d="M33.571 36.649c.155.1.261.258.367.407a5.17 5.17 0 0 0 1.637 1.457c.123.07.254.138.338.25.11.141.135.331.103.506-.088.536-.632.911-1.175.953-.543.043-1.072-.18-1.538-.461-.653-.395-1.238-.916-1.662-1.552-.331-.496-.712-1.263.07-1.432.495-.106 1.405-.423 1.86-.128" fill="#998675"/><path d="M33.781 10.399c.677.486 1.355.973 2.028 1.46.385.274.773.553 1.221.695.501.16 1.037.14 1.563.171 1.393.085 2.734.554 4.025 1.08.279.113.572.241.748.486s-.11.598-.367.757l-2.434-.39c-2.092-.336-4.629-.4-6.583-1.226-.522-.221-1.03-.476-1.538-.73-.72-.362-1.404-1.402-1.076-2.396.37-1.113 1.824-.332 2.413.093" fill="#eadacc"/><path d="M30.581 20.249c.363.327.62.749.875 1.165l2.222 3.637c.364.6.738 1.213.907 1.896.208.838.095 1.717-.014 2.573-.243 1.856-.49 3.711-.734 5.567-.085.66-.18 1.347-.547 1.903-.367.556-.92.583-1.541.342-.455-.178-.452-.256-.547-.736-.095-.48-.025-.976.05-1.46.377-2.364.553-6.033-.794-8.012-.477-.698-1.14-1.241-1.736-1.839-.963-.965-1.93-1.096-2.526-2.322-.71-1.467-.504-2.255.893-2.92 1.114-.532 2.5-.69 3.492.206" fill="#333"/><path d="M24.681 11.379c.882-1.263 1.997-2.556 3.517-2.79.875-.133 1.76.11 2.61.35.816.229 1.712.52 2.128 1.256.176.314.243.678.268 1.038.113 1.832-2.339 3.35-2.811 5.124a9.764 9.764 0 0 0-.325 2.84c.021.67 1.542 1.63 1.037 2.069-.398.346-1.009.328-1.5.13-.486-.196-.899-.541-1.347-.818-1.33-.82-3.03-1.006-4.512-.524-.935.303-2.702 1.786-3.083.15-.296-1.26.677-2.924 1.192-3.991a34.3 34.3 0 0 1 2.826-4.834" fill="#5e625e"/><g fill="#333"><path d="M20.221 22.109c-.081.613.039 1.306.515 1.704.36.303.871.381 1.337.315.47-.066.907-.26 1.34-.453 1.07-.476 2.135-.952 3.204-1.429.84-.374 1.757-.83 2.074-1.693.296-.815-.095-1.783-.804-2.288-.706-.506-1.651-.593-2.494-.383-.473.118-.921.321-1.358.534-.918.447-1.845.931-2.696 1.503-.786.53-.987 1.23-1.118 2.19"/><path d="M26.481 31.679c-.01.082-.021.173-.088.228-.067.056-.166.059-.258.058-.536-.002-.734.002-1.27 0-.218 0-.465-.013-.61-.166-.134-.14-.13-.349-.113-.535.162-1.685.47-3.347.318-5.033-.092-1.008-.47-1.976-.635-2.976-.166-1-.085-2.113.617-2.887.674-.741 2.498-1.654 3.542-1.09 1.1.597.67 2.513.543 3.459-.406 3.032-1.683 5.902-2.046 8.942"/><path d="M20.161 21.359c-.183.693-.25 1.478.134 2.085.198.311.494.546.804.741.875.547 1.888.827 2.904 1.002.92.159 1.99.192 2.656-.463.596-.587.65-1.576.304-2.337-.346-.762-1.02-1.328-1.729-1.771-.977-.61-2.106-1.024-3.27-1.006-1.224.018-1.496.597-1.803 1.749"/></g><g fill="#eadacc"><path d="M25.191 12.039c.434-.166.868-.341 1.249-.61.525-.371 1.058-.746 1.506-1.207.452-.462.822-1.02.963-1.65a2.734 2.734 0 0 0-1.245-.143c-1.316.153-2.342 1.227-2.995 2.378-.177.311-.565 1.232-.812 1.81-.222.53.865-.4 1.334-.578"/><path d="M18.79 2.499c.483.208.967.708 1.411.983 1.26.776 2.388 2.132 3.55 3.049 1.12.886 2.42.773 3.619 1.551.243.158.5.363.525.652.014.137-.032.272-.08.4-.216.564-.551 1.105-1.052 1.44-.505.335-1.196.426-1.715.114-.204-.123-.37-.3-.536-.473l-3.57-3.797c-.5-.532-1.005-1.067-1.595-1.501-.525-.39-1.33-1.321-1.848-1.725-.459-.36-1.955-1.136-1.478-1.819.448-.638 2.219.887 2.769 1.126M29.411 9.799c-.138.249-.258.51-.303.79-.046.28-.004.583.158.815.106.149.254.262.413.352.579.33 1.312.38 1.92.104.606-.275 1.061-.875 1.132-1.537.028-.24-.004-.507-.18-.673a.992.992 0 0 0-.286-.168l-1.09-.485c-.296-.132-.935-.443-1.26-.228-.222.15-.366.777-.504 1.03"/><path d="M31.421 3.659c-.321.102-.65.219-.907.44-.32.28-.49.693-.61 1.101a7.564 7.564 0 0 0-.286 1.707c-.042.787.04 1.617.473 2.275.437.658 1.295 1.081 2.036.814.677-.244 1.058-.95 1.34-1.613.233-.553.441-1.117.625-1.69.127-.404.243-.82.243-1.245 0-.446-.124-.886-.314-1.291-.49-1.056-1.68-.788-2.6-.498"/></g><path d="M28.411 4.169c-.145.409-.29.842-.201 1.267.095.469.47.865.483 1.344.004.202-.056.41.01.602.05.152.17.267.29.377.279.263.561.527.843.79-.039-.332-.074-.672.003-.996.064-.273.212-.526.244-.806.028-.235-.029-.472-.085-.702.035-.068.141-.042.198.01.056.053.105.127.183.133.106.008.17-.113.201-.213.148-.43.339-.9.755-1.084.258-.115.56-.093.829-.003.272.09.515.241.758.383.523.303 1.09.576 1.694.576.603.001 1.242-.344 1.404-.925-.29-.051-.508-.295-.646-.556-.134-.26-.211-.55-.349-.81-.261-.498-.73-.855-1.21-1.152-.642-.396-1.355-.72-2.106-.753-.755-.034-1.556.27-1.965.903-.042.067-.081.138-.141.192-.219.199-.702.063-.854.333-.063.114-.07.324-.116.453l-.223.637" fill="#3b3f42"/><path d="M30.111 8.169c.092.291.3.528.466.782.148.222.271.468.476.639s.526.247.737.085c.06-.045.106-.105.173-.14.064-.035.159-.033.198.03l.031.073c.064.095.226.012.321.074.043.136-.109.25-.243.3a1.774 1.774 0 0 1-1.492-.125c-.65-.376-.985-1.114-1.253-1.813-.067-.178-.053-.467.201-.465.28.003.325.366.385.56" fill="#3b3f42"/><path d="M15.989 2.113c-.258-.097-.547-.134-.773-.298-.19-.138-.314-.355-.518-.473-.208-.122-.512-.154-.593-.382a.542.542 0 0 1-.017-.238c.014-.155.035-.313.109-.451.07-.138.201-.255.356-.27.124-.011.244.042.356.097.854.425 1.584 1.066 2.255 1.748.042.044.084.09.11.146.038.096.017.207-.026.302-.098.223-.324.504-.543.325-.24-.197-.413-.393-.716-.506" fill="#eadacc"/><path d="M16.398 2.128c-.046.063-.095.125-.116.2-.036.119.017.248.102.338.085.09.197.146.31.2.205.1.417.198.642.215a.412.412 0 0 0 .226-.035.49.49 0 0 0 .148-.139c.18-.236.307-.51.37-.8.018-.082.033-.167.018-.249-.035-.163-.172-.28-.307-.38-.225-.17-.712-.547-.998-.303-.106.09-.123.252-.152.379a1.56 1.56 0 0 1-.243.574" fill="#aa6a64"/><path d="M26.211 31.469c.402.035.776.225 1.094.473.137.104.264.222.423.283.18.067.384.06.543.163.212.137.275.433.205.675-.07.242-.247.44-.424.616-.264.257-.567.499-.927.562-.258.046-.522-.005-.78-.065-.293-.07-.59-.154-.85-.305-.261-.15-.494-.372-.603-.653-.367-.927.356-1.833 1.319-1.749" fill="#998675"/><path d="M21.031 29.989c.515.006 1.005.235 1.464.472 5.002 2.585 9.003 6.78 13.899 9.556.843.478 1.736.934 2.328 1.698s.508 2.463.096 3.338c-.561 1.191-2.456.988-3.606.56-2.628-.973-5.112-2.484-7.496-3.957-1.595-.984-3.027-2.336-4.66-3.258-.942-.533-1.983-1.34-2.805-2.157-3.147-3.132-2.455-6.288.78-6.252" fill="#999"/><path d="M22.861 36.379c.141.1.293.201.462.227.236.036.47-.08.667-.217.335-.232.624-.533.843-.879.106-.167.198-.364.159-.558-.032-.155-.145-.28-.25-.398-.389-.421-.773-.843-1.158-1.265-.144-.158-.296-.321-.494-.41-.345-.156-.755-.044-1.097.126-.487.243-1.534 1.044-1.365 1.715.081.317.68.575.928.748l1.305.91" fill="#878787"/><path d="M18.338 35.549c-.476.425-.18 1.517.582 1.969.794.47 1.464-.163 1.143-1.09-.3-.854-1.288-1.328-1.725-.879" fill="#736357"/><path d="M19.211 35.929c-.056-.017-.113-.034-.17-.034-.06 0-.12.021-.155.067-.045.058-.038.138-.031.21.007.092.017.184.024.275.007.08.015.161.05.233.07.158.247.242.416.282.117.026.247.034.335-.042a.313.313 0 0 0 .096-.212c.014-.2-.089-.379-.198-.539-.106-.16-.18-.183-.367-.24" fill="#615349"/><path d="M22.511 34.369c-.085-.228-.328-.247-.519-.147-.345.179-.666.455-.98.683-.55.396-.487.38-1.383.941l-.346.29c-.081.024-.166.176-.155.27l.01.104c.007.071.053.14.113.181.01.045.177.163.23.135.72-.391 1.213-.691 1.806-1.114.307-.218.6-.452.882-.7.183-.16.44-.366.342-.643" fill="#333"/><path d="M23.491 33.639c-.226-.307-.564-.504-.92-.603-.202-.056-.643.062-.717.266-.141.117-.127.349-.141.536-.025.39.187.757.437 1.045.184.214.413.41.688.445.364.048.73-.226.854-.592s.025-.79-.201-1.097" fill="#736357"/><path d="M22.841 33.409c-.088-.025-.201-.033-.258.04-.028.033-.035.075-.042.117a.853.853 0 0 0 .184.627c.144.172.36.282.582.298.08.006.176-.005.233-.065a.23.23 0 0 0 .052-.19c-.007-.067-.038-.13-.067-.19-.165-.314-.335-.54-.684-.637" fill="#615349"/><path d="M23.271 33.929c-.018-.085-.113-.126-.194-.153l.007.014c-.046-.038-.123-.034-.173.003a.204.204 0 0 0-.077.162.124.124 0 0 0 .028.097l.074.04a.363.363 0 0 0 .222.009c.07-.025.127-.099.113-.172" fill="#333"/><path d="m33.951 43.519 1.192.633a.537.537 0 0 0 .22.077c.154.01.285-.118.387-.238.388-.448.737-.928 1.044-1.434.043-.07.089-.15.074-.231-.017-.134-.162-.204-.285-.254a8.958 8.958 0 0 1-2.336-1.36c-.155-.126-.32-.262-.522-.27a.677.677 0 0 0-.31.078c-.505.23-1.274.998-1.284 1.597-.014.65 1.344 1.148 1.82 1.402" fill="#878787"/><path d="M30.731 43.519c-.53.474-.201 1.692.65 2.195.888.526 1.636-.181 1.273-1.215-.332-.952-1.436-1.48-1.923-.98" fill="#736357"/><path d="M31.701 43.939c-.064-.019-.127-.038-.19-.037-.064 0-.135.023-.173.074-.05.064-.043.154-.036.235.007.102.018.204.029.306.007.089.017.18.052.26.082.177.28.27.466.313.13.03.279.04.378-.046a.357.357 0 0 0 .102-.236c.014-.223-.099-.422-.219-.6-.12-.18-.2-.206-.41-.269" fill="#615349"/><path d="M35.381 42.199c-.092-.254-.363-.275-.575-.164-.385.2-.744.508-1.097.762-.61.442-.54.425-1.538 1.05l-.385.322c-.095.028-.187.197-.176.301l.01.117c.011.08.06.156.127.202.015.05.202.182.258.151.8-.437 1.351-.772 2.014-1.243.343-.243.67-.505.985-.781.204-.179.49-.409.377-.717" fill="#333"/><path d="M36.481 41.379c-.254-.342-.631-.562-1.03-.672-.226-.063-.716.068-.8.296-.156.13-.142.39-.156.598-.025.436.208.844.487 1.166.208.238.462.456.765.496.41.054.815-.253.953-.66.137-.409.032-.882-.219-1.224" fill="#736357"/><path d="M35.751 41.129c-.102-.028-.226-.036-.29.045a.278.278 0 0 0-.045.13.943.943 0 0 0 .204.699.933.933 0 0 0 .65.332c.091.006.194-.005.26-.072a.264.264 0 0 0 .057-.211c-.007-.075-.042-.145-.074-.212-.184-.35-.37-.602-.762-.711" fill="#615349"/><path d="M36.231 41.709c-.021-.095-.127-.14-.219-.17l.01.015c-.052-.043-.137-.038-.193.003a.235.235 0 0 0-.088.18.145.145 0 0 0 .031.11l.085.043a.402.402 0 0 0 .247.01c.078-.027.141-.109.127-.191M33.781 41.989a.216.216 0 0 0-.159.015c-.17.082-.222.353-.268.527a9.855 9.855 0 0 0-.324.954c-.053.18.204.356.335.194.028-.037.056-.072.08-.107a.149.149 0 0 0 .128-.13l.007-.051v-.007l.007-.032c.042-.082.08-.17.116-.276.095-.285.187-.571.282-.857.05-.148-.084-.243-.204-.23" fill="#333"/><path d="M54.371 44.569c.042-.291.046-.598-.067-.89l-.843.001-7.278.003c-10.054 0-19.819-.014-29.669-.014-3.129 0-6.265.001-9.42.005-2.761.002-2.75 2.286-2.75 2.286l-.015 3.814c-.007 1.636.018 3.024 0 4.99.275.008.564.008.84-.01v.01c.292.008.6.009.892-.013-.003-.326-.003-.65-.003-.97 0-1.867.014-3.685.01-5.518.004-.489.004-.978 0-1.47.04-.153.381-1.398 1.82-1.397l20.14.015c8.637.006 15.964-.02 26.343-.001a1.752 1.752 0 0 0-.053-.841h.053" fill="#97a8b2"/><path d="M43.351 14.099c.275.02.547.064.811.13.142.034.283.076.399.161.141.104.233.27.247.443.01.106-.021.23-.116.275a.332.332 0 0 1-.17.017 243.39 243.39 0 0 1-.695-.053.372.372 0 0 0 .145.219c-.194.06-.402-.019-.59-.095-.126-.053-.257-.105-.384-.158-.173-.07-.36-.154-.437-.323-.074-.164-.043-.603.151-.69.145-.062.48.062.639.074" fill="#eadacc"/><path d="M48.441 31.179c-.042-.152.176-.569.205-.725.028-.144.116-.263.2-.375a19.354 19.354 0 0 1 2.28-2.527c.169-.158.345-.315.55-.413.466-.223 1.048-.087 1.394.326.345.413.43 1.074.204 1.58-.212.47-.635.763-1.04 1.032-.378.252-1.165.542-1.542.793-.113.077-.233.158-.31.281-.096.152-.114.346-.12.531-.036.887.514 1.73.656 2.604.067.417.652 2.367.36 2.682-.297.32-.812-.087-.957-.38a22.365 22.365 0 0 1-1.157-2.99c-.247-.856-.529-1.547-.723-2.42" fill="#5e625e"/><path d="M46.631 29.619c-.339.445-.684.945-.71 1.531-.006.229.033.456.075.68.303 1.662.748 2.85 1.051 4.512.074.413.201.894.558 1.028.162.061.102-.136.275-.166.208-.038.458-.116.515-.346a.776.776 0 0 0 .004-.219c-.155-1.735-.208-2.83-.36-4.565-.018-.196.141-.435.194-.623.05-.184.353-.382.466-.527.48-.627.85-1.134 1.467-1.586.3-.22.618-.42.886-.694.264-.274.3-.602.317-1.005a1.345 1.345 0 0 0-.74-1.245c-.925-.444-.544-.05-1.14.577-.716.752-2.219 1.813-2.857 2.648" fill="#5e625e"/><path d="M48.251 18.909c.042.198.088.399.176.572.194.387.558.553.896.676.258.094.55.174.766-.006.187-.155.261-.456.384-.695.096-.182.22-.333.307-.52.194-.423.17-.97.092-1.472-.099-.634-.307-1.307-.737-1.64-.226-.176-.49-.237-.748-.252-.24-.015-.487.01-.699.138-.264.158-.462.467-.578.817-.282.84-.042 1.525.141 2.382" fill="#ffe0d6"/><path d="M47.941 17.109c-.046.3-.123.615-.328.812a.872.872 0 0 0 .38-.22c.026-.026.054-.055.09-.064.056-.012.108.035.144.087.035.053.06.115.106.155.08-.12.165-.239.247-.358l.067-.06.088.023c.19.11.374.23.554.361a.665.665 0 0 0 .007-.322c.098.01.183.092.257.17.124.134.25.267.378.4l.112-.439c.314.284.54.685.635 1.123a.696.696 0 0 0 .166-.318c-.06.39-.183.769-.363 1.11.219-.247.272-.63.487-.881.091-.11.215-.196.271-.336a.67.67 0 0 1-.046.416.64.64 0 0 0 .163-.616 1.267 1.267 0 0 0-.127-.274 3.374 3.374 0 0 0-.364-.549c-.109-.124-.24-.23-.338-.364-.155-.211-.24-.486-.417-.678-.123-.133-.282-.215-.437-.294-.18-.088-.36-.177-.55-.196a1.175 1.175 0 0 0-.55.104c-.142.057-.34.125-.431.27-.057.095-.064.238-.095.348-.05.194-.074.392-.106.59" fill="#443b36"/><path d="m48.951 16.889-.025.087c-.024.03-.067.028-.102.024a2.775 2.775 0 0 0-.614-.004c-.085.01-.176.066-.208-.039-.025-.079.032-.228.056-.3l.025-.041.05-.023c.186-.046.377-.064.567-.053a.43.43 0 0 1 .166.037c.05.026.096.077.106.14.007.057-.014.114-.021.172zm3.57.73c-.017-.052-.06-.085-.102-.113a1.985 1.985 0 0 0-.734-.295c-.134-.024-.42-.074-.628-.042.004-.21.035-.421.046-.632.014-.29-.028-.608-.219-.803a.942.942 0 0 0-.335-.2c-.593-.237-1.26-.311-1.852-.065a.997.997 0 0 0-.339.213c-.194.192-.278.483-.352.76l-.138.497c-.021.088-.085.249-.053.34.039.105.141.031.219.013.219-.053.44-.058.667-.063.243-.006.49-.01.73.035.148.027.296.075.444.118.332.095.667.164 1.006.234.046.01.102.017.144-.008.3.092.621.111.925.206.172.055.38.109.515-.025.042-.043.074-.11.056-.17" fill="#662e2a"/><path d="M47.591 37.019c.31-.07.617-.22.928-.153l.08.04.03.086.052.438c.007.04.01.08 0 .119-.014.05-.056.088-.099.12-.215.155-.497.173-.765.184l-1.835.08c-.155.007-.317.012-.458-.055-.65-.313.204-.728.515-.774.515-.075 1.044.03 1.552-.085M45.821 38.519l.007.03.021.013a.387.387 0 0 0 .12.022l.042-.007c.025-.013.043-.047.05-.079a.603.603 0 0 0 .025-.238l-.082-.017c-.045-.004-.158-.022-.194.026-.031.042.004.195.011.25" fill="#4d4d4d"/><path d="M45.521 38.689a.604.604 0 0 0-.116.29.64.64 0 0 0 0 .246c.038.178.19.32.366.37.173.05.367.014.526-.074a.505.505 0 0 0 .215-.2.46.46 0 0 0 .046-.238.608.608 0 0 0-.236-.43c-.208-.151-.618-.178-.801.036" fill="#97a8b2"/><path d="M46.071 38.899a.18.18 0 0 0-.176-.014l.01-.011c-.084-.002-.166.081-.155.167l.018.067a.219.219 0 0 0 .211.117.19.19 0 0 0 .166-.167.176.176 0 0 0-.074-.159" fill="#d0d4d0"/><path d="m46.001 38.989-.06-.019-.064.04.029.078.056.012.035-.01.014-.023-.01-.078" fill="#4d4d4d"/><path d="M45.181 38.389c.335.01.667.017 1.002.022.35.005.702.007 1.048-.034a.298.298 0 0 0 .11-.03c.03-.018.055-.055.048-.092-.004-.037-.038-.064-.074-.074-.035-.01-.074-.006-.113-.004-.176.012-.352-.01-.532-.019-.501-.026-.999.047-1.5.08-.052.004-.105.002-.095.07.007.057.053.08.106.08" fill="#8a8a8a"/><path d="m52.751 38.449.007.03.021.013a.387.387 0 0 0 .12.022l.042-.007c.029-.013.043-.047.05-.078a.603.603 0 0 0 .025-.239l-.082-.016c-.045-.004-.158-.022-.194.025-.031.042.004.195.011.25" fill="#4d4d4d"/><path d="M52.451 38.629a.605.605 0 0 0-.116.29.642.642 0 0 0 0 .246c.038.178.19.32.366.37a.72.72 0 0 0 .53-.074.517.517 0 0 0 .211-.2.46.46 0 0 0 .046-.238.607.607 0 0 0-.236-.43c-.208-.151-.618-.178-.801.036" fill="#97a8b2"/><path d="M52.991 38.839a.18.18 0 0 0-.176-.014l.01-.011c-.084-.002-.162.081-.155.167l.018.067a.219.219 0 0 0 .211.117.19.19 0 0 0 .166-.167.176.176 0 0 0-.074-.159" fill="#d0d4d0"/><path d="m52.931 38.929-.06-.019-.06.04.025.078.056.012.035-.01.014-.024-.01-.078" fill="#4d4d4d"/><path d="M52.081 38.329c.243.006.487.01.73.014.254.003.512.004.766-.028l.077-.022.04-.069-.057-.054-.081-.002c-.13.009-.261-.006-.388-.012-.367-.018-.73.037-1.097.063-.04.003-.075.002-.067.05.003.043.038.06.077.06" fill="#8a8a8a"/><path d="M55.551 37.849c-.363-.105-.766-.09-1.168-.065-.303.018-.606.034-.906.05-1.228.007-2.456.067-3.68.116l-.26.003a90.058 90.058 0 0 1-3.193-.03c-.54-.015-1.076-.038-1.616-.06l-.441-.019a4.352 4.352 0 0 1-.886-.222c-.144-.056-.395-.03-.405.068v.066l.014.01c.12.342.96.436 1.587.483.875.065 1.764.052 2.643.05 1.845-.004 3.69-.018 5.531-.08.522-.018 1.044-.04 1.566-.065.283-.015.681-.002.985-.055.11.006.176-.02.208-.054l.067-.029c.095-.05.081-.13-.046-.167" fill="#4d4d4d"/><path d="M48.571 37.669c.053-.002.116 0 .152.044.046.056.017.149-.043.19-.056.04-.13.044-.197.046-.917.027-1.838.015-2.755.003-.067 0-.134-.002-.198-.025a.216.216 0 0 1-.138-.142c.191-.04.403-.02.597-.028l.624-.02 1.26-.044.698-.024" fill="#ebefeb"/><path d="M50.441 36.839c-.014-.042-.028-.088-.014-.13.014-.05.06-.081.106-.106.211-.115.448-.176.688-.176.06 0 .123.007.162.05l.039.085c.088.31.173.619.26.928.029.093.05.203-.013.276-.04.046-.103.063-.163.075-.194.04-.391.057-.589.055a.49.49 0 0 1-.271-.064c-.134-.093-.067-.273-.085-.411a2.983 2.983 0 0 0-.12-.582" fill="#4d4d4d"/><path d="m51.631 37.619.056.006.025.066c0 .044-.004.091-.028.125-.032.042-.092.05-.145.056a6.432 6.432 0 0 1-.829.023l-.08-.014c-.06-.03-.1-.155-.05-.211.06-.065.208-.017.282-.013.257.014.515.001.769-.038M49.781 27.639c.198-.018.416-.035.564.096.106.096.16.261.293.313.092.034.194.005.29.027.084.02.155.077.222.134.226.193.455.386.684.58a.326.326 0 0 0 .12.075c.053.015.11.005.162.004.201 0 .37.132.533.247.159.112.325.211.497.299.184.094.434.165.586.021.106-.101.11-.276.05-.408-.064-.133-.18-.231-.3-.317-.374-.267-.805-.445-1.21-.66-.47-.25-.91-.548-1.39-.778-.332-.16-.678-.268-1.044-.196-.254.05-.501.099-.755.142-.152.026-.494.228-.328.41.144.16.836.028 1.026.01" fill="#ebefeb"/><path d="M54.351 23.849c.063.183.074.4-.014.571-.102.207-.321.3-.522.378-.148.06-.3.119-.452.177a.646.646 0 0 1-.29.065c-.158-.014-.295-.154-.362-.318-.071-.164-.082-.35-.089-.532-.007-.473-1.104-2.79-.522-2.874.508-.074 2.1 2.093 2.251 2.533" fill="#ffe0d6"/><path d="M53.801 25.709c-.018-.165-.035-.337-.11-.477l-.006-.014a7.345 7.345 0 0 0-.166-1.418c-.233-1.112-.685-2.151-1.178-3.152-.223-.45-.53-.95-.988-.976-.279-.016-.536.155-.766.333a9 9 0 0 0-1.14 1.04c-.408.441-.306.578-.172 1.169a8.005 8.005 0 0 1 .063 3.263c-.07.367-.162.768-.007 1.101l.014.027a1.06 1.06 0 0 0-.218.435l-.124.406c.593.05 1.15-.267 1.69.022.318.169.55.508.854.71.247.166.529.235.78.392.48.3.532.453 1.072.486a.374.374 0 0 0 .303-.104c.134-.143.124-.394.099-.607-.102-1.035.106-1.6 0-2.636" fill="#6c99b9"/><g fill="#fff"><path d="M53.771 28.359c-.483.014-.984-.056-1.418-.284-.392-.207-.702-.537-1.08-.764-.628-.374-1.453-.512-2.145-.244-.049.02-.031.088.022.08.462-.075.91-.104 1.365.013.455.117.815.36 1.178.645.625.49 1.277.74 2.078.708.099-.004.102-.157 0-.154"/><path d="M53.751 27.779c-.811.032-1.57-.54-2.261-.882-.653-.321-1.411-.387-2.128-.37-.074.003-.07.106 0 .113.43.043.865.052 1.292.142.412.087.776.263 1.14.473.56.326 1.29.722 1.957.697.11-.004.11-.177 0-.173"/><path d="M53.761 27.229c-.833-.051-1.545-.483-2.297-.796-.716-.297-1.421-.38-2.194-.313-.067.006-.067.103 0 .107.43.02.857.012 1.28.098.417.085.809.256 1.193.433.65.3 1.291.613 2.018.658.12.008.12-.18 0-.187M53.751 26.629c-.808-.047-1.535-.336-2.286-.611-.66-.242-1.45-.52-2.159-.343-.05.013-.035.086.014.09.413.02.811.038 1.217.142.388.1.766.242 1.14.383.666.253 1.35.519 2.074.525.12 0 .12-.18 0-.186M53.771 26.069c-.399-.017-.794.032-1.178-.107-.36-.13-.688-.314-1.055-.426-.677-.205-1.404-.296-2.113-.324-.06-.002-.078.1-.014.111.751.128 1.506.19 2.233.437.342.117.656.312 1.002.416.367.11.751.068 1.125.08.124.004.12-.182 0-.187M53.801 25.509c-.402.028-.766.021-1.157-.093-.342-.1-.67-.238-1.01-.347-.67-.213-1.4-.388-2.109-.33-.123.01-.127.193 0 .194.812.006 1.563.157 2.329.418.66.226 1.259.435 1.961.264.06-.014.05-.11-.014-.106M53.591 24.899a2.7 2.7 0 0 1-1.242-.068c-.328-.1-.638-.251-.963-.362a7.282 7.282 0 0 0-1.026-.25c-.293-.053-.61-.11-.893.006-.039.017-.039.083.014.082.74-.013 1.524.207 2.208.482.646.258 1.256.434 1.951.29.12-.024.067-.2-.049-.18M53.611 24.329c-1.39.058-2.656-.71-4.05-.678-.141.003-.141.22 0 .217.744-.017 1.454.194 2.17.384.571.152 1.309.372 1.894.176.053-.017.046-.101-.014-.099M53.411 23.489a6.429 6.429 0 0 1-2.208-.093c-.55-.123-1.196-.399-1.754-.157-.035.016-.017.074.021.074.36-.008.688.015 1.041.108.321.085.639.182.967.242a6.403 6.403 0 0 0 1.933.043c.138-.017.141-.235 0-.217M53.241 22.849c-.282.166-.62.073-.928.037-.324-.04-.649-.077-.977-.114-.631-.072-1.28-.186-1.916-.11-.134.015-.134.226 0 .21.73-.08 1.478.059 2.205.13.353.035.71.084 1.066.1.229.01.437-.012.614-.168.045-.04-.015-.116-.064-.085M52.941 22.169c-.639.146-1.27.168-1.92.118-.574-.045-1.15-.098-1.717.02-.067.014-.053.127.014.12.631-.068 1.249.027 1.873.077a6.17 6.17 0 0 0 1.81-.116c.145-.03.085-.251-.06-.219M52.801 21.609c-.667.03-1.32 0-1.986-.007-.55-.006-1.087.056-1.591.278-.127.054-.018.238.106.183 1.125-.495 2.346-.006 3.489-.337.063-.018.053-.12-.018-.117M52.411 20.849c-.321.11-.631.194-.97.224-.261.022-.522.028-.783.066a4.242 4.242 0 0 0-1.5.488c-.038.022-.01.09.032.073.522-.22 1.09-.35 1.655-.391.568-.042 1.076-.066 1.622-.252.13-.045.074-.253-.056-.208M52.091 20.339c-.413.288-.893.32-1.38.369a7.122 7.122 0 0 0-1.259.242c-.123.036-.07.232.057.197.497-.142.998-.219 1.51-.294.412-.061.8-.17 1.11-.464l-.038-.05M51.721 19.829c-.49.357-1.132.274-1.655.55-.109.059-.01.224.1.168.521-.264 1.163-.232 1.59-.668l-.035-.05"/></g><path d="M51.111 24.449a1.64 1.64 0 0 1-.116.491c-.138.288-.41.455-.667.605-1.037.605-2.074 1.211-3.108 1.817-.148.086-.304.174-.47.179-.165.005-.345-.1-.384-.281-.053-.25.17-.456.363-.591.586-.405 1.172-.809 1.754-1.213.497-.344 1.023-.725 1.252-1.328.261-.698.06-1.529.31-2.232.304-.85 1.122-.73 1.21.173.075.734-.056 1.655-.144 2.38" fill="#ffe0d6"/></svg>