<svg viewBox="0 0 47.8 50.035" xmlns="http://www.w3.org/2000/svg"><g fill="#e6c7a0"><path d="M31.406 17.53a1.044 1.044 0 0 1-.233-.42 1.82 1.82 0 0 1-.08-.432 2.073 2.073 0 0 1 .11-.79c.059-.174.14-.34.25-.47a.698.698 0 0 1 .399-.255c.271-.049.548.142.7.426.122.228.171.502.208.771.029.21.05.425.024.636-.027.21-.108.418-.249.538a.653.653 0 0 1-.243.122.986.986 0 0 1-.488.036c-.147-.034-.275-.038-.398-.162M34.958 17.53a1.04 1.04 0 0 1-.234-.42 1.806 1.806 0 0 1-.08-.432 2.058 2.058 0 0 1 .11-.79c.06-.174.14-.34.25-.47a.698.698 0 0 1 .4-.255c.271-.049.548.142.7.426.122.228.171.502.208.771.029.21.05.425.024.636-.027.21-.108.418-.25.538a.65.65 0 0 1-.242.122.985.985 0 0 1-.488.036c-.146-.034-.275-.038-.398-.162M30.68 15.49c.213.283.335.64.346 1 .007.204-.022.412-.101.599-.05.116-.118.222-.186.328-.106.163-.222.335-.4.4a.54.54 0 0 1-.468-.074 1.27 1.27 0 0 1-.344-.361.97.97 0 0 1-.132-.248c-.028-.089-.033-.183-.04-.276a2.217 2.217 0 0 1 .017-.58c.018-.091.048-.18.078-.267.036-.104.072-.209.12-.307a.973.973 0 0 1 .302-.369c.123-.087.293-.15.444-.122.15.028.273.157.364.277M34.258 15.49c.213.283.335.64.346 1 .007.204-.021.412-.101.599-.05.116-.118.222-.186.328-.105.163-.222.335-.4.4a.54.54 0 0 1-.468-.074 1.27 1.27 0 0 1-.344-.361.959.959 0 0 1-.131-.248 1.128 1.128 0 0 1-.04-.276 2.217 2.217 0 0 1 .016-.58 2.18 2.18 0 0 1 .078-.267c.036-.104.072-.209.12-.307a.98.98 0 0 1 .302-.369c.123-.087.293-.15.444-.122.15.028.274.157.364.277"/></g><g fill="#c8ad8b"><path d="M29.395 17.22c.064.187.13.377.251.532a.341.341 0 0 0 .159.126.404.404 0 0 0 .11.014c.143.005.286.01.428.011.067 0 .135 0 .199-.021.12-.04.206-.145.273-.252.145-.231.237-.496.265-.768.004-.037.005-.08-.022-.107l-.074-.029c-.388-.063-.784-.041-1.177-.02l-.296.017c-.055.003-.212-.015-.25.037-.032.044.026.145.04.189l.094.271"/><path d="M31.17 17.22c.064.187.13.377.251.532a.342.342 0 0 0 .16.126.4.4 0 0 0 .11.014c.142.005.285.01.427.011.067 0 .135 0 .199-.021.12-.04.206-.145.273-.252.146-.231.237-.496.265-.768.004-.037.005-.08-.022-.107l-.074-.029c-.388-.063-.784-.041-1.177-.02l-.296.017c-.055.003-.212-.015-.25.037-.032.044.026.145.04.189l.094.271"/><path d="M32.958 17.22c.064.187.13.377.251.532a.341.341 0 0 0 .159.126.403.403 0 0 0 .11.014c.143.005.285.01.428.011a.62.62 0 0 0 .198-.021c.12-.04.206-.145.274-.252a1.79 1.79 0 0 0 .265-.768c.004-.037.005-.08-.022-.107l-.074-.029c-.388-.063-.784-.041-1.177-.02a42.08 42.08 0 0 1-.296.017c-.055.003-.212-.015-.25.037-.032.044.026.145.04.189l.094.271"/><path d="M34.718 17.22c.064.187.13.377.252.532a.341.341 0 0 0 .158.126.403.403 0 0 0 .11.014c.143.005.286.01.428.011a.62.62 0 0 0 .199-.021c.12-.04.206-.145.273-.252.146-.231.237-.496.265-.768.004-.037.005-.08-.022-.107l-.074-.029c-.388-.063-.784-.041-1.177-.02l-.296.017c-.055.003-.212-.015-.25.037-.031.044.026.145.041.189l.093.271"/></g><path d="M29.099 16.79c.097.052.221.053.337.05.78-.013 1.558.01 2.338.001 1.463-.018 2.93.04 4.388-.046.125-.007.256-.019.358-.078.102-.059-.025-.182-.098-.265-.537.052-.889.023-1.429.037-1.74.045-3.482-.047-5.222-.019-.19.003-.504-.035-.679.028-.149.053-.124.222.007.292" fill="#bda383"/><path d="M34.688 2.59c-.065.27-.07.557-.065.84.004.275.015.551.026.827a.472.472 0 0 0 .024.159c.045.108.155.13.25.14l.664.07a.923.923 0 0 0 .343-.009.415.415 0 0 0 .275-.247.974.974 0 0 0 .047-.305l.05-1.099c.014-.292.016-.625-.146-.83-.13-.165-.329-.193-.51-.19-.407.003-.82.07-.958.644" fill="#ebefeb"/><path d="M35.828 2.94c.09-.002.188-.001.256.074.06.066.08.174.08.275 0 .101-.02.2-.026.302-.01.137.005.277-.005.414-.01.138-.053.282-.143.354-.064.051-.142.06-.217.065a11.49 11.49 0 0 1-.697.033c-.086.002-.182-.002-.245-.08-.062-.076-.07-.2-.074-.311-.006-.174-.011-.349-.014-.523-.002-.147-.028-.343.01-.484.035-.129.15-.094.238-.096l.4-.011.438-.012" fill="#fff"/><path d="M45.608.65a.613.613 0 0 0-.105-.337C45.342.1 45.005.059 44.71.046c-1.273-.054-2.547-.089-3.817.003-.083.006-.183.021-.216.088l-.071.097.015.315c.013.27.028.546.132.802.154.378.5.685.908.878.408.191.876.276 1.34.297.409.018.826-.012 1.209-.138a2.163 2.163 0 0 0 1.053-.735c.249-.333.371-.608.344-1.003" fill="#eef2ee"/><path d="M45.608 1.51a.603.603 0 0 0-.108-.337c-.164-.213-.507-.254-.807-.267C43.395.851 42.095.817 40.8.91c-.085.006-.186.021-.22.088l-.073.096.016.316c.013.27.028.546.134.802.157.378.51.685.926.877.417.192.894.277 1.367.298.417.018.843-.012 1.232-.138.438-.141.82-.402 1.075-.735.254-.333.379-.608.35-1.003" fill="#e2e6e2"/><path d="M40.238 3.9c.034.093.144.161.263.194.12.033.249.035.376.038l2.515.05c.696.014 1.394.027 2.087-.02.144-.01.29-.023.422-.068.146-.05.28-.165.236-.282-.048-.128-.26-.163-.434-.172-.22-.011-.44-.015-.659-.018-1.43-.02-2.862-.012-4.292.02-.213.005-.613-.015-.514.258" fill="#d3e4ea"/><path d="M40.238 3.48c.034.093.144.161.263.194.12.032.249.035.376.038l2.515.05c.696.014 1.394.027 2.087-.02.144-.01.29-.023.422-.068.146-.05.28-.165.236-.282-.048-.128-.26-.164-.434-.172-.22-.011-.44-.015-.659-.018-1.43-.02-2.862-.012-4.292.02-.213.005-.613-.015-.514.258" fill="#ebefeb"/><path d="M40.238 4.36c.034.093.144.161.263.194.12.032.249.035.376.038l2.515.05c.696.014 1.394.027 2.087-.02.144-.01.29-.023.422-.068.146-.05.28-.165.236-.282-.048-.128-.26-.164-.434-.172-.22-.011-.44-.015-.659-.018-1.43-.02-2.862-.012-4.292.02-.213.005-.613-.015-.514.258" fill="#b4c7ba"/><path d="M41.338 15.73c.094.593.188 1.193.153 1.797a.534.534 0 0 1-.052.233.448.448 0 0 1-.147.14.948.948 0 0 1-.436.183.44.44 0 0 1-.412-.187c-.08-.124-.087-.286-.089-.438-.01-1.033.134-2.06.286-3.078.02-.139.005-.333.157-.36.11-.019.238.135.285.225.195.381.187 1.053.255 1.485" fill="#877667"/><path d="M37.248 17.47c-.022.123-.045.255.006.37.085.19.326.24.532.267.834.107 1.675.215 2.514.156.22-.015.468-.059.59-.242.075-.111.086-.251.095-.384.03-.417.058-.834.086-1.251.022-.312.043-.627-.008-.936-.038-.234-.118-.461-.13-.699-.01-.255.05-.544-.113-.741-.152-.186-.429-.195-.669-.189l-2.416.063c-.29.007-.44.073-.42.354.024.355.078.706.089 1.064.023.725-.03 1.453-.156 2.168" fill="#998675"/><path d="m37.248 14.2.018.066.051.035c.119.043.245.03.368.017.97-.097 1.941-.127 2.913-.15a.44.44 0 0 0 .225-.047.24.24 0 0 0 .107-.23c-.018-.112-.117-.167-.205-.194a2.078 2.078 0 0 0-.637-.064c-.867.013-1.736.179-2.604.135-.189-.01-.258.208-.236.432" fill="#736357"/><path d="M39.228 17.52c.207.023.419.046.62-.004.203-.05.396-.19.448-.392a.286.286 0 0 0-.019-.214c-.055-.097-.18-.14-.235-.236-.028-.05-.035-.107-.045-.163a1.634 1.634 0 0 0-.236-.606.481.481 0 0 0-.12-.136c-.045-.034-.1-.052-.154-.07-.17-.058-.354-.116-.53-.072a.946.946 0 0 0-.278.142c-.18.118-.362.238-.493.407-.179.23-.246.527-.296.814a.624.624 0 0 0-.01.237c.068.307 1.079.263 1.347.293" fill="#c8ad8b"/><path d="M22.146 1.82c-.116.37-.123.765-.116 1.154.006.379.026.757.045 1.136a.512.512 0 0 0 .044.22c.08.148.277.179.445.192l1.187.095c.205.016.413.032.613-.012s.396-.157.49-.34c.065-.127.074-.275.083-.419l.09-1.51c.025-.402.029-.859-.26-1.14-.232-.227-.587-.266-.912-.263-.725.006-1.462.097-1.709.887" fill="#d3e4ea"/><path d="M22.644 1.18c.528.165 1.093.16 1.646.153.102 0 .205-.002.303-.031a.554.554 0 0 0 .255-.164c.05-.056.088-.127.082-.202-.01-.142-.166-.221-.302-.265a3.751 3.751 0 0 0-1.002-.177c-.263-.01-.63-.013-.869.122-.23.129-.489.447-.113.564" fill="#dfe3df"/><path d="M23.459.13a.34.34 0 0 0-.077.156.479.479 0 0 0-.004.24c.02.077.069.15.14.189a.428.428 0 0 0 .172.043c.113.009.238-.002.321-.079.097-.088.108-.246.048-.362-.1-.197-.41-.385-.6-.187" fill="#537082"/><path d="M43.418 9.45c.348.066.57.424.628.774.042.252-.008.558-.233.678-.08.042-.174.056-.242.115-.102.086-.111.237-.112.37a95.02 95.02 0 0 0 .09 5.333c.005.116.01.238-.04.343-.05.105-.175.185-.284.144-.145-.054-.155-.252-.142-.406.104-1.208.071-2.423-.008-3.631-.036-.557.037-1.43-.02-1.986-.04-.393-.352-.386-.432-.764-.099-.469.251-1.073.795-.97" fill="#acb18f"/><path d="M42.948 10.46a.872.872 0 0 1 .006-.512.358.358 0 0 1 .052-.117c.05-.067.135-.099.218-.109a.576.576 0 0 1 .522.223c.118.16.142.384.06.564-.2.435-.713.395-.858-.049" fill="#bcc29d"/><path d="m45.428 10.58-.126.28-.076.182c-.09.216-.183.44-.312.636l-.056.087-.018.027.037-.09c.049-.117.094-.228.143-.333a4.46 4.46 0 0 0 .426-1.497 2.962 2.962 0 0 0-.209-1.415l.033.005c.167.03.323.15.418.317.084.148.125.33.122.54-.007.44-.197.857-.382 1.261zm-1.038 1.348a1.17 1.17 0 0 0-.03-.086c-.196-.475-.382-.942-.496-1.436-.127-.547-.142-1.05-.046-1.495.039-.179.09-.31.16-.415a.541.541 0 0 1 .34-.24.657.657 0 0 1 .226.007l.055.012c.049.011.104.026.157.048-.275.285-.384.658-.427.93-.059.37-.032.747-.007 1.11l.108 1.534c.002.027.002.058.002.092v.06c-.018-.046-.033-.093-.042-.121zm.606-3.65L45 8.28c.032.006.062.04.094.105l-.054.042-.068-.083-.046-.04zm.162.568a1.179 1.179 0 0 0-.07-.324l.048-.045c.18.41.252.887.209 1.387-.04.464-.18.956-.416 1.463a3.604 3.604 0 0 0-.05.11c.042-.165.083-.338.12-.514.17-.802.22-1.462.16-2.077zm-.1.01c.06.604.01 1.255-.158 2.046-.077.366-.17.718-.25 1.014l-.013.054-.015.07a2.559 2.559 0 0 1-.05.099c-.047-.105-.041-.315-.038-.449.001-.05.002-.095.001-.13a8.808 8.808 0 0 1 .197-2.124c.06-.274.136-.56.285-.81.021.073.032.151.04.23zm-.157-.441c.029.028.052.06.071.096-.184.276-.271.597-.338.904a8.894 8.894 0 0 0-.185 1.321l-.026-.38c-.025-.357-.051-.728.006-1.086.041-.264.148-.628.42-.898zm1.01.905a1.14 1.14 0 0 0-.135-.59.735.735 0 0 0-.487-.367h-.001a.327.327 0 0 0-.097-.006l-.008-.017c-.03-.064-.083-.15-.175-.16-.07-.009-.13.03-.174.069a1.016 1.016 0 0 0-.213-.071.815.815 0 0 0-.32-.02.643.643 0 0 0-.406.282c-.103.151-.15.33-.175.45-.1.46-.085.977.045 1.54.117.5.304.972.502 1.451.007.018.017.046.027.078.05.157.1.29.184.325l.028.04.045.053.036-.06.032-.054a.237.237 0 0 0 .06-.08c.097-.103.187-.244.263-.363l.055-.086a3.83 3.83 0 0 0 .322-.653c.024-.06.05-.12.076-.18.04-.093.083-.187.125-.279.188-.413.383-.84.39-1.301" fill="#d3d3d3"/><path d="M44.538 16.52c-.048.015-.107-.005-.16-.019l-.038.003c-.165.007-.36-.08-.393-.177-.1-.301-.051-.59-.021-.88.057-.537.085-1.078.122-1.619.02-.27.044-.539.08-.806.023-.167.063-.33.107-.492v-.026c0-.068-.012-.147.003-.213.012-.051.052-.082.104-.1.03-.023.083-.03.133-.02l.092.003a.745.745 0 0 1 .099.012l.032.008c.079.022.14.064.149.144a.914.914 0 0 1-.023.258l.018.142c.02.155.02.309.016.461-.008.27-.017.538-.035.806l-.09 2.257s.043.186-.195.258M43.328 15.19c-.333-.865-.546-1.76-.759-2.653l-.266-1.115a1.28 1.28 0 0 0-.075-.242l.013-.034c.09-.144.25-.087.39-.169.38-.222.228-.79.205-1.16-.025-.406-.001-1.135-.227-1.495-.217-.345-.71-.239-1.048-.21-.333.03-1.049.034-1.268.325-.207.276.083.915.155 1.189.106.401.187 1.1.513 1.394.172.154.356.002.553.064a.306.306 0 0 1 .128.08c.007.064.024.131.039.186a126.982 126.982 0 0 1 .295 1.14c.013.066.028.132.044.197l.024.071c.086.344.17.689.254 1.033.08.334.158.668.22 1.004.13.708.187 1.427.381 2.124.051.183.12.375.283.498.163.124.45.137.568-.02a.406.406 0 0 0 .068-.201c.086-.684-.238-1.352-.49-2.006" fill="#c8ad8b"/><g fill="#a58f77"><path d="M41.258 9.93c-.173-.369-.353-.748-.488-1.132-.018-.054-.103-.033-.086.024.121.412.24.807.413 1.202.048.108.212.014.161-.094M41.868 9.84a18.896 18.896 0 0 0-.31-1.155l-.049.006c-.011.388.057.83.18 1.198.038.113.207.068.179-.05M42.418 9.8c-.086-.422-.2-.83-.25-1.26-.007-.058-.098-.06-.093 0 .033.44.043.888.12 1.322.025.145.253.085.223-.062"/></g><path d="M41.728 16.97c.023.385-.036.84.331 1.07.214.134.5.149.765.158.67.024 1.575.244 2.062-.142.48-.38.374-1.217.394-1.772.033-.94-.145-1.914-.111-2.854.003-.08.029-.168-.02-.236-.356-.505-2.566-.49-3.174-.209-.563.26-.301 1.207-.26 1.697.065.762-.056 1.134.013 2.288" fill="#afd9c4"/><path d="M46.798 5.05c-5.837-.01-9.96.005-14.818 0l-11.329-.008c-.231-.167-.271-.372.026-.539 8.688-.01 17.125.012 26.084.003.064.178.063.366.038.544" fill="#ccc"/><path d="M25.054 3.39c.003.3.017.633.223.852.198.212.516.254.806.262.411.012.823-.017 1.233-.046.165-.012.349-.033.456-.158.078-.09.098-.215.112-.334.079-.63.102-1.268.068-1.902-.01-.174-.025-.354-.111-.504a.758.758 0 0 0-.398-.314 1.79 1.79 0 0 0-.507-.092 5.703 5.703 0 0 0-1.585.114c-.075.016-.201.03-.262.08-.067.055-.051.105-.05.193l.005.625.01 1.224" fill="#d3e4ea"/><path d="M25.272 1.29c.029.072.113.101.188.12.367.09.749.104 1.127.103.313-.001.646-.019.901-.2.082-.057.159-.146.145-.245-.014-.1-.113-.165-.206-.207-.473-.21-1.013-.178-1.53-.135-.156.013-.38.03-.512.129-.11.082-.163.311-.113.435" fill="#dfe3df"/><path d="M26.128.78a.376.376 0 0 0 .105.091.423.423 0 0 0 .35.048.305.305 0 0 0 .208-.273c.001-.188-.239-.468-.439-.415-.223.06-.376.35-.224.549" fill="#537082"/><path d="M27.954 3.7c.006.23.028.489.195.639.108.097.255.126.396.147.564.085 1.14.088 1.706.008a.643.643 0 0 0 .192-.048c.179-.086.258-.305.301-.506.04-.183.002-.369.023-.554.048-.409.016-.82.032-1.23.007-.174.01-.35-.026-.52a.746.746 0 0 0-.25-.438.96.96 0 0 0-.381-.153c-.62-.143-1.151-.197-1.753.013-.154.053-.35.148-.388.332-.046.222-.025.49-.035.718-.022.53-.026 1.062-.012 1.592" fill="#d3e4ea"/><path d="M28.156.94a.295.295 0 0 0 .095.286c.068.057.16.075.246.089a5.5 5.5 0 0 0 1.478.036.728.728 0 0 0 .328-.094c.097-.064.169-.186.143-.303a.294.294 0 0 0-.168-.192.814.814 0 0 0-.25-.058 6.64 6.64 0 0 0-1.043-.067c-.23.009-.759-.004-.829.303" fill="#dfe3df"/><path d="M29.005.28a.572.572 0 0 0-.128.35.222.222 0 0 0 .01.103l.06.07c.101.085.232.13.361.125a.394.394 0 0 0 .242-.086.287.287 0 0 0 .103-.239c-.01-.107-.088-.191-.162-.266-.143-.145-.32-.24-.486-.057" fill="#537082"/><path d="M32.848 3.67c.001.226.01.474.13.64.117.158.304.19.475.196.241.01.483-.013.724-.035.097-.009.205-.024.268-.118a.554.554 0 0 0 .066-.25c.046-.474.06-.952.04-1.428a1.02 1.02 0 0 0-.066-.378.483.483 0 0 0-.233-.235.842.842 0 0 0-.298-.07 2.632 2.632 0 0 0-.931.086c-.044.012-.119.022-.154.06-.04.041-.03.079-.03.145l.003.47.006.917" fill="#ebefeb"/><path d="M33.048 4.12c.105.146.27.19.425.208.22.025.44.012.657-.038a.353.353 0 0 0 .167-.077c.076-.07.108-.192.131-.308.023-.112.04-.238-.006-.339-.046-.101-.142-.144-.23-.18l-.375-.148c-.075-.03-.152-.06-.23-.07-.129-.017-.257.021-.383.059a.479.479 0 0 0-.163.073c-.203.158-.129.632.007.82" fill="#fff"/><path d="M31.071 3.68c.001.225.01.472.13.636.116.159.302.19.471.196.241.01.481-.013.721-.035.097-.009.204-.024.267-.118a.548.548 0 0 0 .066-.248c.046-.471.059-.947.039-1.42a1.018 1.018 0 0 0-.065-.377.48.48 0 0 0-.232-.234.843.843 0 0 0-.297-.069 2.648 2.648 0 0 0-.926.085c-.044.012-.118.022-.154.06-.039.041-.03.078-.03.144l.004.467.006.913" fill="#ebefeb"/><path d="M31.264 4c.105.224.27.292.423.32.218.038.438.018.653-.06a.313.313 0 0 0 .167-.117c.075-.107.107-.295.13-.472.023-.172.04-.365-.006-.519a.452.452 0 0 0-.229-.275l-.373-.229c-.075-.046-.15-.092-.229-.107-.128-.026-.256.033-.38.09a.417.417 0 0 0-.163.112c-.202.243-.128.97.007 1.257" fill="#fff"/><path d="m31.178 2.02.001.066c.018.07.102.1.174.113.14.025.282.03.424.034.206.006.415.012.616-.033l.07-.027.05-.075a.642.642 0 0 0 .023-.23c-.001-.044-.004-.093-.033-.128-.024-.03-.061-.042-.098-.053a1.805 1.805 0 0 0-.481-.05c-.161 0-.322.005-.482.016-.097.007-.208.007-.234.119-.02.08-.023.166-.03.248" fill="#736357"/><path d="M36.478 3.68c.002.225.01.472.13.636.116.159.302.19.472.196.24.01.48-.013.72-.035.097-.009.204-.024.267-.118a.553.553 0 0 0 .066-.248c.046-.471.06-.947.04-1.42a1.018 1.018 0 0 0-.066-.377.48.48 0 0 0-.232-.234.845.845 0 0 0-.296-.069 2.647 2.647 0 0 0-.927.085c-.044.012-.118.022-.154.06-.039.041-.03.078-.03.144l.004.467.006.913" fill="#ebefeb"/><path d="M36.668 4c.105.224.27.292.423.32.218.038.438.018.653-.06a.313.313 0 0 0 .167-.117c.075-.107.107-.295.13-.472.023-.172.04-.365-.006-.519a.453.453 0 0 0-.229-.275l-.373-.229c-.075-.046-.15-.092-.23-.107-.127-.026-.255.033-.38.09a.419.419 0 0 0-.162.112c-.202.243-.128.97.007 1.257" fill="#fff"/><g fill="#736357"><path d="m36.578 2.02.002.066c.018.07.101.1.174.113.14.025.282.03.424.034.206.006.414.012.615-.033l.071-.027.05-.075a.628.628 0 0 0 .022-.23c-.001-.044-.004-.093-.032-.128-.024-.03-.062-.042-.098-.053a1.806 1.806 0 0 0-.482-.05c-.16 0-.321.005-.482.016-.097.007-.207.007-.234.119-.019.08-.022.166-.03.248M32.978 2.12l.01.067c.016.033.053.049.088.06.189.063.391.067.59.072.138.003.279.006.411-.032a.352.352 0 0 0 .205-.136c.05-.078.049-.177.046-.269l-.02-.087c-.021-.03-.06-.043-.097-.052a2.782 2.782 0 0 0-.98-.074c-.092.009-.213.014-.242.114-.028.097-.01.236-.011.337M34.918 1.97a.21.21 0 0 0 .063.166c.044.038.106.048.164.056.278.034.56.034.839 0l.082-.023c.045-.031.054-.093.059-.148a.334.334 0 0 0-.016-.17c-.047-.1-.174-.126-.284-.135a3.431 3.431 0 0 0-.602.006c-.19.019-.3.037-.305.248"/></g><path d="M47.788 19.38c-5.837-.01-9.96.004-14.818 0l-11.329-.009c-.231-.166-.271-.372.026-.539 8.688-.01 17.125.013 26.084.003.064.178.063.367.038.545" fill="#ccc"/><path d="M11.149 46.35c-.005.222.046.47.226.596.07.05.152.078.234.099.423.116.867.138 1.306.134.27-.004.577-.032.743-.243.06-.078.096-.18.07-.276-.051-.176-.27-.232-.454-.247a4.725 4.725 0 0 0-.665-.004c-.166.011-.337.029-.497-.017-.16-.042-.31-.176-.318-.342-.004-.081.022-.17-.024-.237-.09-.127-.45-.162-.554-.042-.096.11-.064.441-.067.579" fill="#eaddd0"/><path d="M4.286 13.29c.044-.122.15-.23.34-.307.294-.119.524.322.304.523l.165.215c.14.054.283.098.43.132.341.176.657.098.947-.234.29-.381.027-1.115-.112-1.528-.185-.548-.436-1.071-.642-1.612-.41-1.075-.647-2.19-.248-3.306.51-1.425 2.345-2.882 3.627-1.37a.316.316 0 0 1 .077.201l.027.055c.222.487.219 1.198-.303 1.48-.303.165-.712.118-1.041.153-1.32.142-1.442 1.333-1.02 2.366.576 1.415 1.969 3.83-.252 4.653-.812.301-3-.413-2.299-1.42" fill="#736357"/><path d="M24.92 13.97c.145-.027.294-.03.44-.01.142.019.307.09.323.231.016.14-.126.244-.253.305-.591.277-1.262.314-1.914.346a2.13 2.13 0 0 1-.051-.68c.27.019.545-.029.793-.138.265-.116.524-.305.81-.267l.002.113-.15.1" fill="#eaddd0"/><path d="M12.268 11.31c-.248-1.245 1.103-2.13 2.02-.829.83 1.178 1.5 2.46 2.636 3.447.545.474 1.248.7 2.03.626a98.804 98.804 0 0 0 4.659-.556l.212.958-5.63 1.542c-.362.1-.738.2-1.115.163-.366-.036-.694-.197-.997-.37-2.008-1.146-3.417-2.985-3.815-4.98" fill="#ededed"/><path d="M6.096 46.11a2.18 2.18 0 0 1-1.408-.17l1.463-4.931c.154-.522.31-1.044.372-1.584.077-.663.013-1.334-.05-1.997l-.741-7.722c-.021-.219-.041-.441.026-.646.192-.592.946-.744 1.567-.793.136-.011.286-.018.397.06.126.091.16.26.182.416.298 2.018.409.144.707 2.162.105.71.399 5.32.344 6.033-.097 1.266-.315 2.6-.84 3.753-.809 1.775-1.261 3.345-2.019 5.419M11.374 29.33c.867-.025 1.735-.046 2.602-.07.054-.113-.17-.015-.169.109a57.035 57.035 0 0 1-1.045 11.712c-.323 1.661-.723 3.323-.73 5.016-.355 0-.711 0-1.067-.004l-.362-15.879c-.007-.268.004-.575.211-.744.151-.127.364-.137.56-.141" fill="#5e625e"/><path d="M7.777 8.89c.113-.268.285-.575.575-.59.188-.01.352.11.51.214.384.254.82.424 1.273.51.386.05 2.62.029 2.893-.234.195.68.506 1.322.784 1.973a22.37 22.37 0 0 1 1.498 12.285c-.2 1.234-.504 2.451-.615 3.697-.18 2.032.16 4.078.676 6.053l-6.947-.486c-1.45.042-2.857.084-3.694.144-.045-7.976-.043-16.21 3.047-23.567" fill="#f2f2f2"/><path d="M10.151 7.84c-.19-.332-.3-.758-.294-1.257.012-.92.126-1.863.544-2.665.482-.924 1.599-1.783 2.668-1.433 1.253.409 1.044 2.125.874 3.263-.135.904-.514 1.799-1.2 2.355-1.025.83-2.09.609-2.592-.263" fill="#eaddd0"/><path d="M8.211 4.6c.037-.299.053-.606.065-.922.035-.98.472-1.508 1.22-1.995 1.222-.793 2.887-.834 4.098.001l.096.069c.364.507.644 1.084.663 1.755.012.416-.064.88-.237 1.268-.03.049-.06.097-.093.144.08-.437.11-.918-.078-1.09-.168-.157-1.233-.06-1.525-.152-.493-.155-1.3-.71-1.713-.17-.208.271-.132.667-.081.987l.009.051c.032.198.059.397.055.46-.086 1.58-.307 2.721-1.415 2.267-.706-.29-1.461-2.021-1.064-2.673" fill="#736357"/><path d="M4.452 21c-.193-.213-.428-.38-.645-.568-.032-.028-.055-.044-.07-.059.021-.09.059-.147.106-.176.154-.016.417.236.448.281.054.08.097.169.137.256.049.109.094.219.137.33l.003.026.005.06a1.881 1.881 0 0 0-.121-.15zm12.234 11.745c-.264-1.63-.146-3.305-.121-4.964a43.579 43.579 0 0 0-.329-6.032c-.012-.097-.014-.31-.04-.488l.001-.085c-.068-2.194-.51-4.488-1.068-6.611a58.481 58.481 0 0 0-.729-2.472l-.938-3.015a.463.463 0 0 0-.117-.222c-.082-.07-.2-.075-.307-.076l-.331-.003c-.09 0-.197.008-.24.087-.037.067-.006.15.025.219.459 1.003 1.114 1.991 1.073 3.094a.99.99 0 0 1-.108.459c-.203.353-.678.411-1.084.43-.283.013-.595.016-.812-.165-.142-.119-.217-.297-.284-.468a15.736 15.736 0 0 1-.676-2.195c-.03-.128-.058-.258-.113-.378-.04-.085-.094-.164-.137-.248-.132-.263-.224-.955-.641-.91-.551.059-.079.885.013 1.135a35.486 35.486 0 0 1 1.408 4.884c.089.42.17.844.187 1.273.05 1.327-.539 2.617-1.38 3.644a4.046 4.046 0 0 1-.762.745c-.5.358-1.108.536-1.63.86a1.064 1.064 0 0 0-.108.076l-.043-.002a7.34 7.34 0 0 1-1.272.225c-.316.027-.785.09-1.115-.02a.298.298 0 0 0-.007-.122c-.027-.1-.085-.151-.156-.172a4.538 4.538 0 0 0-.153-.71c-.06-.204-.111-.426-.32-.525-.226-.106-.959-.199-.927.228.016.207.285.368.425.486.223.19.443.377.599.623-.1.079-.175.206-.159.326v.006l.002.066c-.337.224-.57.529-.622.988-.036.32.017.67.036 1.012a9.048 9.048 0 0 1-.006.233c-.073.254-.025.727-.305.826a.093.093 0 0 0-.056.134l-.003.004.022.028h.003l.011.01c.14.106.464.269.616.1.17-.195.154-.734.155-.974 0-.438-.123-.861-.124-1.295 0-.361.182-.617.415-.845-.036 1.064.2 2.193-.176 3.216-.166.455-.528.783-.706 1.224-.156.391-.136.818.025 1.206.026.06.106.085.159.064.063.06.195.035.191-.078-.016-.487.258-.864.492-1.263.184-.317.306-.631.328-1.002.027-.451-.022-.917-.031-1.372-.01-.466-.01-.935-.006-1.402.003-.212.019-.444.029-.68a.664.664 0 0 0 .131-.11c.333.161.792.186 1.135.225.353.04.796.098 1.181.057-.011.33.008.665.023.993.155 3.295-.122 6.628.357 9.88 2.502.42 5.033.6 7.56.534.403-.011.808-.025 1.207-.106.119-.021.25-.06.315-.18.063-.12.04-.272.018-.41" fill="#97a8b2"/><path d="M14.619 32.49c.025-.593.042-1.185.053-1.778.249-.039.498-.081.747-.13 0 .567-.002 1.135-.007 1.707a6.943 6.943 0 0 1-.793.201zm-1.243.123-.032-1.721c.355-.035.71-.081 1.063-.134-.008.589-.016 1.178-.02 1.77a7.425 7.425 0 0 1-1.01.085zm-1.184-.06c-.063-.007-.125-.017-.188-.024l-.015-1.531c.377-.018.753-.046 1.129-.082l.036 1.697a8.984 8.984 0 0 1-.962-.06zm-1.468-1.52c.353 0 .707-.007 1.06-.025l.019 1.496c-.35-.046-.698-.099-1.047-.155-.03-.434-.036-.875-.032-1.316zm-1.067 1.143a9.273 9.273 0 0 1-.098-1.164c.319.01.638.02.956.02 0 .431.012.862.046 1.288-.301-.049-.603-.098-.904-.144zm-1.295-.173a47.87 47.87 0 0 1-.075-1.076c.358.032.716.056 1.075.074.01.385.034.766.088 1.143a28.496 28.496 0 0 0-1.088-.14zm-.129-2.247c.372.021.744.032 1.117.039.003.363.001.726.009 1.093-.36-.01-.719-.028-1.077-.056a45.73 45.73 0 0 1-.049-1.076zm-.025-1.404c.374-.01.749-.025 1.124-.039l.016 1.284c-.373 0-.747 0-1.12.007a46.14 46.14 0 0 1-.02-1.252zm.019-1.447c.362.015.726.025 1.09.025.003.41.007.819.012 1.224-.373.032-.747.06-1.122.085 0-.445.007-.889.02-1.334zm.005-.19c.014-.434.037-.868.059-1.302.339.018.678.028 1.017.039l.006 1.143.001.134c-.362.007-.723.014-1.084.025zm.105-2.688c.322.014.644.028.967.039l.004 1.241c-.338.004-.675-.004-1.012-.014.02-.423.038-.846.041-1.266zm-.057-1.472c.34.029.68.057 1.02.078l.004 1.316c-.322 0-.643-.004-.966-.01.002-.462-.013-.925-.058-1.384zm1.07-1.374c.436-.01.871-.017 1.307-.02-.01.473-.02.945-.028 1.418-.415-.006-.83-.02-1.244-.04l-.034-1.358zm2.334-.018.01 1.417a40.65 40.65 0 0 1-.923 0l-.005-1.418c.306-.001.612-.001.918.002zm.18-1.229 1.047-.013.015 1.09a72.927 72.927 0 0 0-1.046-.003l-.016-1.074zm-.023-1.299 1.053-.1.015 1.244-1.047.053-.021-1.197zm-.01-.472c-.004-.24-.01-.479-.015-.718.355-.016.71-.035 1.066-.056.002.33.007.66.01.99-.351.046-.703.094-1.054.142l-.006-.358zm-.043-1.82c.362-.027.723-.056 1.084-.086.003.33.005.659.009.987a89.43 89.43 0 0 0-1.067.114l-.026-1.015zm-.04-1.523c.372.008.743.014 1.116.016l.007 1.226c-.365.044-.728.098-1.086.163l-.037-1.406zm1.142-1.082c.294-.02.588-.036.882-.05.02.317.042.634.064.95-.305.005-.608.012-.912.021l-.034-.92zm1.725-.08c.078.323.145.647.202.972-.283 0-.566.002-.848.006a57.366 57.366 0 0 0-.114-.951c.253-.012.507-.02.76-.027zm-.329 4.548c-.012-.172-.024-.343-.038-.515l-.03-.388c.296-.021.592-.044.889-.067.017.292.031.584.042.876-.288.03-.575.06-.863.094zm.908 1.475c-.268.008-.536.017-.804.029-.028-.436-.057-.872-.09-1.308.286-.028.571-.058.856-.088.017.456.028.911.038 1.367zm.028 1.117.008.271c-.254-.01-.508-.02-.762-.027-.02-.38-.043-.762-.067-1.143.266-.005.532-.013.798-.021l.023.92zm.046 1.583c-.244.024-.487.045-.732.065-.017-.405-.037-.81-.058-1.215.253.01.505.021.758.033l.032 1.117zm.034 1.226-.718.064c-.012-.339-.025-.681-.04-1.023.244-.018.487-.036.73-.06l.028 1.02zm.032 1.217a6.21 6.21 0 0 0-.714.067 124.81 124.81 0 0 0-.027-.963c.239-.024.478-.053.716-.08l.025.976zm-.679 1.655-.027-1.302-.002-.06a6.07 6.07 0 0 1 .713-.063c.012.455.022.91.031 1.365-.238.02-.476.042-.715.06zm.738 1.168c-.24.017-.479.038-.719.056-.003-.325-.008-.65-.014-.974.238-.017.477-.039.715-.06l.018.977zm.01.677c.005.353.008.702.01 1.055-.243.01-.486.024-.73.038.001-.486 0-.973-.005-1.46.24-.025.479-.05.718-.078l.007.445zm-2.079 1.429c.366-.011.732-.022 1.097-.043l-.01.83c-.356.06-.713.109-1.07.155l-.017-.942zm-1.346.02c.37-.003.742-.01 1.115-.017l.02.967c-.374.042-.75.077-1.125.106l-.01-1.055zm-1.23.022c.34-.007.681-.01 1.02-.018.005.357.01.713.013 1.07-.35.02-.703.038-1.054.045.005-.367.014-.734.02-1.097zm-.218 0c-.005.367-.012.734-.014 1.1-.32.008-.64.005-.96-.002-.008-.364-.005-.73-.007-1.094.327 0 .654 0 .981-.004zM9.5 26.93c.353 0 .707-.007 1.06-.017l-.012 1.143-1.024.085-.024-1.21zm1.102-2.836-.02 1.185a29.69 29.69 0 0 1-1.12.029l-.034-1.239c.39.015.782.022 1.174.025zm.003-.166c-.393.01-.786.018-1.18.022l-.036-1.31c.413.025.826.047 1.238.06l-.022 1.228zm1.1-.046c-.31.015-.62.029-.93.04l-.003-1.214c.308.01.616.017.925.017.003.385.005.773.009 1.157zm1.25-1.164.018 1.087c-.35.025-.702.046-1.053.067l-.014-1.143c.35 0 .699-.004 1.048-.01zm-.003-.174c-.35.015-.699.026-1.049.032-.006-.47-.012-.94-.02-1.41.35.003.698.008 1.047.016.006.454.014.908.022 1.362zm.262 1.243-.026-1.076a40 40 0 0 0 1.126-.05c.013.343.025.689.036 1.03-.379.036-.758.068-1.136.096zm1.129 1.147c-.367.053-.734.102-1.102.144l-.022-1.044c.38-.021.76-.05 1.138-.085.01.325.019.653.026.978zm-1.074 1.65c-.007-.43-.015-.86-.024-1.287.246-.025.49-.053.735-.085.136-.017.272-.038.408-.06.01.448.02.896.025 1.348l-1.144.085zm.023 1.235-.018-1.005c.38-.018.762-.042 1.142-.067l.01.977-1.134.095zm-1.328.36c.365-.025.73-.05 1.094-.077l.011.522.02.892c-.37.021-.741.042-1.112.057l-.013-1.394zm-.23-1.302.012 1.076-.983.085c.003-.377.005-.751.006-1.129l.966-.032zm-.017-1.661c-.314.021-.628.042-.943.056v-1.178c.311.004.622 0 .933-.007l.01 1.129zm.286-.018-.068.004-.013-1.118c.352-.007.704-.018 1.056-.035l.02 1.054c-.332.036-.663.067-.995.096zm-.053 1.464-.013-1.256c.355-.02.71-.05 1.065-.084l.025 1.277c-.359.024-.718.045-1.077.063zm.002.208c.36-.01.72-.028 1.08-.042l.02 1.012-1.09.096-.01-1.066zm-1.178-1.414c.315-.004.63-.018.945-.036l.014 1.253c-.321.014-.641.021-.962.032l.002-.328c0-.307 0-.614.002-.921zm-.013 2.79c.33-.014.66-.035.988-.053l.004.328.013 1.059c-.338.01-.677.017-1.015.017l.001-.088.01-1.263zm3.668.141c.001.35 0 .695-.004 1.045-.368.024-.736.049-1.104.07l-.025-1.418c.378-.032.754-.064 1.13-.103l.003.406zm-.176-7.165c.02.413.037.827.054 1.241-.374.028-.749.052-1.123.07l-.036-1.347c.369.01.737.022 1.105.036zm-.067-1.319c.019.332.037.663.052.994l.007.138c-.367-.01-.735-.018-1.102-.022-.01-.365-.02-.73-.033-1.094.36-.004.718-.01 1.076-.016zm-.09-1.481c.028.432.054.864.08 1.297-.357.015-.714.033-1.07.05l-.045-1.249 1.035-.098zm-.153-2.25.067.966c-.332.03-.664.06-.996.093a460.29 460.29 0 0 1-.035-.982l.964-.077zm-.015-.21c-.319.023-.638.053-.956.089l-.041-1.215c.306.002.613.001.919-.002l.078 1.128zm.175-.012a69.915 69.915 0 0 0-.112-1.117c.287-.004.573-.009.86-.016.059.363.107.727.147 1.092a27.21 27.21 0 0 0-.895.041zm.992 1.096c-.297.023-.594.048-.891.074-.026-.32-.053-.641-.082-.961.298-.023.597-.044.895-.064.032.317.058.633.078.95zm-2.057.837-.019-.502c.335-.02.67-.04 1.003-.065l.061.913c-.343.041-.686.084-1.028.129l-.017-.475zM9.49 26.461l-.026-1.005c.372.007.743.007 1.115.004l-.014.917-.004.332c-.355.007-.71.014-1.066.017l-.005-.264zm.055 3.02-.02-1.178c.34-.014.68-.029 1.02-.046l-.011 1.252-.001.088a40.51 40.51 0 0 1-.986 0l-.002-.116zm5.874.871c-.248.05-.496.095-.744.141l.008-.797c.244-.014.489-.032.732-.056l.004.712zm.776 1.63c-.179.085-.36.159-.54.222.004-.557.006-1.114.006-1.672l.3-.063c.143-.032.082-.25-.06-.219-.08.018-.16.032-.24.05-.002-.226-.002-.456-.003-.685.137-.014.274-.028.41-.046.13-.018.14-.215 0-.212-.137 0-.275.007-.412.011-.004-.504-.009-1.012-.016-1.517l.422-.053c.126-.014.133-.212 0-.201l-.426.032c-.005-.328-.01-.653-.017-.98l.541-.054c.153-.017.157-.257 0-.243-.182.014-.364.032-.547.046l-.03-1.337c.152.007.305.028.457.067.143.035.203-.184.061-.223a2.679 2.679 0 0 0-.524-.08c-.01-.336-.018-.67-.027-1.01.137-.017.274-.035.41-.056.121-.018.094-.226-.029-.215-.129.014-.258.028-.387.039-.008-.339-.018-.678-.027-1.016l.102-.01c.133-.013.134-.224 0-.21l-.107.01-.032-1.081.228.01c.127.008.127-.19 0-.197l-.235-.01c-.013-.403-.028-.806-.044-1.21l.146-.004c.125-.005.126-.2 0-.196l-.154.005c-.018-.46-.04-.92-.063-1.38l.17-.019c.127-.014.13-.212 0-.2l-.181.018c-.011-.21-.022-.418-.035-.627-.053-.885-.13-1.781-.31-2.653.107-.015.104-.183-.011-.184h-.029a9.266 9.266 0 0 0-.272-.973l.12-.003c.132-.002.132-.206 0-.204a24.67 24.67 0 0 0-.981.036l-.008-.06c-.005-.04-.07-.044-.066 0l.004.064c-.84.048-1.678.137-2.51.275-.063.01-.05.118.014.111.531-.053 1.063-.098 1.596-.134 0 .307.003.614.004.92-.373.012-.746.027-1.118.045l-.015-.646c-.001-.046-.071-.046-.071 0l.001.65c-.088.005-.177.008-.266.012-.057.003-.058.089 0 .09l.266.006.004 1.43-.151.028c-.05.01-.039.092.012.088l.14-.01c0 .34 0 .68.002 1.022l-.227.025c-.039.005-.041.063 0 .062l.227-.01.005 1.092-.155.021c-.055.008-.043.105.014.1.047-.006.094-.01.141-.014l.006 1.19c-.424.02-.848.039-1.273.053-.044.001-.044.07 0 .068.424-.012.849-.02 1.273-.026l.005 1.073a97.01 97.01 0 0 0-.918.011l-.003-.981c0-.053-.081-.053-.082 0l-.02.982c-.438.008-.875.02-1.312.035l-.017-.703H9.29l.004.705-.463.015c-.077.003-.077.123 0 .12l.464-.01.006 1.352c-.344-.017-.687-.04-1.03-.069a8.585 8.585 0 0 0-.218-1.225c-.012-.05-.087-.028-.075.02.09.397.147.795.182 1.196-.107-.01-.214-.018-.321-.029-.055-.005-.055.08 0 .086l.328.03c.036.463.043.925.034 1.39l-.358-.01c-.05-.004-.049.074 0 .074l.356.022c-.01.423-.033.846-.058 1.266a15.43 15.43 0 0 1-.573-.028c-.073-.004-.073.11 0 .116l.566.032c-.027.452-.054.903-.07 1.355-.164.007-.327.01-.49.02-.055 0-.054.079 0 .082.161.014.323.025.485.032-.014.455-.022.906-.022 1.358l-.464.032c-.058.004-.059.091 0 .088.154-.004.31-.007.464-.014 0 .416.007.832.02 1.249-.177.004-.352.007-.528.014-.054 0-.052.074 0 .08.177.018.354.033.532.043.011.356.028.716.048 1.072-.148-.01-.297-.024-.445-.038-.057-.007-.056.08 0 .088.15.018.3.032.45.046.021.356.047.712.076 1.069l-.085-.007c-.04-.004-.048.06-.01.07l.102.021c.01.127.02.254.032.381.01.106.18.11.17 0-.01-.113-.02-.226-.028-.338.366.084.737.155 1.109.218.014.082.029.163.046.24.027.127.22.074.193-.053l-.03-.148.616.106c.091.014.183.032.274.046l.006.07c.013.12.201.12.19 0l-.003-.035c.535.092 1.071.18 1.61.24.26.028.52.042.777.046v.01c.003.142.224.145.221 0v-.007a7.935 7.935 0 0 0 1.047-.088c.05.039.13.029.167-.028.275-.046.547-.113.817-.198v.096c-.003.155.237.155.24 0v-.173c.223-.078.443-.17.66-.272.135-.063.018-.261-.116-.198" fill="#d3e4ea"/><path d="M18.422 20.45c.11.039.22.079.311.151.092.072.16.183.149.3-.01.115-.12.221-.234.202a.111.111 0 0 1-.019.095c-.236.067-.472-.082-.688-.198a3.032 3.032 0 0 0-.524-.221c-.152-.049-.325-.097-.405-.236-.06-.1-.053-.228-.016-.34.036-.11.1-.21.152-.314l.853.158a.286.286 0 0 1 .131.047c.037.029.058.084.034.125a.252.252 0 0 0-.162.082l.418.149" fill="#eaddd0"/><path d="M7.899 12.67c.281-1.254 1.895-1.52 2.21.061.286 1.432.381 2.894 1.028 4.274.31.663.867 1.161 1.622 1.413a99.86 99.86 0 0 0 4.543 1.397l-.196.974-5.848-.882c-.375-.056-.764-.118-1.099-.307-.324-.183-.561-.467-.771-.751-1.39-1.886-1.94-4.167-1.49-6.179" fill="#ededed"/><path d="M16.546 18.4c.427-.465.803-.974 1.197-1.466.74-.923 1.546-1.79 2.352-2.655.18-.194.368-.393.612-.493.322-.133.688-.073 1.033-.024 1.638.233 3.302.165 4.956.225.215.008.441.02.626.131.372.222.434.743.344 1.166-.197.927-.88 1.66-1.504 2.373a29.201 29.201 0 0 0-2.48 3.286c-.216.332-.437.68-.776.885-.304.182-.67.227-1.023.246-2.204.118-4.352-.62-6.526-.999-.19-.033-.738-.106-.79-.359-.043-.215.385-.638.509-.787.452-.545.992-1.008 1.47-1.529" fill="#999"/><path d="M16.796 18.33c.404-.44.759-.92 1.132-1.387.7-.872 1.462-1.692 2.224-2.51.17-.183.347-.371.579-.466.305-.126.65-.069.976-.023 1.55.22 3.123.156 4.687.213.204.007.417.02.592.124.352.21.41.702.325 1.103-.186.876-.833 1.568-1.422 2.243a27.583 27.583 0 0 0-2.345 3.108c-.204.314-.413.643-.734.836-.287.172-.633.215-.967.233-2.084.112-4.115-.587-6.171-.945-.18-.03-.698-.1-.746-.339-.042-.203.363-.603.48-.744.427-.515.938-.953 1.39-1.446" fill="#ccc"/><path d="M4.641 46.41a.424.424 0 0 0-.035.215c.018.095.1.166.186.212.159.077.341.092.519.106.565.042 1.128.102 1.69.18.1.014.202.028.303.017a.516.516 0 0 0 .348-.187.416.416 0 0 0 .076-.38.503.503 0 0 0-.292-.29 1.275 1.275 0 0 0-.416-.07 4.51 4.51 0 0 0-.572.02c-.133.011-.29.022-.377-.077-.037-.046-.054-.103-.089-.145-.08-.11-.229-.13-.362-.144-.198-.022-.395-.043-.592-.06-.138-.015-.184.017-.224.134l-.163.469" fill="#eaddd0"/><path d="M6.358 46.42c.143-.29.448-.452.734-.596.123-.064.251-.127.388-.124.154.003.294.089.41.187.3.258.5.65.47 1.041a.675.675 0 0 1-.177.434c-.198.194-.515.183-.792.159-.814-.067-1.628-.138-2.442-.208-.48-.043-1.016-.113-1.316-.49-.048-.06-.087-.156-.032-.212.04-.043.109-.032.166-.022l1.63.297c.171.032.557.176.703.091.156-.091.184-.409.258-.557M13.245 47.39c.368.021.75.042 1.093-.095.342-.134.635-.473.593-.836a.82.82 0 0 0-.14-.36 1.217 1.217 0 0 0-1.094-.533 1.22 1.22 0 0 0-.99.71c-.064.144-.103.313-.22.422-.13.124-.322.149-.501.152a4.296 4.296 0 0 1-.975-.081c-.194-.042-.613-.148-.67.138-.065.32.344.328.54.338.788.05 1.576.095 2.364.145" fill="#6b6883"/><path d="M21.944 21.41c.137.008.282.015.405-.047.123-.062.205-.18.282-.294.874-1.295 2.18-2.6 3.054-3.894.462-.685.926-1.373 1.274-2.123.037-.08.066-.188-.003-.241l-.083-.03c-1.652-.34-3.768-.52-5.455-.561-.228-.006-.467-.006-.67.098-.177.092-.306.253-.43.41a82.443 82.443 0 0 1-4.404 5.103c-.106.112-.333.264-.264.44.065.166.314.188.46.218.907.193 1.816.381 2.73.539 1.027.177 2.062.317 3.104.382" fill="#fff"/><path d="M20.981 19.84a.947.947 0 0 0-.15.317.863.863 0 0 0-.03.418.698.698 0 0 0 .416.476c.202.086.433.088.646.037.208-.05.407-.15.55-.31a.721.721 0 0 0 .184-.59 1.063 1.063 0 0 0-.1-.276.76.76 0 0 0-.191-.273c-.187-.15-.515-.14-.742-.113a.892.892 0 0 0-.583.314" fill="#c8ad8b"/><g fill="#998675"><path d="M22.031 20.53c-.051.02-.087.074-.065.133a.114.114 0 0 0 .21.01c.046-.089-.054-.205-.145-.143M21.503 20.29c.025-.04.017-.097-.024-.125l-.072-.013-.048-.01c-.039.01-.064.05-.063.09.003.098.154.145.207.058M21.91 19.89l-.03-.019-.022.02-.022.039-.003.01c0 .032.027.06.06.057.062-.007.057-.084.017-.107M21.445 20.71l-.025.021-.026.03c-.012.04.027.078.066.079.04 0 .09-.033.087-.077-.005-.052-.06-.066-.102-.053M22.325 20.06l-.027.026-.042.07c.01.035.057.042.087.036.083-.018.069-.144-.018-.132"/></g><path d="M16.88 19.09a.723.723 0 0 0-.278.49c-.02.242.12.48.32.617s.453.183.696.173c.26-.012.54-.104.673-.328a.822.822 0 0 0 .079-.2c.047-.173.069-.36.009-.528a.704.704 0 0 0-.39-.393 1.09 1.09 0 0 0-1.109.169" fill="#c8ad8b"/><g fill="#998675"><path d="m17.496 19.88.005-.032a.24.24 0 0 0-.13.015l-.044.026-.031.032c-.054.074-.02.156.065.18.074.021.177.015.201-.073.018-.062-.016-.117-.066-.148M16.95 19.35c-.046.015-.079.072-.066.118l.065.058.012.001h.02l.002-.001.018-.006.007-.004.004-.003.018-.018.003-.004.01-.06c-.007-.044-.042-.096-.093-.08M17.494 19.33a.112.112 0 0 0-.083.055c-.039.036-.057.088-.024.136.03.041.088.045.131.026a.123.123 0 0 0 .073-.118c-.002-.053-.04-.105-.097-.099M18.136 19.54l-.032-.044-.02-.01-.018.001-.032.007-.045.03v.088c.055.05.164.006.147-.073M17.89 19.08l-.005.001-.017.002-.02.002-.036.05c-.024.066.042.1.097.088l.055-.04.005-.01.001-.003.001-.01.002-.004a.07.07 0 0 0-.083-.076"/></g><path d="M18.758 19.77a.763.763 0 0 0-.08.339c-.005.21.057.437.228.558.09.065.203.094.311.119.157.036.317.07.478.058a1.72 1.72 0 0 0 .267-.046.746.746 0 0 0 .259-.092c.174-.119.215-.354.24-.563a.88.88 0 0 0 0-.323c-.046-.188-.213-.327-.395-.391-.402-.143-1.084-.08-1.308.341" fill="#c8ad8b"/><g fill="#998675"><path d="m19.522 19.79-.02.036c-.01.042.011.086.043.114.035.03.087.046.13.025.04-.02.058-.068.048-.112-.017-.081-.148-.153-.201-.063M19.416 20.29l-.075.003a.063.063 0 0 0-.071.074c.014.08.136.091.171.021.017-.033.009-.078-.025-.098M19.993 20.1c-.045-.022-.1.013-.1.061v.052c.024.044.09.042.12.008a.077.077 0 0 0-.02-.121M19.934 19.54l-.01-.004c-.066.005-.074.103-.006.113.076.012.078-.099.016-.11M19.095 19.96c-.005-.047-.067-.063-.104-.037-.05.034-.053.112-.023.16.029.05.1.067.144.025.047-.044.022-.102-.014-.143l-.003-.005"/></g><path d="M18.063 17.77a.763.763 0 0 0-.08.339c-.006.21.057.437.228.558a.864.864 0 0 0 .311.119c.157.036.317.07.478.058.09-.006.178-.026.267-.045a.75.75 0 0 0 .258-.093c.175-.119.216-.354.241-.563a.888.888 0 0 0 0-.323c-.046-.187-.213-.326-.395-.391-.402-.143-1.084-.08-1.308.341" fill="#c8ad8b"/><g fill="#998675"><path d="m18.828 17.78-.02.036c-.01.043.011.086.043.114.035.03.087.046.13.025.04-.02.058-.068.048-.111-.017-.082-.148-.154-.201-.064M18.721 18.28l-.074.003a.063.063 0 0 0-.072.074c.014.08.136.091.171.021.017-.033.009-.078-.025-.098M19.299 18.09c-.045-.022-.1.013-.1.061v.052c.025.044.089.042.12.008a.077.077 0 0 0-.02-.121M19.239 17.54l-.01-.004c-.066.005-.073.103-.006.113.076.012.078-.099.016-.11M18.401 17.95c-.005-.047-.067-.063-.104-.037-.05.034-.053.112-.024.16.03.05.102.067.145.025.047-.044.022-.102-.014-.144l-.003-.004"/></g><path d="M21.12 16.58a.768.768 0 0 0-.08.339c-.005.21.057.437.228.559a.86.86 0 0 0 .312.118c.156.036.316.07.477.058.09-.006.179-.025.267-.045a.75.75 0 0 0 .259-.093c.174-.119.215-.353.24-.563a.896.896 0 0 0 0-.323c-.046-.187-.213-.326-.395-.391-.402-.143-1.084-.08-1.308.341" fill="#c8ad8b"/><g fill="#998675"><path d="m21.884 16.59-.02.036c-.01.042.012.086.044.114.034.03.086.046.129.025.04-.02.058-.068.048-.112-.017-.081-.148-.153-.201-.063M21.779 17.1l-.074.003a.063.063 0 0 0-.072.074c.014.08.136.091.171.021.017-.033.009-.078-.025-.098M22.356 16.9c-.045-.022-.1.013-.1.061v.052c.024.044.089.042.12.008a.077.077 0 0 0-.02-.121M22.296 16.35l-.01-.004c-.066.005-.073.103-.006.114.076.011.078-.1.016-.11M21.458 16.76c-.005-.047-.067-.063-.104-.037-.05.034-.052.112-.023.16.029.05.1.067.145.025.046-.044.021-.102-.015-.143l-.003-.005"/></g><path d="M23.344 16.83a.765.765 0 0 0-.08.339c-.005.21.057.437.228.559a.862.862 0 0 0 .312.118c.156.036.316.07.477.059.09-.006.179-.026.267-.046a.742.742 0 0 0 .259-.093c.174-.118.215-.353.24-.562a.896.896 0 0 0 0-.324c-.046-.187-.213-.326-.395-.39-.402-.143-1.084-.082-1.308.34" fill="#c8ad8b"/><g fill="#998675"><path d="m24.108 16.84-.02.036c-.01.043.012.086.044.114.034.03.086.046.129.025.04-.02.058-.068.048-.112-.017-.08-.148-.153-.201-.063M24.002 17.35l-.075.003a.062.062 0 0 0-.071.074c.014.08.136.091.171.021.017-.033.009-.079-.025-.098M24.579 17.15c-.045-.022-.1.013-.1.061v.052c.025.044.089.042.12.008a.077.077 0 0 0-.02-.121M24.519 16.6l-.01-.004c-.066.005-.074.103-.006.113.076.012.078-.099.016-.11M23.681 17.01c-.005-.047-.067-.063-.104-.037-.05.034-.052.112-.023.16.029.05.1.067.144.025.047-.044.022-.102-.014-.143l-.003-.005"/></g><path d="M20.571 14.79a.764.764 0 0 0-.08.339c-.005.21.057.437.228.559a.855.855 0 0 0 .312.118c.156.036.316.07.477.059.09-.006.178-.027.267-.046a.744.744 0 0 0 .259-.093c.174-.119.215-.354.24-.563a.896.896 0 0 0 0-.323c-.046-.188-.213-.327-.395-.391-.402-.143-1.084-.081-1.308.341" fill="#c8ad8b"/><g fill="#998675"><path d="m21.335 14.81-.02.036c-.01.043.012.086.043.114.035.03.087.046.13.025.04-.02.058-.068.048-.112-.017-.081-.148-.153-.201-.063M21.229 15.31l-.075.003a.063.063 0 0 0-.071.074c.014.08.136.091.171.022.017-.034.008-.08-.025-.099M21.806 15.12c-.045-.022-.1.013-.1.062v.051c.025.044.089.042.12.008a.077.077 0 0 0-.02-.122M21.746 14.56l-.01-.004c-.066.005-.074.103-.006.113.076.012.078-.1.016-.11M20.908 14.98c-.005-.047-.067-.062-.104-.037-.05.034-.053.112-.023.16.029.05.1.067.144.026.047-.045.022-.103-.014-.144l-.003-.005"/></g><path d="M20.141 18.08a.958.958 0 0 0-.15.317.863.863 0 0 0-.03.418c.046.214.215.39.416.476.202.086.433.088.646.037.208-.05.408-.15.55-.31a.72.72 0 0 0 .184-.59 1.064 1.064 0 0 0-.1-.276.76.76 0 0 0-.191-.273c-.187-.15-.515-.14-.741-.113a.888.888 0 0 0-.584.314" fill="#c8ad8b"/><g fill="#998675"><path d="M21.191 18.77c-.051.019-.087.074-.065.133a.114.114 0 0 0 .21.01c.046-.09-.054-.206-.145-.143M20.663 18.53a.093.093 0 0 0-.025-.125l-.071-.013-.048-.01c-.039.01-.064.05-.063.09.003.098.154.145.207.058M21.07 18.13l-.03-.019-.022.02-.022.04-.003.01c0 .032.026.06.059.056.063-.007.058-.084.018-.107M20.605 18.95l-.024.021-.026.03c-.013.04.026.078.065.079.04 0 .09-.033.087-.077-.004-.052-.06-.066-.102-.053M21.485 18.3l-.028.026-.04.07c.008.035.056.042.086.036.083-.018.069-.144-.018-.132"/></g><path d="M19.319 16.12a.956.956 0 0 0-.15.317.867.867 0 0 0-.03.417.7.7 0 0 0 .416.477c.202.086.433.088.646.037.208-.05.407-.15.55-.31a.72.72 0 0 0 .184-.59 1.085 1.085 0 0 0-.1-.277.763.763 0 0 0-.191-.273c-.187-.15-.515-.139-.741-.113a.89.89 0 0 0-.584.315" fill="#c8ad8b"/><g fill="#998675"><path d="M20.369 16.81c-.051.02-.087.074-.065.133a.114.114 0 0 0 .21.01c.046-.09-.054-.205-.145-.143M19.841 16.57c.025-.04.016-.097-.025-.125l-.071-.013-.048-.01c-.039.01-.064.05-.063.09.003.098.154.145.207.057M20.248 16.17l-.03-.019-.022.02-.022.039-.003.01c0 .033.026.061.059.057.063-.007.058-.084.018-.107M19.783 16.99l-.024.02-.026.03c-.013.04.026.078.065.08.04 0 .09-.034.087-.077-.004-.052-.06-.066-.102-.053M20.663 16.34l-.028.026-.04.07c.008.035.056.042.086.036.083-.018.069-.144-.018-.132"/></g><path d="M22.368 18.31a.723.723 0 0 0-.278.49c-.02.242.12.48.32.617.201.137.453.183.696.173.26-.012.54-.104.673-.328a.82.82 0 0 0 .079-.2c.047-.173.069-.36.01-.528a.706.706 0 0 0-.39-.393c-.368-.16-.8-.081-1.11.169" fill="#c8ad8b"/><g fill="#998675"><path d="m22.984 19.1.005-.032a.239.239 0 0 0-.13.015l-.044.026-.03.032c-.055.074-.022.156.064.18.074.021.177.015.201-.073.018-.062-.016-.117-.066-.148M22.439 18.57c-.046.015-.08.072-.066.118l.065.058.012.001h.02l.002-.001.018-.006.006-.004.005-.003.018-.018.003-.004.01-.06c-.008-.044-.043-.096-.093-.08M22.983 18.55a.114.114 0 0 0-.083.055c-.038.035-.057.088-.024.136.03.041.088.045.131.026a.123.123 0 0 0 .073-.118c-.002-.053-.039-.105-.097-.1M23.625 18.76l-.032-.044-.02-.01-.019.001-.031.007-.045.03v.088c.055.051.163.006.147-.072M23.378 18.3l-.005.001-.016.002-.02.002-.037.05c-.024.066.042.1.097.088l.055-.04.005-.01.001-.003.001-.01.002-.004a.07.07 0 0 0-.083-.076"/></g><path d="M22.751 14.79a.722.722 0 0 0-.279.49c-.02.242.121.48.321.617.201.137.453.183.696.173.26-.012.54-.104.673-.328a.812.812 0 0 0 .079-.201c.047-.172.069-.36.009-.527a.703.703 0 0 0-.39-.393 1.09 1.09 0 0 0-1.109.169" fill="#c8ad8b"/><g fill="#998675"><path d="m23.366 15.57.005-.032a.245.245 0 0 0-.13.015l-.043.026-.032.032c-.054.074-.02.156.065.18.074.021.177.016.201-.073.018-.062-.016-.117-.066-.148M22.821 15.04c-.046.014-.079.072-.066.118l.065.058.012.001h.02l.002-.001.018-.006.006-.004.005-.003.018-.018.003-.004.01-.06c-.008-.044-.043-.096-.093-.08M23.365 15.02a.114.114 0 0 0-.084.055c-.038.036-.057.088-.023.136.03.041.088.045.131.026a.124.124 0 0 0 .073-.117c-.002-.053-.04-.105-.097-.1M24.006 15.23l-.032-.044-.02-.01-.019.002-.031.007-.045.03v.087c.055.051.163.006.147-.072M23.76 14.77l-.005.002-.016.002-.02.002-.037.05c-.024.066.042.1.097.089l.055-.04.005-.011.001-.003.001-.01.002-.005a.07.07 0 0 0-.083-.076"/></g><path d="M24.791 15.16a.723.723 0 0 0-.278.49c-.02.242.12.48.32.617.201.137.453.183.696.173.26-.012.54-.104.673-.328a.81.81 0 0 0 .079-.201c.047-.172.069-.36.01-.527a.704.704 0 0 0-.39-.393 1.09 1.09 0 0 0-1.11.169" fill="#c8ad8b"/><g fill="#998675"><path d="m25.407 15.94.005-.032a.245.245 0 0 0-.13.015l-.044.026-.03.032c-.055.074-.022.156.064.18.074.021.177.015.201-.073.018-.062-.016-.117-.066-.148M24.862 15.41c-.046.014-.08.072-.066.118l.065.058.012.001h.02l.002-.001.018-.006.006-.004.005-.003.018-.018.003-.004.01-.06c-.008-.044-.043-.096-.093-.08M25.405 15.39a.114.114 0 0 0-.084.055c-.038.036-.057.088-.023.136.029.041.088.045.131.026a.123.123 0 0 0 .073-.117c-.002-.053-.04-.105-.097-.1M26.047 15.6l-.032-.044-.02-.01-.019.002-.031.007-.045.03v.087c.055.051.163.006.147-.072M25.8 15.15l-.005.002-.016.002-.02.002-.037.05c-.024.066.042.1.097.089l.055-.04.005-.011.001-.003.001-.01.002-.005a.07.07 0 0 0-.083-.076"/></g><path d="M9.843 50.03c-2.172 0-4.336-.12-6.483-.47-.74-.12-1.49-.271-2.136-.652-.645-.38-1.173-1.034-1.221-1.781-.076-1.193 1.022-2.114 2.08-2.674a15.853 15.853 0 0 1 3.432-1.302l-.827 2.79c.032.018.066.032.1.046l-.147.423a.424.424 0 0 0-.035.216c.01.049.035.091.07.127a80.704 80.704 0 0 0-.983-.177c-.035 0-.069.007-.092.032-.055.056-.016.152.032.212.3.377.836.448 1.316.49.814.07 1.628.141 2.442.208.08.007.165.014.248.014.203 0 .403-.035.544-.173a.675.675 0 0 0 .178-.434c.029-.391-.171-.783-.47-1.04-.117-.099-.257-.184-.41-.187h-.009c-.134 0-.26.063-.38.123-.217.11-.446.23-.606.41-.013 0-.025 0-.038.003a1.454 1.454 0 0 1-.133.007c-.094 0-.185-.017-.244-.084l-.025-.035.05-.011c.453-1.242.797-2.3 1.173-3.33a32.361 32.361 0 0 1 3.611-.392l.085 3.704h.182c-.002.1.003.194.002.254a.861.861 0 0 0 .1.455c-.08-.01-.16-.024-.238-.038a1.734 1.734 0 0 0-.367-.053c-.144 0-.274.038-.304.19-.064.321.345.328.54.339.789.05 1.577.095 2.365.145.135.007.272.014.408.014.235 0 .468-.022.685-.11.342-.134.635-.473.593-.836a.82.82 0 0 0-.14-.36 1.214 1.214 0 0 0-1-.536c-.032 0-.063.003-.094.003a1.22 1.22 0 0 0-.99.71c-.02.042-.036.087-.054.133-.014 0-.029 0-.044.003-.086.004-.174.014-.26.014a.758.758 0 0 1-.237-.031c-.144-.04-.281-.152-.312-.293h.233c.005-1.274.232-2.533.482-3.785.415-.015.83-.025 1.242-.036 1.684-.042 3.375-.074 5.066-.074 6.468 0 12.944.441 19.122 2.28.745.218 2.185.641 2.91 1.417l.49-.102c.668.458 1.425 1.231 1.049 1.95-.237.452-.808.586-1.311.671-2.352.381-4.72.596-7.098.734a106.366 106.366 0 0 1-18.123.663c-2.008.113-4.017.215-6.02.215m-3.87-3.027a.726.726 0 0 1-.144-.017c.05.007.098.01.148.017h-.004" fill="#e1dbd7"/><path d="M11.854 46.85c-.202 0-.405-.014-.605-.046a.861.861 0 0 1-.1-.455c.002-.06-.003-.155-.002-.254.218.004.435.004.653.004.031.141.168.254.313.293a.76.76 0 0 0 .236.032c.086 0 .174-.01.26-.014.015-.003.03-.003.045-.003a.758.758 0 0 1-.167.289c-.13.123-.322.148-.5.151-.045.003-.089.003-.133.003" fill="#dcd0c4"/><path d="M6.046 46.12c-.022-.039-.038-.078-.064-.11-.08-.109-.229-.13-.362-.144-.197-.021-.395-.042-.591-.06-.02-.003-.039-.003-.055-.003-.097 0-.136.039-.17.137-.005.014-.01.032-.016.046a1.09 1.09 0 0 1-.1-.046l.827-2.79a20.802 20.802 0 0 1 1.754-.37c-.376 1.03-.72 2.088-1.173 3.33l-.05.01M12.033 46.1H11.8c-.218 0-.436 0-.653-.004h-.182l-.085-3.704a63.13 63.13 0 0 1 1.636-.078c-.25 1.253-.478 2.512-.483 3.785" fill="#585c58"/><path d="M5.976 47c-.05-.007-.098-.01-.148-.018-.156-.024-.33-.08-.43-.102-.241-.042-.482-.088-.722-.13a.248.248 0 0 1-.07-.127.424.424 0 0 1 .035-.216c.05-.14.099-.282.147-.423.005-.014.01-.032.016-.046.034-.099.073-.137.17-.137.016 0 .034 0 .054.003.197.017.394.038.592.06.133.014.282.035.362.144.026.032.042.07.064.11.007.01.016.02.025.035.06.067.15.085.244.085.044 0 .09-.003.133-.007.013-.004.025-.004.038-.004a.73.73 0 0 0-.128.187c-.074.148-.102.465-.257.557a.31.31 0 0 1-.125.028" fill="#dcd0c4"/><path d="M7.64 47.53c-.084 0-.168-.007-.249-.014-.814-.067-1.627-.138-2.44-.208-.481-.043-1.017-.113-1.317-.49-.048-.06-.087-.156-.033-.212.024-.025.058-.032.092-.032.026 0 .05.004.075.01.303.053.606.11.908.166.24.043.481.089.722.13.1.022.275.078.43.103.052.01.101.018.145.018h.004a.314.314 0 0 0 .124-.028c.155-.092.184-.41.258-.558a.729.729 0 0 1 .128-.187c.16-.18.388-.3.606-.409.12-.06.246-.124.38-.124h.008c.153.003.293.089.41.187.3.258.5.65.47 1.041a.675.675 0 0 1-.177.434c-.14.138-.34.173-.544.173M13.654 47.4c-.136 0-.273-.007-.409-.014-.788-.05-1.575-.095-2.364-.145-.195-.01-.604-.017-.54-.338.03-.152.16-.19.303-.19.131 0 .275.03.368.052.078.014.157.028.237.039.2.032.403.046.605.046.044 0 .088 0 .132-.003.179-.004.372-.029.501-.152a.758.758 0 0 0 .167-.29c.017-.045.034-.091.054-.133a1.22 1.22 0 0 1 .989-.71l.094-.003c.393 0 .783.205 1 .537a.82.82 0 0 1 .14.36c.042.363-.25.702-.593.835-.217.089-.45.11-.684.11" fill="#65627b"/></svg>